<mxfile host="65bd71144e">
    <diagram id="sStwo6u_qATgwmNyG8aJ" name="Page-1">
        <mxGraphModel dx="4104" dy="771" grid="1" gridSize="10" guides="1" tooltips="1" connect="1" arrows="1" fold="1" page="1" pageScale="1" pageWidth="850" pageHeight="1100" math="0" shadow="0">
            <root>
                <mxCell id="0"/>
                <mxCell id="1" parent="0"/>
                <mxCell id="6" style="edgeStyle=none;html=1;" edge="1" parent="1" source="2" target="5">
                    <mxGeometry relative="1" as="geometry"/>
                </mxCell>
                <mxCell id="8" value="" style="edgeStyle=none;html=1;" edge="1" parent="1" source="2" target="7">
                    <mxGeometry relative="1" as="geometry">
                        <Array as="points">
                            <mxPoint x="80" y="420"/>
                        </Array>
                    </mxGeometry>
                </mxCell>
                <mxCell id="79" style="edgeStyle=none;html=1;entryX=1;entryY=0.5;entryDx=0;entryDy=0;" edge="1" parent="1" source="2" target="78">
                    <mxGeometry relative="1" as="geometry">
                        <Array as="points">
                            <mxPoint x="80" y="420"/>
                        </Array>
                    </mxGeometry>
                </mxCell>
                <mxCell id="2" value="CSS&lt;br&gt;" style="whiteSpace=wrap;html=1;" vertex="1" parent="1">
                    <mxGeometry x="20" y="130" width="120" height="60" as="geometry"/>
                </mxCell>
                <mxCell id="5" value="&lt;img alt=&quot;&quot; src=&quot;data:image/png;base64,iVBORw0KGgoAAAANSUhEUgAAASYAAADtCAYAAAASnNgZAAAgAElEQVR4AeydZ5gd1ZWuGc/YBhS6+6TKuerEDsoSGQlMMBhhMGCCyEEBqbvV3cpEI0A5k+y54zxO4zROgIkS0QHbM3euPbbHNjbZIEBIgCR477P20REiGMSY0Ij6Uc/JVXV2rf3WWt9ee+3dWvQS6Za2QWoDqQ30JxvYrT+dTHouaedIbSC1AbGBFEypx5h6zKkN9Dsb2M31AtItbYPUBlIb6A820PCYUzClYE5vTKkN9BsbSMGUGmO/Mcb+cKdOz6F/eIwpmFIwpWBKbaDf2UAKptQo+51Rpl5L//Ba3s3rkIIpBVMKptQG+p0NpGBKjbLfGeW7eadOj90/vLUUTCmYUjClNtDvbCAFU2qU/c4oU6+lf3gt7+Z1SMGUgikFU2oD/c4GUjClRtnvjPLdvFOnx+4f3loKphRMKZhSG+h3NpCCKTXKfmeUqdfSP7yWd/M6pGBKwZSCKbWBfmcDKZhSo+x3Rvlu3qnTY/cPby0FUwqmFEypDfQ7G0jBlBplvzPK1GvpH17Lu3kdUjClYErBlNpAv7OBFEypUfY7o3w379TpsfuHt5aCKQVTCqbUBvqdDaRgSo2y3xll6rX0D6/l3bwOKZhSMKVgSm2g39lACqbUKPudUb6bd+r02P3DW0vBlIIpBVNqA/3OBnYdMPke7utsjhsShEXCqITnx8hrefSDRD03HBfbD3CCENvx1Ob5Ib4f4jgenhds2zx838XzHBzHwXV9wqCI6yT4YZ4gqu/XCXzcoIrtlTE9Sx3DD4oEYf34rusim+9G+E5R7dt1IrUf14vxwwAndLF8G9128L0Svu/jBxZ+YNfPxY3xPE+9F8YGrl1R5xNHNRwvh+cn6v+6voMVt1AoDMELfLUfy4jxAhfLqWI7Q9Vzx3MJowTT8rBsnyguqjb1Qw/LsQn8diyzjO1ayHu2Xcaxq+pcXaeG78u+AuR4UeKrR8MyVRunnkj/8ETeK9dh1wbTDndCw9KRzXJMHM/evkknkk6mgOQHCk4CJNnkIjaAJLCybBfpvNK5ZZPnjuvjehG27eL6eQU0w3TJWy0UTEOByYuK6rt1o6hDUSBah0SI58bYXg4/sgnjAD+IVAe37ADHrxDGQ/GcqvpeHWh+HWB2CQUz10XTDOLEw7IcCrkqQTGjzss0ixh2C35Rx7bHqGMEyZ64nqHA5YYJbml3BSAF4iBSEBWIy/kGYaw+M50CAlaBZhA7hImrnstr29Pxorx6X9rJMAIcp4TrlnHcSN0Q3isdIj3P/gHQXQ9MO8BIgNHYiuVEdXrp+FESEkS+uvPL3V88Bz9OsDxfgUXAoDqkF6jXYqxhMBTfa0M8A9etqs1zW9V7YdChOrHjmQpQQVAhiC3coKDgo1kDcQNdeRDiqdlOqI4lXpXte4i35kdlLC/c5q24Ck5hHClvxHYdBQe1f6+A4xtqXwLVxnuBPwQv1OrHcYv4pQ8pYJTKrep/GnaEbbVhOjlsR8NxKlhWpEBseC2YlqMgK96SnKN4kgXNUv9LNyz8yKx7cQLm0FLnIBBS7RSYaPkaqj2CBDcwCRPZ6jcAw7TVftJO3z86/XvhOuzCYGpAKVZ3dglZDKusNtutIZtpV1Qo43itCgTi/UhnkwsncJJHea28osjBDixMT8dwNfUozxuvdVPDcnRsy6etOJ4h5ROoRuNpKx6t9mH7me2d2VRgCrFDHyvwMDwHw6piC/CCYv3YvofjSAio43oCnDK2V8RyE/UonlQ9VCwi+4uTvclprgr7vKBNeYaZloAoCjAKJRViSnjouhIGVoijoXUA+VUMs0OFcFFcViBPilUVAjbCXeVJRa1IO0mbOV5tW1tWCaJhWE6FIHIV7KWtxGM0rbonKYBrQP690CHSc+wf8Nx1wPQyT0katwEmeYxxwxx+XFCbPJfQIyzqagsSbTuQGnCSR4GTdEqBkwDI8g2c0MKNbLzYwYkMDC+vwjbLN9HMrAqtJhz1OVbM2szy2VuYdvJdlKOD0O3BSDik9uUGmK6noOREAbLJa9GUZL/SyUX/clWoltRDuNjEDkzkOHbg4Eay2ep85Nzydh4jyGCqEC2sh2zuUGy3GcssEIQ2+UILuVyOgjlQtYPoQVFcqWtEEo46gfKc5H9ruqn+u6bbKhSzvGYsbzC236K8IS80cIKs2o9mDapD1zXUvuKkQpxUVago+0w9pv7R2d9L0N2FwfRyY2jc/QVYckeXTTqNbLrhKHG3oR1J6CT6kfIwwgDLc1UIJ6GKbBLOqedeTXkfjpPghSWlW4kYfeoRX2LxNFjcvZVpJ96M55oKSqJtiXEor0Le8ywVytl+hBfWFJwMO49pawpMEhKKgL09lHMjFYJJKOl5JQVc0XAkJLOCQGlFmq2j6z6eW2TyCWu5bMpjLOnZzJEH9FEptRLFHpabx/Ut9T1LvD93kIKQnJe0gQj4IlonpaICVbFUUWK4hL0S8nleTbWBtJ20p66HlIqjlKakPEzPVMcQEHuBrfb3XuoU6bm+vO+8G+2xC4Gp4SFta9TtI3Siz9RHz2QErbHJaFsUJcRxUT3atoQ4dUFahGmBgek6CkpKB7JMBS/pmOJNaEZDTNeRzp03Qgqmg2nkOPWIf2Z532ZWz32KGWf/CN/fXcFIvC/ZBFAiGNuuoUb8bCtCL7Ri28Vto2Om8jIEmAIvN9ZxvAyOa+A6YX1zBXKGek/OXcvvS8FwscwqUWxj2xmWzHiM6y6Aq2bAUXtfi5WXkTSTQkGgXNe6RDuSkUrRkUzbUm0lAwSmbahwUN4T0V8EehkNNAwDUy/imDUs01Pt6VhlvHgw4lVJWwtQRcNSArgX1/f7Ko/23Tf+d6PDpcfcueu+a4LpZVCSzmYRheL1GNiWph4bzyXMkecy9C8dvDHqJmCSUTXNMpVXo2l59Z0wFKBFBEGA50unLaDpzcpj8eMSYeBw2hGfZ/H5W1jWtZkZp/wWNz8CGWGrbzJEX9eNJLwKxVvaNrom4HG8FhxfPCbxlEQHK6OZkr5QP77nlJFNACXnLKkMjh3iFpuIKjIiFuEGzbh6kZUz4MrJf2VFz/NMOGoBrintUMZys1jxHtvBY9ux8pDEW5KBAQGmDPfntZzyGnOFPI7lEoY6lpnHMUqEynO0VHtaumhyiQpTpf0ktaCg5xWARcCX12mH3LkOmbZTvZ12GTDVc5Mkd+Ylr2f73d6PKegJgVuhIxrNhEOvY9H0R1naB4t7NnBl9wOc/rF/oS0+CDfMolkxbuyjGUWiShOWVmT8wRezdMYTLOl6kUVTXmBF35Oc9JEvUk32JU4cLL2iQkLRXo45dDErpsOy6S/SfcY30DWHpJwnlysoj6WjeCyfOOQyFnY+yZpeuKoPFk79M8eM66TiH4DtxbR4u5N1C0pw13MySmaxz9Bz6TntRyzteoY1M59n1QxY0vsMh+83FzMj+VE6ecPk0HFTWDgNrp71LKunb2bxubCyZyuLZv2FK3ufx7UOI6/tiW/XMHWL0R3Hc9rHvs3C7idZ1gsreuCyab/lqANWE/o1FZY5bgHdHoReaGfVBX/lmpmweMoTHLL3YYxrm8fC6Y+ycg4cNPqSergXuGQLg3CDwQR+UXmMEiqmHS8F1M7YwC4DprrYHdTzhWREa9uduz6qVtdMRg87hM9cCCumwhXnr2fB9OdY2gOLpsF1F2xhdR/sO+xcdOfDakhcPKFSFLOyF+ZP2syS6bC4E66+6FkWd8GV0zZwzcVbGe7PVtqNiOsyVH70uCUs64Zl02DGmXeosEednzWEke1Hs7wHVsx6XIFl1awXWNoNa6bDyt7NzJ+4iSGth2J77WiOgWEkuI7OsWOXsKoHVss2YzNXTLmfZZ0vsqwTVsx8gJUzt+JbHcrT+vhBn2dFH3zqnD9wdV993wLTVbNg4cyNhLGHZgzANTxOG38dn+q8n9XznlP7/9TZT7Bm9jOs6nte6WRLZjxHzTuDcrmqNCnfHcGyGRtZPOU51vRs4YQDVrG483GumLqRBdM3cdDendh+kxLIJSSUcFNGBQVKKZhSKO0MlOQ7uySYJAyTTeAkYJIs5lJpKPMnouCzvO9B5al89COncNBeU1jcA1dMeZArJm9icS8EXiu2FdBRHsOcU3/DZ+a+qOC0vA+O2v8qjjxwIcvnPsn8yRtZNesRrpn3KIm/P5IyIMPkxx/yf1gzG1b1wowz7kTXdQqGT611qPK6VnShPJ6FU1/g8L2XccLRl7GoawOru2Fl91aWTt9MWP4nNSwv+tX4w3q5qku8qr8ob2nFzBf5xEcu5+p5cM0M0ZA2snjaM0pHkryl/UdOZsWs51jdC4unPczqWQ8hx1wxAy6euBmBi+8GHLLX2SzofIKFU2FR10aWToUJhy9n6TT49FzU47IuWDb7f7BsyX8KMI1AwVzAdE0fLJhYB96q2XDF9A0cfmCfyq1SyaGOpCn4Kms9BVMKpZ2F0i4Hprqw7CqxVeka4jm5vkpabKsewOrZEqZs5MpJjzKkdDBGQTKULSyrhaulI/Zu4erLn6Sj9Qj8eAD7dpzHFWfBqu4trOzbQEc8Ht1sUsK0jJ51n3oD88+AT/fCyUd+VY2EyXFPOOTzLOt9VoVPM067C9sqUDCLjD/0Uq6YvJlV3XD1nCepBYeQaS7TYn6Qsj+G5V0ChE0snryVMUMOw3NqyvO48By4phNW9WxW3p3lDyQMW2kZ5DKu9SKu7oFrxPPqeVFpXnG5BW1QByumb1XC94q+JzjhwOVEQR7PHkpzywBGdAznU5MeZI2A7aLHWD77cSKnQmgOwzdqjBvRyfI5D7J87n+zatYWxow8RGlrIniLNybnsmTqJpb2bOLA4XNxjBHE3n7qRlAwBmNZiRK/ZWROgJ2CKQXT+xpMojEJHMRjEjFXGkOymYuVkDUXPMvCSS9yzbyNfHT05Xh2hGuW8e2q0p80PcvgwQWVxJjLJhwxrpOrLnqEa+c8z1kf/S6hVaNcLqM7H6I590FGVj/BP8+DRedsYlHPFiVIm87ufPKwz7JwykZWdEPvyb9U+zejD3F5z0P886WwYMpDfGyfTnLNTfV8n5KJ72YYW17CyqlwzewtnPXR2zF0nwP3O5qFvVtYcv5TfHY+FMOPUIh3I0jGofuSNxUqPWvJtM2smgnDho6tD/EHo7d7QeL1nH74F9C03cjnTGyzzF7tn1Re4/wz4cpJsO/I0zC0BN3M13OsXI3Lu59hxSy45EzoOetODC1W3uSy6eLxPcXSzic59ahryeWb0P3dML0BOL6kIshoXbkeVoc5JaSnYErB9L4H046hnHQICeUkW3n++VtZ0fMsy6Y/zeqZsHTmFhZ0Pc34cbPYf+TZOFaFuDWPaY5SeUnLZ8O1F8LlZ8Hq2Vu5fPILXNH5PEtmvsDiblg+YwtLuh9m+TRYMxc8u0MlNE444nMsmfYsq6ZD94n34FohYeSyYCrKK7pmziYWdt7PShG9u+DS7r8ob+ez85/j8rO2sKr3BdZctIVsNsuhe1/E0t7nWTIVrux8ikq1lWYjR87Yi5w/EMcv0ZzfDc/SlYc1KL8beTOHlnNYM/c5Fk7bpLSsY8Z8GU9SDcIcltfCmPIlrJz1LFfNhGUznkA3DawwQ0u2jF0ZhFsqcMiY67j6IljY+QyXT4NC3sRzfBZ2Ps2qvqdUqHjAsFkKZCLYG3aCaZTw3CFq5FC3MmjbPMwUTCmY3rdgUsYvE2tFW5IcJMeuT7x1QzXto1Y8hEvP3qQ61JVTnmdp3zNqBGrN7CdZcP5zfOYyGDtqDgMH76Fm4M+fBPPPe4RlXetZc+EGls/cxLKZG1gkmkz38ypxcdmsv7JyFlzW9Sfayx/Fd2ucfPi/sLT7KZZ1PkfPhNvxvCzVaDiLu19k2Yy/smDqJpZ3wupZsOBcuGruVj59Acw7/bdcewEs6oFLJ0ISj+CIA+ewqvdFVs5Yz+Lup8nrH6ag1TCCAkY0gAFNGVqHlTHzw8kUNOLyWEy3gmZ9QJ2v6EWLe//CCYfPU3PkNLugJvQeOmYJC6f/haW9G7hq3hZcYy/0/BAK/ofJ6DFN+gf5+GEXcdl5z3LtLLiiayteUMD3Cyzuep6V8l+mwX7DZlIwqmi2j+nnkCxwaXfJCZPpNDIP0XTSUbk30ynT7+5i4rcI3QKkRoKkZC9LQqSMiDU7/6hCu8gfxMjSYXzigOtY3LmFhV2PKS1oZTfMP+dZNZVk/9GfxHI+rEa8ZDh/zVQ49eh/YXhyJvu0n8K4EScwdsi57NV+FPsOP5MRpRkctPc52EY7hUyNEw/9NFfP3cSKTug75ZcYeg5fT1jRC8u7UWA77rAeRkdT2L/9ZPZrO4aRySc4bMRc9ht+PKOHncSovQ5jYG43Dt1/KsumwrLeh5RgnhiHoxVyRGGJlhaHKNqPpmwGzd4dLdiDZiOk2RqgKgEs6UZpWuL1fWLcVZimSVYz0ew848b0qlG4K6c+ybK+J/FVOZMWnGQQutmhJimPP+gSVvVsZVXnBpbNhkx2MHHkKVFchPrFXY9w8P5nkrMHMTjTgRN56G5zPa/KrqgBBJknJ7lgqceUekxvBri7zKicTDmRP173liyV3CeAktcCJ5nnZpmtaHmZB5YlsIfR0tJC4JcZPfRYNfS9XEKt3vV8/ODZ6Pkixx12tdKKrpv5LCcd+UU1QTYXfJCs6zNI09GDgWRyHyZxymjWbkiNI6mJdPzhy1jR91dWToe+k36Lrg/GMgaxYsazCi6SFrB/x7k4fhOGq6MnAxgsWdl+RC4/SJ1fvRaSw8jWE1ja8wyfngNXTHqB4cPGkfMG02z4aF4zknU9bcLXlaC+YuZWSu5xeKXdcIwhLO59kmXTnufavucZP261ArNj74/ldjBk6EEs6a2nNKyZ9RfaakejGQlmYJB3/wEtO4rl4tF1P6LCyLOP/Xdcq4jt7s7STlg+/RkVqu4/aoIKHRtzCiVLvOGtSh6ZbOpmkWZ+pzlcb8IGdlEwSaqAva1USB1Mh+x3IQvm/D8WztjAom7wrFY8fzB6XkKN3Vk06UU1pC4wOXKfBWqS74i2E+v5SFPg6os3EttjKWiSo2OTzRnsP3Ial097mOXTYfncp3EKB6CbAzn20AUs7XqaNX0w/cT7SEpN+FbAR0dfyZWTNnD1TFh4/ot4Wit+8QMMbtFVHaUj9rmcq+fAkk44ar9PY1pZYns488+Ba2c/o7SsK6duJglHolvNxFHAfkMmsrLnBaUlLZ35GJVqqDLMJd1B8qWWnS/pBBuYeervyWt7EIUjGJz/IMVkJFdfDMt7NrBi2lau6NpEJTyCgXuY+M4Qxo24hMu7/lNpUFdOfIojxvaRG1zG1UaxqOsprpqzgUXnb2LcyLk41tB6WoZjbwdRA04ND/bN3C3T76be1S4Dph0TLKUzyLaj1lQJj2JB9wusmLNVichr5r3IR0ZPZ7/2To456BqVc3T1bBHDH2Rk7TRy1m5q5v2qCx9QSY3zJz7IVbM2c8oh13Lw8Mkct98/q0TEay/exBVT/8q4vaZTMJpVDaaTDvs6K2e8yPzzHmfqcfdh6jLRdTC1aAwr+l5k5ew/saRzo0qs/OThCzlyrzVce9HjCiLXzYTls/6b4cnpSkAO/YAjD5jMp07fymcvgTU9Mqr3FMft92mu6oWl3Q+zUnKN+rZyylHXouV9DK2DgpHh+MOuViN2Eo4JSE4/6vMcNnqNKuSWy/iMG/EpFne+wOrpqGz2lXMfYsL4S1nQ/ScWTIFr58LCyRv40sKn0DI6urEHgRezavaLLJwomeVw4MjTyORalK6kMu23jYg22l4eU9CkoHmzNrALgal+8UXLaIBpx0eZUnHAqLNUaHLVLFg8VaajPKySCyU5cNH0h1naBZ88fDG6LlNHxjBgD49KOJZFnY9y3UUozWnRxM0qrLpWRvWmvcD8afdz6sevxrXaVXE40bXGj1vB8r5NatTt4sm/YfDggWpaShDkGVEdz1WzYeGUZ1QOkWRar+zdxOJpT7Js6rNIWHXQsHNxzEhNBWlqGaxG2447dD4r5vyFRedJXtVWPnPhEyybupHVMiI4cwuLejcjJXWlBlOptajCzjEjP8qV0/+H5X3PIWHq4ulPIbpTqeLiF/8JQy9w8pFLuGzikwpCoomJ3iSe1qo561V7rOqDSNsH29qDfC6jCuEt7nlaQXnxtKcZu88JKqdK2rqRpiEwUtu2+lZyTd6sYabff3/DbJcE06vhZCndplgsM7x2DMfs/88qoXDhFFjQtZ5lszfSd94P6Ig+jplz1dy3Fm2QmqdWyDsqnBo3fDkrZ8KCqRtVmCZextIZT7LviPMwjX2UEG2aI3DsfThsn0VIlrjMlTt838twoj0wnQy6VCXI65T8IYw/cKaaWiIiueg1AquTDr6WDv9QAklvSJrZMzcAv1Im7+6hxOwR5S5mnXUva+Zu4rJzH2b1nI0sn/k8B46aqEbVpMaUbsUMGKwxKPcBVbZkVOtEVl/0nNK7JP9IwNTU8k8q5FQ1wrVRjB76MSYcfoNKn5CQ7oquZ1gwDQ7ee4aqvCATlc2WIfhSVjcKWdCzlSVdki2+gb1HHIWhV7dDqXEzaIjdjccUNO9v0LzZ67/LgKmRTNnoCGoqyvawwsZyI1UTyTVH4toyTWVPquU2yjWTTFOoMpdDdy8sw8VQmdoRbhwjuThGwVEeiOTkqFrZTojvxNhWBdOuoTsBXtzM4OxA7LgJJ8iQb9aIPF+NoHluu5pnpmkBUTgEywyxCq0UMhHNe9SoVnIUCjJzv4CelQoIERldx4yqDMxa6H4LWc2nKRMoWFpGO6VkOLY2mlzOR2bwt2Sb8aJYVRnwkgQnqOJ6IzAKwzHNmEQtwCBF4zw03SGJPkpWK9CSKSCF3TLmB3GTPOXyMKUTRUlM3izgRBoZTSppNpMv6GRyPgMHZQhD0aJikmgoLTlHlUmRek07gkmMUUTxRpj9Zo0z/f77F2a7FJgaUJJHAVNd8zBVjSDdNdH9PJmMlK81sYwOBg4sqDK5UseoYDcrr8qypYytSdbIMzCfwU9kiksLGaMFK3CQQmxSJbI5l8dwTTR3MHrwTzRnbazQxAxl+kWIbfiEfo4gzpIrhGhmC5Y1nJa8jl3aDV0fQlD0yfm7qSoGhjGcA0ZPZv9Rp6Hny+RNn4zThJs45FraVTldGTHLFDwK0QfJ2gZ5Q4biXazkAyohVLNsWvIuOcNGt1oZpO1GUqvRrH2YwYNkwYVm/GA4OStHxmxC2sSKm1TeUyFooTmvq/pT+bxM8i2gmRFGsIc6ZuC1UbAH4yVSJ1zK+uo0t+xBNutgeJJt31jkoV72RNq/DiYpbVwvU5yC5v0Lmjd77XctMIm2oWaxbyuHK0XOZIa775DzM2Tdwfhli5Z8joIzCD+qkjcSDGuYKo8rjWc7Opn8YCypm+2PQrdLKkwZ3OzhxSU0q0iLYeGVdPJ6gJZvq9dKCkLMeCAZPYdeqGHrJfLNBbXMU063kPK9Uhs7bw2iJVci73g0my3oXkJTtlWVy13Ut4WlszZhG1VacoOQxQoy+YGEXlVB1k2yaEGBgXmbbLAnZiIF6kxVgUAv7MMgfTfCUhXdj8jbRczyB9mj5UME4YGqVrdAM2e30GIaeLU8A7U9yNshWb2VrHhxkU5eq5fYlXK4UmNp4KBQAVQWO2jS/5FCOJCM1oZbGqgm68rSUppfT8+QZEpp65cSW+t1vxupHG/WONPvv39BtsuAqWHEDW9J7tjyvPG+5ji83mY4Nq+36bbFa22N30j1SSm4Vi/XW0/0VGHNtjXqGkXnpCqmCMPymXh0UhFSqg/UwgNY0feCGiWzDFuVpM3pgarlLUtL1Qv8e2ren8z9a6z91igZrGAgme5/Y5NjST6XVD9QpXilHK9dX2xBzuWV/63xvxqPuuXT2AzHRzZzW+1yVb/8FceVfcr/lFyyRpjduBbp4/sXODt77XdpMDXgJICSJZJef3tjMDU66Ws91qEkntpLnV2BSVIXHE91fPmdgEneF4AoWJimysiuBvuzvPclMMmyTA0wybJSMt9vx60Bpkbd7e3H2rb/V75ueDH1fcg5vvxcX+s/Nc5XztmwAwWj14JSCqYUNDsLnJ393i4PJoGCbNK5/p5tx477WvupA+mVUHpJDG785mVQUqFm3cuRtAQphSsVMm1TwKVTMCM0V0JAe/uUjoZHKBnWKst6m2f4ShC9+vW2c1HtIee547laO9E20oav3F5q01d6anL8hsekqg28iazfnTXe9Hu7LhDfN2B6dUetey47+34DLH/rsQHAl/YnINhxe+l4272lbWCS39Tig1SFSalmKTP4ZaUUwykqoV2BqZEbtOME5W2jji8d86VjvPI9tQDCNu9t+7lum1uoVj95A3ALZBoh6Cv3La93BFPj88ZvUjDtugB5u24OuySYGl7Fqzvg3+64jc70Zh5fqzO+/PcvgUm+u+Nn8lqFctvg1FY8dDuYQj9RYDLd0nYw7fjb/93zbR7Ta4R6MkDwRvtsQGbH7+34/3f04KTd5Ro0trfLeNP97rrA2+XAJMba6BAvA9RrdMgdO9n/9nmjc77kHb0SfnU4vRaY5L2G6CwlU6T07aJOiMNSvUyvU1STfC2rDpXGsRr7ej0P5n/7f/72714bbA0gNcLKBpRSaOy60Hgnru0uCaZGw70moLZpTi/zpuQOv0Oo9EbPX7vz7tBxdzyGAqKlllpy3W1TNbaFYw3dSsLDobWPsXSGZJa/SCmR5cx1VcdIQjq1rNS23KzGect/a0BYweANzr/xu8a5b/+PDc/mb/z+Vd9vhHQ7/scdnjfOq3EN0scUUP8bG9ilwbRjg6iRLRnd+hubQON1t20lVLZ36Fd05O1Zz6qTvlJclgU33XrxtEbH3kHTkZV+R7QfvR1MkpEuC05KgTW1Bp2c2zZPUEFohzSIhlf4tx6F644AACAASURBVM6r8X4DTDvCesf2UTrQ9vX4Xg3ql7fNSwuHNhbgfOV5ScZ3Pes77Zgva+d0EGB7Cs/rtcv7Bkyv1wjyWaMj/W8f32j/O36uYLKDYCxeyajWU1WpXlmGSdaWk2XHTU9XuVWyenADKDvu5618/kb/+608VrqvFNZvZAMpmLbdwd6oY77R52/U0Dt+/lpgGt12GstnvKDKpdTCsSmYUs9ipzyLHe1qV3qeguld6ACvBaa9Os5SNZUk+1tWBJaEzXfSY9qVjDr9L+99jywFUz8B0z5Dz2FZ3wss793KkNIhCkxSDlgE8ncilEs783u/M+9K1zAFUz8B0/4jJikwLevZyvDKEWo+mx2YqoJBCqYUGrsSdHbmv6Rg6idgOnDkVJbJ4gA9WxnVepSqodQAk7NDwuLOXNT0OynI3us2kIKpn4Bp3OhOBaal3S8wpv1oBSYntJTH5DjO2z4q91435PT8dy0Yp2DqJ2A6aEyXWo1XwLRXx8cxjIgUTLtWZ0vhufPXMwXT2wymRpqB7mdxwjJe1K5m6ftFk5yRVZUPXC/mkP3OV8uOX9H5LPuNPhZDd3CdNiw3oWAm+EFUr4zpZ5BSvbI5vob8NghL7+uh5bTD73yHf6+0VQqmdwhMUaVEziyoUrw5c6DK6PZDCdF08jmTw8dcqZYcXzLjYcaOOpVcRiMuWjjJYGRhhCDyVdE1y5XSvRGeV1LF5CTjur7a8K5nnO+VTpSe51tveymY3iEw6fowVYrXsatqQYKxIz7F6CEn0lY+AM+q8rH9+1g5c7NaYPMjwy/CKRSpFfdjZNspHPmRWeT1FlXKNoxKCNBUWRRTpo7YBFG6dlsKh7ceDu9mm6ZgeofAZLpNhOXB6IZLW+sw5p//Iou6N6nicMtmPsV1F7zAlZOfZPEk1NLbS3qeZEnvM6yaA5d3Pa88LJk/p2sJht2iFtaMo+HKkxJIvZtGlB5714JCf7ieKZjeITDJ2mth2E6hkEPTP8SEI6/jiqlPs6wLVs/eysKJL3Dt3I1cM3sLiye/oJbmXiMLcfas55DRC9FlAQQ/JAyGK23JsLOYRk0ByQ/TjtEfOlN6Dm+dHaZgeofApDuGAklSzhJ4IcNa92ZFLyzphEXnb+SaGbB86haumo5asnvl9GfVSr4Lev5Ae+lwJXBLnW5Zm06XVU4ClzhuVyuZSP3vtFO8dZ0ibct3vy1TML1DYPLLzTTnW9CtZuzCGDw7UqsAXzcPVnTDkikvctXs9Vw162GWTtvIii5JttzCyUesVEt5G6Ys0hkonUnWaVNr13m68qKiuJyC6W2+jims3llYpWB6mw16e7qA7WCHBYKgQugNo5Bv5oh9L+KKKRtY2fscq3o3sGjSi0pjWt0DK3u2srDrcQ4c1oXrNamROFnhxPab6iNyfoLly+hefaGCtOO8sx0nbe+3t71TML3NYNpuwE5NhV+mrHirNasFLktxB8t7YNXMp1nS/TxXzYDFk7eyqmczK6fD0r5n8UOPQc2GEr8bxeikOkF9dVtZ4baxvb2Gsv1/vFPtlR7nfe0Fp2B6hzqAlDHxQgvLtymY9cUnHTvgrKM/z8puWDhlI9fMeZGrZ8Cyzk1cfu5GPnHwIhyrjBvVl3MSMKmKlK8CUwqlFJy7lg2kYHqHwCTF+t1A6njHKptbluC2bZPRQw5kTR+smL6FK877Kyu6N/PpeS+yrGsr1aSGqSfk9abtS0G9Gky7lkGmgEmvp9hACqZ3CExSPtf16yvaOl4N0ymoOuBBYHDZ5PVcOwtWdL3A6p4XuXLSY6ye+xSus7taxMDz421gqk/mrXfeNIRLIbbrQiwF0zsEJulEAhhZXMCS9eLcZmSY39B9jjl0EQsnblEh3KLJ8Jl5MKo0Ec/Lq+XDZULvy8M4MUgB0zbDlEUEGs/Tx7QtdgEbSMH0jl3ECNctYnv69sm4kgJgasMolYayug9Wz9rAtXNg/pQNlJIyllHEMstqLlxjtZOXC98pmFIg75peUwqmdwhMKu/IqS/G6foiYtuqbK7tDEN3Myzs+T2LOp9jcfdWTjj0s+T1f0TL13D9Vgwvv4Po3fCWtnlMjSWX3qH/kYJg1wRBf7uuKZjeoQ4dhMU6XJwKji8hWojhapheghHk+MiIWSzvhmWzN1KND8P2WzCtIWiuhh0bKZjeoevU3zro+/V8/m4wSWghm+fGasXYMJLFHW2lnXheBScIcSKDIfkieT+k0GaRc2zynotX9NCzJaKoA7ukIYsnJrZDpDpvSXVKzy5RsRN8z8JKHEzfJzCKhHYZLQrQI4fE8/AcFyOKMaIEz61nRufCBMMvkuih6tiyqKMXvLSCrXgxovsINOR9Uy/iJjXsJIdtZ9CLJXLFMl6+DS3wseII249UaBWGsTqm74kgbeA7RUzDIyyWsAIHXUK20Ma0CiRxSMXMq3aSffi+jmtkCcKYnGPSpO2Jb47igjkvcO2Mv2IZHZiFPIlTxtFbGRw4FMKByJSU0CuQhBVyho2VFNGDZvzAxisYeFWp0VQi1OtTVuS/u1ZMFAXYoauOL8uPu3agEjO9QBY6sAn9AC/2kfQFSU0oWDkSZxi2o5G3Y+zIJrBK6rhyrQ3XxAot9b7sVxbslLasX+sIXa6zE6lzEbvwHB/LjQhjD8cfgGcnBJZc0wEUQ4/AjvC9mKroZm4Gp5gQ5ot4+SFo7Tl0N6eSU+UaRV47gdOu9iHX0/RdzDB+Q11J2lpGRpWtbluMU42UeoGqdSX1riQZNk5KFDRD1cmS143fvF8B8W79778bTHLicrHtJMQKxLCLGG5IUpYiZxGaGaFZRaLQpRC2Y2ouwwptFPNlAt+mWutgQD5HQW+jXNoL02xWHdcPDPxIJ/Cq2KaH5zkKIlEU4dl5vKCAX4xV0bXEl6xqF93T1Gq3iVMl8mvYoY8dWCTR6xluHWKO6uBFzKCGazgM83QCpwU9sGmvuji2RqkYKghIbSQzChls22TimKY4QYvb8IrtZLIavu1QUseMCSvDGWwWsdw2CskYdtdLqgOHroVpBNhWGyV/GOVCgQMPupKPjpnOYNsjK0uD+y1UixGa4xCHYzDyMb4zGN8vKKh5znBiJ88QJ6DqOeTkJuGXqHi+qtVkRUVcAYRj4UWh6rymFKBzfYplEeAd1QEdy6dsD6HotpGLbLJxjna/jXbPpprsg56362VWLB3bD7C9WB3H98s4dohjBsrrM0MNIzKxyy5apKHHJnpkYcUeJWsorlYi9Gu4cYyVxJhJjaxTwgyGUnCzOGaEXc6QCXV8X1ZGLpKLBRzD0WyPIBG9zVeg8+wsoTeYUujiFd64UJ7Y6I6dTKAjsJItX9BVOzRAJXCSTb4fRomy7x1/mz5/+8PZtwRMcqHiYkRBs9G0SM3pcgMT2ytQLlcJvDZyjo5btLh02nB+/tlOPj6sjcgVA8yRtOVxim1kzRg/yDIkauaLy6azcN4J1Goeg8xmLN8ktodi5yoqg9pNXHSthG9U8DyNbJxRk1q9XEjs54iCHKYWkkTtFIJmNYql7urbDLQxVUQMVgqthZGlFpnMmw6fOPhQvrvofK7sPJo4GEWmRSMoFCnZVdyMS9ku4udchpaGqfeKbo3QblbeTBg4yqjFE9MLFr7lUfEjVUMp71rEpQLzZx7GF5cdyVfWHMu/X3cm/3rpUSztPpyCXaWQNWmqGuRKAYWgBS0zkMDy8OKS8jCdRKcQFjCLMVqhyNzuA/nK4nP4xEF7UfBsnLBIxQ8wrAJ2IF5JUk818CPV+aIowfd9BfSC5VIqtylYZMLdCPwi+fxQDF8qGAxlYGE38oZOxY3RWyMFmWIpoCywtwxCW3KxXNyoRMXXKDsJXkuNOD8KP9eKukG4MQK+2IwoFwehGzl0J1AQbbayONWB6kYWB63EubHq5pZzQnUTCEJbtWFJ71A3CC3MYBctwkoHulfC8Cw0QyeOhr4MOq8FDrneDa9Irrnkkcl1l61YqjB23MFM6+xm9px5XDb/Ctrah7wMVq+1z/S9tw9QbxmY/KzD8NJwqmEboevhOFk8L0vkG+p1od2nyWritm+fyf/ccg69nYeTSTIYSURzzsdImjBti5K5B99acA5PXN/D5l/MYdakAwlaLQpOB5EbUgoCNLeIFooX5uBbOqZdxi6PwDV8io6Ln7g4JRvfMzE0Eydu3z51Q+AkBiWGKqGAjHZJjlExKCOhpxEUmH3WcTx39zzWffFkytFeOKUybnvEAKuZ4rCYnN1EEBuYZgZLzxJ7NkloKS/Fq5Rp8jxa/IiwtV0dJ3BsiuJN5Jrp8Jq575uX8Odbenjwzm7+csO5cHsnv/rGFCzPx7FsmostZCwfP+7A1xMC3UJ3m+v/yx/OwEKIX63RVqqx9jun8eTdn2LmmeOxBa7SLo6DZuSwg1iF2K6URQnK6IZDqVTCckwFAAGXpC7YZoIbDsAueeyzj8G4vfMK+q1tCeWiST7KYIYd5K0SuhVjWwG26eB5AVFcVJ7MYK1AWKrhBhIW25juIPykRYW0ulfBDErIeUjIJm1VVHCLSGyP2EzI23uqMC0X+eS8AMOTkDLggGEV9i1XKBsHUgwjLH9PNC9Hi2Xi1kLMoq3C7J2BhEBoR09JQFWptnLJpZdx621rufuen7B23Z3cdPOtHHTwISTFsgrlxKvamf2n33nrQPWWgalqt+EXXExDUx3ej8rK6D0/URc151m0lSrc+4XTeX7dDOZMGo9bSVSHEZjljA6C0hHoVkj36Yfw0O1z+fNtE5lyynClMWSiNuKogq1lsYp57IqGbjYReL7SkQx3KJEdETguWb9IRmbcRx5JEOJ7bdvBJJ6MGJDcNQVKoltIPaOinRAGRawgy8wzjuS5O8/ivu8eSb7QTEvlg+iOjykaSFIj7yY0aSFh6xjMaBhZW7w9H8sLFYSrQUhZQhFTU3qMeDIS2jhxlcSrMcx3Oe6QoXxsXMiymUfw4A8v4b5/PU2db2i7WEEeJ5eQawkpRUOxTYtynFBobqYYDq2fp9VCMPjD3P21j/LiXX3MPetwDC+L5oUEtvwnDz9OsHSvHtJ6xbrH4DnopoaflDHEm7FD2itt6Ek7llXi95+fzLM/6qbgDGF3v5WamxD6bRRNm9ZSjYIb0BwWsdo6lKZnmjqu1oJVK6PFVQx/CFbQhnhjoiFKiG16IS0lk4xdVKJ/2W+j5rUR6hG2XkKWqWqtOrSHRQxL2iigGNkkfpGffftsHv75TCLdpiqhecGn6B1IaB+IY9YIggjLMN8QHBKSSagmMJJyxLJpuqk8p+//4EcKTPvtf+D27zS8qcbvUui8ddDZmbZ8y8Ck9IYowK9F7KnraNFQCvYwpa1Iwfw42Zti3uPXXzgDbprGxWd8RN15TTPG8wdTdQerKRpezcF2sxx38AiO36dIe84j0crs6WhExZEERju+FaiaRr5dU8J51snjhQaeEeGaFcwwwUxKWF4V1wqVJlP3lOoC53YwiWi/TWuwcxGiX0UVh1lnfpT1t57Lf3znPDy9jBFExKKbuQmRUyIOqkq70TSNciUiEC2s2IplJdj5hLBQpWS3KS9MCbSBQaFsY5TKaEaiBGnD82iyB3Ds+JCH77qY33/3bApuE76lETgmNbOVTMsglSogQrNh1yhW28gVsgRRSK06hLKV8NMfnstDt5/HvDMOxvRz5P2iErFDpc1EOLqLI8K+EyvvRvSmMI7QLR9NFy0sxCkMVGK6W67w+NqZbF53pppkbLXGKmzbM2xVQr9jm0oXjBMPw9DQdJsk6SAMhhI6EroauI6BZbWQJA5hIIMbJkOqYzADQx0zKXto+Yi8FhO0BWSjiGzFxgj2xM4PIK+1UjZsioGLk+vg4Ztn8Od1k9EqLTQ7BeykihMFuHEBL8opyMah3Hhev+M0YNQQwcXTa+hIv/jlf/Cd735PQUmAJPCSz9XNS/RTJ01gfaP2fas/32kwyUV6vYNnDUMJwmYSoPkOre0VkiBPYvwjU0/alyBuIXFz/Owbs3n8tkvpOn8/tDafjN+mxNJiZKLZIdnIp8VP0LwAK9LJOBFGWzuFOKbgudTCEtWMR6vmUy2W0G0HLyoSFSV89NRdNS7sQWjsSRyH6nPXe707qsAqVl6VZFfLEP6ssw9nwx0z+dlXuhnuVYmzFhNOPJARQ33y+UFUKhXlHdmBQ8ZsQvealNAvukVra5WDDj6A/fYfQxj6qqhbqdaqkiVts6RG2kp+GT9uwy4FTDplCE/cMpUHvn8GeV80tzIZrZnIdIhqPlbJUZ3a9oqokND/EJ88ahzDSxW8ATnWfbOPh+++iMvOOxQ31ilENaWVCRBF/xEvUrxCEawlZJUwTkIUEZYlrPKNJtrjAUT+cGpewAM/6uWJ286lEmUZmPsw7WFMaAm027CNWHk5UT6k3S3T4ZeINIu9OoZw2jHDiIzdGNYeEgQ1mnMdOMG+2FGFvNNMW66JVq1KLW4l7+xOxt2dqNyKb1fxrCZytUjdSIzKXnRUNZqt3QhaXf7846k88LMefLGPfEjR68Aq1CUC0cR0O6EQGK9rm2K3Yr8CJXkU0MijbFIZ9JZbb+fb3/l3tY+GVyXvC5zktyrsfwPwvV7fSD97/ZvGa7XPmwKTXMjX2om8lyQRpuGqAmiJW2BIvBu3fmUyT/70Yh768VQ23DeTX984lV99dTxP33kR3efsRxi51CyX+V178fBtZ/P0nXPZcEcn62+ayFNrp/LA2nmMaw1o9YaTC/dAd1sZUbP53b0T+f3PpjCiXYTrNvxwEHaYw7WHUTUt/nTnp/jjPfOVCGx5Y+rLHG3TkyR8k/MVYxMgiScldY5kiFpGlQRys849ikdu7uL/fvt0vnHNsTzyi3k8cPOJPLS2k7/ctYRJx4/E1wdQqsQ45ZAmV2OvMMf113bx4E3TeGbtKTx31xk8vnYuN33mAsZ4FoUWnUqUUPEN1bEk3MkaCeeMH8PG6+fyl299HD0YwuDcCIyapWp6DzBsjKhNwXJs7QPc/oWZPPWLbu6/5QzW/6yXP1w/nd9+cwIbb57LJWcfjBnm0ZJ2wrBVpQNYhk0tqCggGW6gRuZkRFFCGKkLFQUxRW8Qt39/FQ/ecSp/+N65PHv3HJ64dQrrb7mE9T+ZwoO3dXH/zZNZ9+0LqQYfUGvd2ZUOBuvNXDTzGB649wLW330aD90ykcd/Po97vj+DI8cmtCdlbM0iivbgksuO4LG7evjv264k0gsUS60UkxphJsOvr7+Uh28+n4tmnUpbc56qPpD/+EofD/3yQn6zbhncOJON3+vi0XU9PHX3bO6/+VSe/810bvr8FGr5kMQahRO+8WIMAiMJy+Tm0QCO2IEI36Ir3fjjm18GIPm+fPf1bP5v9YX0/TcPole22U6DyRexeMe7htyRA0eNllm+oUZ5bE90i30p2Sb333gZj9x1Mg/cMY+fXDuR2z83hT/ecSmbfnEsG9bNoPvscWjuUAw74JTTxvHbr3Xxy8+dyK++fjo/+epsNv94Es/c0smB++6Hb9pUjCK5SpXQ1Fn3+TN58rZOPn/ZRHKBRmL6lK2RZH2NlZ8ax6YbT+OnXzlV3eHdULQjByeS87XUiJTvSG5NWM+3kiTHwCAyR1PQB+EHI7l02hE8/uPTWH/bDP54Xx8/uf4s1l0zib/8YBIbf3EOv7mrm3H7D8c2RuC1HEyrvyc/u+EiHl43jQdvmcN/fO4w7rvueB66bRb33zSVe2+YStnIkS3nyYYD8JN9yBYkBSBhwvF7s+GOWfzyW5+kVoswjESVOklCSZdoVppNm1ngrlvn8cz1U3n8+qn84itncePKg3j0J3PZ+POLeOT2k7n41INUud58LqRkVfAlH8g21eCDHw3DEL3Hj1RoK/lQIkiHpTYC55/47OpPct/XzuL/faWXv647h2fv6+K+z5/Bf33rbH7x5VP5769O4/OXnoyTmDRvC6Ov/9wJPHp9L0//fDk3LP4k/7l4Br/70Rwe/s8+/nzHPPZv+wcMZwzNeYvRXiv3fX0uz91zBjd84wy0nKO0wS9f/QnW33Qu//X9aZhFnWbTZmgx5tPXHMsv/m08v/zXKTx+26k8ffsMfvLt0/jp5+fx+y+czU+/2sl18w/GDVtwzbICbMM2G57QjkCRm5C8FtjUb0jbRui26Ys333oL//69H6jQTjwmyWMqlatqxE68LPldY//p498PnZ1pw50Gk4zAyA4bF1xdbAkRtsGpGI3C8y18p8CqOaPZsO58HrjnIg47oJ24ycUsZBk7up3//sHpbF07j4vP3o9KIkPeLYRJDscYQWQVlWAsQu8frp/DY/dMZ+heVfw4j+9KkmBIaIWc9fF9WL9uIr+7cZoScf28Q8EP0XIJv/nRJDbcdjrnnzAOKzGVviKjdXpQJmN4KrSQ5D/NjXGLFbKWi+YnKs+qUvPJWQOYdfYBbFzXxxN3XEH3icfRYRpUNYOi0cJPfzCVjXdeyE2fmYRjZonCZj5z8YnwY/EyZnLgXh0U9BgvsRgztMQzd3bzwg87ueqSs9HjAhlnkBqK90IZDXOYcMJo1fF+/aNOJca36CFxcTi+G2EXCvhWyGcuGM+za7t44uYZHDCmnWwQUO0YxqhiiQe+P5ON15/BrLPHbtOSMkw79VC+uOpkvnvtGXxr6RF86Yrj+NrCj/HDxcdx4+Lj+e7SUzj/5LHouiRKVikEFtXifrj6njx131T+7x3TVKjaUqji1mLKboZyUCYb20qTmnh0lftvOZHH1l7AAWMsKklIPioQVZr49nWn8vTNU9SNQRIpvbYhaHmdQ9tsHr+ll4fuPI/Zkw/npI8O5X9unMSGO+Zw5Agbs1qhWU8oGXtTjKrYuQxuIeDh2+fy+NqpBEkBIwyI/QAtzFGM82hxK3ocs3uYf0NwiJco2pHoSmK7Ahup/lmpVbnjrjv51re/q4AkIGp8p/G9HT2snelU6Xf+fnjtNJhct541+5KIHKtEQZVw53tE1jDyWo6OSo1fffNMNv54KktnHUuz20JcNklGSZ6TwT1fm8TmdVdywYSjCLcl/4VBSWlLRmxjJAaGq/Pg7bN4dO3ZjBxZUcPxuaBEYoswbKtRnN/9sJsNazuZdMaROHqebFvISQcfwqbbuvnd9eep1UQySYsqG+JLnpETKQ/FNE3CxFWalNRDKsYJocxhs0MKhVBNsr14ylFK97nvW2cSG6JbtSmPUJICp3xyNC+su4g//uBMKolBEhX4yRcu4q93nM6SmfupIfrI2UuNTsatHgv62lm/dg5rv3QOkpcj8+SiZCh5wySOykw4bihP39bLn27sxTILVIaUaZG64IFD5JcIbIP//N5p/Pnmaay88AgVakrOlWZmKccBd355Ck/+/HJmTtmHnD+QoLY7yy45mv9a18WDd/Xy+B1n8czPL+CJe+fxxNo+nrtnpgpJP3PFUVTDJqLYU//ZdcvYrsGT35nMw7fOwYtiypUaudggyY0ga1TY3W5hWFDiOyuOZ9M9s7hh2Zm0xgZW03CsiqnSIeZ+YiRb13Xzq++cqUR4LbQpBf+gEiFnnPYxHrhtCo/cM4MHb7+cR9bOo+e0/anFNZXfFFU8DMdXOVtGuUau0qrO+aG7zqYUymdNJHYHYSkgzrlq7b2OWDymuhb0WkBoeFDiAeXymgrnRD866+xzWbJsKTf8+EZuuuVmFi1euj3hUn6Tyea3j+C91n7T9/5++LxeG+40mDyvIRhKSFcXjJ0gVuGB5N94hkUuzKrEtz/f06dSAo4bOwZJlis7lhI5A72NtV89jSfunUzX2fuji6eUmNhWjWLgEJqauiO2xSUe+OH5PL3uTMbuP5LYScgUS2rIWjymfLHAgr5j2HBDD3d/fYLyPDIll5uuPYetN/exfM7HldZi+AaRuO+lKpIdLsmOcShTSrIYZoYoCPFMV30mtZIkAziIa1w06eP89dZJ3PWNCejGHsgIml8sUixbjG8/gEdv6ebBn0/G0psoWq08cMcs/nTnVD42tkY+rBJIYqdZU0mfHz9oDH++4yIevWsqsWkRuYnKXvZleovlc+rxQ9m4bia//vIkwrxdTx6tmWRcGy8eowrFPXTvHJ6+r4fjDuyg6AwhziZofgWj3MI9/3qeCnfmnTWeqDSMvOPTHlUYWnEZ4pUYbrrUcu1Eoa/CpzhylR4XtlXQ/TYyuYBSMSbjGEQjWnn69lk8cfM8in4VKys3lUGEQQelsEjY7hNnQu79QSfrf3KB0g7/fM9knrxtgdKn1t9+CRvXXshT6ybwp3svV8mptjOUqpPDDLO0OG3c9IXJPHr9sTz6w1P58We7sErDaS7kGOV14LkmWc/CMPOElQAztnj++un88dYeInMkdsFkpDsG3ZL8MU9BU/K+fOOlTtII1RpG3wjhBEatbR3q5igjb+vuuIu1d6zj7nvv4fobb6Baa1MgbgCpvWOoApn8XvbZ2F/6+FJbv51t8abAVD+RRoGy+rwx0S0ETEmg47f65LQqv7+1l6dumsSkE8biVCpEuouttVH2hnDnv03g8XvPZO7Uo/FqAV4SqFEkCVkCt4JuylyuCn+6vocn7j6HoaPFWymRreTU56HRjhGFlMoFnry9l2fWTmCfvcdQjJp57OapbFw7hyHlItnQUdpTrLk0ezrNrkvBr6opJ3JMya8p2GXyXk2FRgKmuFzBsCNmn3UEj986hXu+eQbVmqOmQ2Q9B8vNc9Leh/LYLefy55+ei6n5BLkh3H/POTy9tptj920nG5awQhMvaqfZCzl+3wN4em0PD687l5IdYktyZJCo+Wgyj+y040fy9G19/OnmyUSeDOuH5DwDuxLSrDlqnt0fbjqLx7/XycyTjiGTl0xrh0ybS6a0O7/6ag/cNoN5Jx5H4IwgY8VqLpzUFpcJwG6xBbMYUnFt2vwKiRWTSOE5w8fVixQVyFpodku0mBqPqcMLUgAAIABJREFU3TuV9bf14ulV7GQUQaIxOIyw8w56MoBitsgvr7+AR+7q4v7rz+POb5zA//vaJP7jG+dx71fP5K5/ncy6Lx/N19ecQqAb6G6VnFvCjU2KbQk/+/r58LOZvHD3RO74wlkYTpGw5GNlxI5C7KiNICdz6WRKSAQ3zuChu6aT08rEtZG4ekgmMih2jCE3RMOOaljByzWgHUHS8JhE+BY4Sagmm3hPY/beixWrVnL7urX8n3/5nIKWhHHyG4GXeIyN37+dnTDd96tht9NgkmkMrwZToKAkc64kK1uGpWVO1P/8cAZP/nACX1r5SZr8QThhglZyVLb0T/7tPJ648XwuOfVMzJwkZAZIXoyMKLllB7Pqo7s2j946g/W3ncWYkUMIvFZaggJB1KFCOT1fJGNbfPPqY9lyy0xWXHEMi3sPYfPdl/D9a45RnoNkDtfsiIqsJlL2KEQ2outUI4fzTtmXc07al5In71WwSvVpNKqypKdz4eTxrL+1i3u/cjqS0V71OmiKHZXGsLB3PC+uPY9ffvUYRFeTEPe+fzuHZ+84l2XTxqqEymKxXJ/Y6+/Ngon78Pxd53L3VyaonKLW6mi1Gq+XGGoO2jmnHszDP5rGT286U81di8IRBG6HapdKqUxoNPPQzefyxK2n883rJqgkRtHLbLdKbIb89KuTVJ7PoikHI9Uwc16LyoiPSvW8IdvS0KwYsz0i63lkdUulMSRJorK4RZsb4DQpr2C47vDcbdPYvHYiRWcg2SQhn8/j+cOw3ZEY7YOoaSE/WjOVx9eewXcXnkDZLWJkYgzdwUsicoUakvrREbuUfJ24EqrJ21a2me+uPI5Nd0zini/18MdbZvH07aeyZvqRylMelJQI2hN821DJqWIzkiT7+K2dPHbnydQSTU0Ozhp5lQ8WNCVYmSxVa5jKNH+jzi0jbAKkhtYkzyWlwrBM7vnJvdxw401KdxKANcAkvxFApRrTq8HxRu39936+02BqiN87HtDeYWTOsSo4to5vZPnhdZ9ky91Tuf/uXobU8nhZD9/JcfxR+/DI7ZeweW0Xl517FFE4mEByaUJNZRcXDBddQi3DZf2P57L51vP5yN4j1Mz5jCdVCCIsdxCxUVGTYw8/uMj6Gxfw61tP4Xc/mMXDP+7hyH0corYONYfKynvIMLl4Q+LtJHozX5p/GhvunaO2L112BkU9j+VqanKuZE77JY0Lpvx/9t47zKry2h/n5hujImXKqbu306fP0NvQO1Kk9yp9YGZgKKKCdJjOMANDHZr0asFCBxFrEs29MTGWGJOb/G4SEzVK+/zuWoeNI4GBGzWPPg9/rGefs/t+934/73pX+ayO+PLsbPzu2cfQKSkZCfFe+JNMRAIiPjr3KL44MRMbH+sBjyJAC8ajalkffHZqAn734gw0TwtCipPhkwVkBMP44+mZ+PuxaVi/qD9UK8gamapGYPg9MFQ/Wjbw4y8n5uDjVxcgLRyAEeeEVseJpokNOetedvlxtHQqPjuXi18eehiaHgvNb0CPc2Jy19744Mhc/PlCLuYMacosAkrAgtclc4fzW2lIClIqioKfeAQ4tAT4Qhnwuj1QPAKCWgS6FoQe1KEaEYQFHz56JgcfnR6FkQMbQPa64PfpCIkxCEgalGQV3vh45Axqhr+8OgYfn8hD905h+HxeBINByFpdLi3VpWc7uJw+yK4gLCnEWs7UIY3x5XOT8Kfns9C8YRDdO6Xhk9OTgFOzMLhjAtyhEO6pG4OwEoQa8EAOa6jtMfH780vw+blsDOveDPGxcUhMCDKzQcTjQEhK5HQWj0+8rtncqOHYUztaEtBQCoodCkADKQnZmAiYaLsNTHQeCiUgALOTe6t/+3d/f7dgdcfARBnp1V86vVCKHyEXPKUUeKTgNfqQJLRMMfHxcyvw+9Oj8dazWTi+9iG8sn8I3js7B389nY3/OTYZeRO6we2rA68YZHe+IQQ4o5wCCilh9w/P5+GTUxPRqEkCXJoTYigETXTC49GQ4k8FsT/GCXXx1qFs/PfxwfjjiYV457n+SJKTUV9wMdWKFmgCbygI2S1C84WQZul4bSedtx/+fmYQ3tzzCFIMnacTipAOjfLCPBHMebgDPj89Ef/zQh5+fS4HL24fhJ0bB+G3p0bj0zMj8JtjT0CTPfAEFShiQ1jOOPz86KPscXrn5KN4cWN/HK3si3cvjMbHZybirWcKkSzfAze5nq0AXB4fMwcEfQmQYh/An0/Ow/93fAD+8/gTOLqhF87tG4+1xYPgkmuhniSjXQMP3j81Bzg9De8em4x9lf1xdssQ9lj9/dRM/OPV0XhsRFueqjiJ4UGh1BA/4oUEnrJ6fT4EVQEmUdOofigBoiVxsZYkqwIkqz6n91A+3dPl4/Gr16fhw/P5OJafhbKFA3GooCde2jGVY77UUATx8ffjuU1j8dm5Bfjzm3Nweu04rJk9CruXtcIvj4zBO2dGYn5OPxhe8uJZaNjYwLuvzMDlZx7B/FHtEaOTUT0DlY/2w+dPjcUvz8xHk5R4zoMMSw3wgBoP2agHSzVxpLwP/vZCNn7/yiwcXjsIWx7vgp3r+uH4gSkc/a9rSpRipdr3+bXv9Fryru3yp23khIkkJHF8F2lNZGuicAECJRu0CKTs89DyLhB9t0B0Y/veOTDdwCsdHYko7yxqc5LVBLhlKn+dCFWshVFd2+PDE7PwydHHgROPcNzR21sG4cjiLvjd6TLMmtANmhTL2e/Er5Mg6qB4qHglhQ3h753Lxe/O5aJVugwX0Y7IIc65cmoCJJ/GWpBPqouc4U3x2wvFePfEI3hkamv4A244ZRW6FeKEWJfHCa+hQjCDUIV7UTK3I/700lz86aV5KJ7dGZpQB6KZBEkKImgGoMbfg0cntcWvjj+K45Ud8dHTw/CXY6Pw6am5+O+TE/Czp3LQyq/DdIQQCoSZhdItJ6KNlYBT28fiD6fH42/HFuDTYwvwp1PjcHbzaLSTfPBaClOy6B6Z01t0n5+5mCKREIb26Y1Pjo3CpTML8cdns/DZGxPx5uEpCDvcCGqNOGl1YmeJ44T+fHYG/npqCj49Mwdv7RiDpwq64r0XZ2DipKGwLA8Mw8NsC4rsQShI4RgOTg3RJHJAiFAVCZqisrAWTJ2ORA9D8jjRKtWN0ztn4r/PzsanL0/h+8LLWfjF6TykmxRn5UYoaCISH0Fpdi/86dVR+PD4JPzulQJ8/tIMfHFiNF6pGoMOLZKYNSBk1MfJ7Vn4n7NTcXTjKIT02ux5I7tkgu8BHN8+Dn9/dTqOr5+PgOSCpBGRHomP7Y+J/jp4eXce/nZiLg9o/3NuAv5wfgb+89hSJMv3IiCTQ8HinDmvNxrOQgGmHEiru+Bxy9D1aLAkTckoZICmcwQ2pA3FO1ycvEvhAjRtI3CybVT2bxvUbuw8d/9/d2D1rQAThRBQ0qVERPtqGG4rHvVc5FW5H80zA+jbtwkSE03I3hhOgfD5RMTLcagnxkKgvCtVhiKkwiHEQPHJ8DodCLjqINGjwvAmwK17IXoVUNQyU11IpIInRnPj4mORKNdFqvQA/LKLOwORm9FHRjlnFFxJHjCK7vZ6RVimjiYN0ljIK0fTRlkxGbzI+Et5WG7JA9NS4PU4IHsktGiQiYFdB3CkOZGbUVqHR1Hg0evBa9ZmL1e8acBt3QfV+H/o92BHDOzZGT7/T6AEanOyq9sk8jYJquCGKnpAtC1u3QOHux40byySIzHo2bkhhvRrjsbp8QhYTqhyGE4xhDhFgCAncGdq3iIZ/fq0QdASIbpdoCRaAnS63/oxD7Bti8jfPB5KbzE4TYeW5FUlIKLf/P8aWZo91fFafqjBAOI9sQiFBTRIlzDwoUwM6dcJLRulIqy5mNLGHQjA4RPhlRVYYhwiWj10adkGAwY0R4fmaZymIju1aIJvYgB1PA620eg01Rd8nB9JxHwECkRMR7FORAwYFmQoUgCSFuG8PCL+k/QAsyMkKiJapSVgdP+OGDGgLRqmaAysipEEl5GCOCsJkhDkMBDVdMIl1QMBvywlgMIgiICQgIie1dZ+aGmve+31N7Fv/0GeutG0zU5HIa2J/rM9qnpw8d3f37kG+a0BE/H+uN1kXI2DW6sPK+xHvBjDH7rhSwDZiOJEA1YoGTEONxtKjaAFnkqIbjh0Af4wjeqUQU95bwEIchJ/WJLXwYGXZNyVFRfbj0jD0bUktpGQYV4VdGYzIMMwgYYkOWCIsVBE6lBeeF2xzIkUQ9PBkMlSX3BwEUqPsx6Tj5EB1/KF4ZFUOAQXM2aShkYubM0MQ7EMxHpiEEwOwi0KnItmaD4I8ZRC4gcxKRBpGuWnmQSOboWz6d2CCodEGe0UnqCzq5sy7ikNhhJyiVEg1h2AEvDDCBIFbxI8rgSoip/ZDYgV1FDDcMTFQ1EcCIXUaJyU4eM4LcunXWOk1FgjoI5Eo7wk6zy99goKAwmBCeUWEr3MP4kS9WxRp6RtBL70vGSvq+81oMS54PXGQvIHOZGWGBBE0QuXMwCXNwhBqc/P47FSmEWAEoe9Yj2eUlMsk9Mn8ABDbBCaW2KhaRiDs8/JmqdgmRBUsr3Vg0nUworMgbEurwGH1wnVkhl8uGKMYjIpoUOJRz3lxxCFMCdyC5oLglGXnRCKlsypPZzgfc3lT+1S3Y5EXrgdT+4CJfI+sXAx+jzUD5mt2zKIUewTaUV3NabvTjO6ldb5jYDp+jROMZj8S7UUNma3Tc3C6C4rMbFzFcZkbsKYFofQp9kSDOtQgqHti9E/swCDO5ShT2YhemUWoX+71ejc4TH0bl2Mh1oUok/blWjdYhm6dl2Gbu3mYUCbFejV5gl0bzUHPVrnoXf7uejRdh46NJ+F1s2z0brVNHRpOxttWsxA6+a56Jw5Az0yc9CjWTa6NpuNbq0X4cHM+ejSfDbaN5qMTs0moGPTcWjX8GF0bJqNri3moE3GWHRqNAUtE8ahS5NpaJs6Fm1TR6Jbk4fRMjwYLZP6IjN5NJomjkKTlKFolj4KrRpmoWnqODTPGIzmKQ+hefJgNEsZhIYJPdAo8UE0SRnM+zZO6Yu05B5IT+iOZim90Ty9N1ITuiAh1A7JkXZID7VDY70rmgSbISSmIdXqiSaRYYjozZERaY7UQBtkBDORFmrOmfpBfwY0OQ3JkTYIWY3hU5IQDjZA0J/O6SzEEkkZ96oc5CX9J/piSsQ19QQmhjMoV04jIbaEIMeCEaEbgWpQNeCXPZDja8OkYM/42ojoBnw0NXJZcMaG2TBuqgroPBSj5JPioWhxiBEfgG7ICIsGQvEqAh6R471IS2SKGgIlNcBCRHq0jrYRl5RTcEVThsiDRtMq3Q8n5QuqKkzTC8kbA4tYJrwCgrIJR+0HODE8KeSCPyjA4Y4BAROFJrhEChz1c2AsORuoA9gaEwE3aUI0raP1AwcN4SReMoC/8ebP8PobP0WXrt1Z6yatyd7vVp3o7vpvH7j+ZWCKvoxrtLSKgVjH/VDN+5BgtkTBNKAg+yKWTP4S5QuABVl/QVkWUJkHFEwFCrOBldOvYnn2ZRTOBpbmXkQFlcaeBC5jVDzrCyyZAhTPpn3/isLJF1E4E1gxHcjPohLaQP6Uq3yekjygMI+2fYGiGUApVbWdBhRNAQqngs8zfyKwnIj+s4CKbKBi8jXJBgqyLmFJ1j+QP/tTFOR9ieXZF0HnpPWl2Vf42hUzgA2PAkV07Wxc2/8yVswCnph2BcvmfoqinE9QOvsLFM28hPyZwMoZwIoZl6LnzP07SmcByyZfRMHUK1idBxTnAgU5V3lZkgNUzriKNbM/x9pHv8TCKZ9g5cwrKJp7GYVzrmBJ1iUUTPscBblfYnnOlyh6BFiacxnLZ1zlNlo540sUZlN7RKWESkHRM2RfQv70iyibTdeKSn42kD/tclSmX0TR9Essy2d/iaW5X2Lh1H8gP/sKinIvY9XMyyjPu4rVM4GF9N7m0DMB+blAyexLWJnzGZZSBeGZn2PlzM+QP/MiltM9zKRnvRx9FznRNls9A1g+7Qssm3URi+d8zrI070ssy/oHyqgtpn3ORT/zp1H5KmDxZKAoB1g7h975J3hs/DvIGfoqcoddwJR+pzCpz0nMHPEaxvV8EUM7HkafjoXITFsCXUsBaaiamQC3eh/zrsua+/q0zZ6+2VM0O7aJ/pPHjsCLtCjSlgiUSFsi79xd8Pn2waemNv1WgImmDDTFUo17ETSaY+m0iyiYeRXLcoAleZfxWPbn3DGemPwFVuYBK3PpY72K4mmXUJp7Bcun/QMl4y9jDX3Q2Z9jSdafUEwgMB4omX4VFbOBRVmfcadcNQv8n0CjKOsyiqcDJdlAae5VrMoBH1dAH/U0MBgUzL6MJbl/405EoLFi+pcMCARihTOuoHT2VeTnfoqirKt8HjqOOgRtK55zFQsm/w3Lci6iIPtPKMj6AiW5X2DtvE+wfOp7KJr6OdbkAKVTgNKHgZLJ/0DBxL+hjO6HwHfipyieehmlBLj0f/IVrJx8icGJlnSt4hxgxRRg4UTgiYmXGWQL8q4gP+cLFM+4ikICslygdPIlbJ4LFEy6guKpwJo8At8rKJh0CeXTCUi/QNH0iwx6RdlfgKQk9yKWT/4bd/ri7MsgiQIRAdJFLkdOJclJymdF2zF/MlBGYJ8LLJt+BQsmfYll0+mdXcaSSZ9yUc7yGVdQMuVLlEy5hLV0b1OAgllRwCMQp3dGALoi7yIvCQhXUztNAypygeIpQNFkYHV2dABZRe+QBousyyic8g+UzAVK59FA8DdUTPsUxVM+Q0FW9L4I0EvzgCVT/4qVOX9H0ewrKJodHcRK5gCWGWF+clFK4mkhMU4QHxh1AtuuRBqQDVBkiyQhACJQomkeCYES/SeAio1z3AWmf7Nd7VsDJiJJo8qyLncc/HpjNE7qxVObDH9HdGoyCu2bDUN6Yi+0bDISzdKGolXicLTwD0KbpJFonT4GbRr1R2ajMWiUMgTtW4zjqVb7hiPRufl4NE6cgI6txvP2zIxxaN94Cjo1m4YOTaaiXaMpaN94Gjo0noFOTbLxYMsZ6Nl6FrpkzkC75llo32IyuraZgp6tF6Nb5gK0bDwTHds+is7tH0eb5nPwYJsl6NV6KR5qOh9D2ufjoZZL0K/NMvRstQjdM5eib6dy9O+8CYPbbUDfFhvRq/FqjOu+AcPbF2JY61KMaLUWI1qux+D2RzCm50GM6rkdA7tsxJDuVZg46DByRr6E6YPeQO7A1zFn1FtYNPV9rMj9GPm5/43iWX9F8ey/Y8WMT6Kdi8qE54I1COqgpVl/R3nOP1CRcxXLsq+y1reSQGL6VawkLSrnKmt3ywhMc6+gMOcyL2kbAf/q2QBpTzwIXAMmG6Bs7er68uHLWJsNrCGwmAosn/QZimdcYYAmjbRsxkWUz/wSFdlXUH5N81w1FSiZeBXrWeMBlk/4FCVZn6B02t+wKvcSVk77AvlZf0dp7mdYMfEzrJlBx36KyuzPWVZP/QwVOXTc5yicDhRN+hJlOVewJBtYPP0qVmVfRPHkL7hNVk4AynMBWtJAVEFa57RLqJwDLBv/GZZM+juWT/8EukJ2OydcTpNtTuSYUYn2+FriLi1tkLJHbAIq0pIoJYlCCUhDsoGJ9qFt9r53l/8ezelbAya3WBe6lgZBr484uRYMytx3BJnilVy27hhiPJQR61GYEI7qqpFXRjZN1BFdXKxAUKhktgJFpohjGW5R4dGPVXG3lwMOFdHPpaFYzVZETjzlstuiCVGUORFWlNxsDKZrCC6L0x1Uyc12EZloWL0qVEFjJkz6L3s9nNYQ53GxnYOSiAViS1REiIIGl8Ng7xnxNwlSBPXq6xxNTdnu9bxOeIiQTqgLp6M+hyhQTh6dn6q7uJ0uSKKLAxo9LjdcHje8Xi9zkVP1Ea/bgFcM8L3Xq3s/RJcAIdbPzJkUsOryxiDOLbIh2EW5fMRpLnpgiM5oXJcjHsS7JLo9kDzE9UTPJ/PS6xAguWUIThGS2wHZ7Ybi8fDzKoIIenY+1ivB46X8wahBm9qPKthwaSqPAtVL8T1pPPDQu6HQDdlvQgtGIKoRfsc+KwPhUCOYRgqCVjqCahqSjMaIGC0QsdoiHMxk8VvNEfS3jIovE4nh9kgMd0Qg0gHpgWZoHGmF5FBXJAW7oFGoDRoE2yAhuTfS0hsjEm6MlKR2aJTWE+mJndE0tRuSfZlo3ag3WqYOQUTpB0VxcYkoU0/iggzkrSSOctKQCFRIGyINydaYaJ1tEKf1RKJH/wmsSGiKZx97F5T+PaBE7XznwHQLVY5eWvTFkbpMxGvEqWxwoioFQVLUMYskwlODkLZVkxAQ2UJ2AfpNHxItKS7FLYscdkCeJ5cgstD5OExAUHhf2v9WQl62msQlCSCh61QXez15u76JVD/nzX5T3A+dn56NmAncIlXyjXrb7uS69nPb+9LxLukrIbsMxQ7RYODwiKAE7Xg3hX9ofB3avyaJd4lMnUuUvWSwZqO1HL1nOo997Ff3r0BQ9KgHlKrrEP1MDcKeRfIu3kLs57O/C/pPAHMXVP59YPJtAve3Bkz0EdhCo8yN4pWjJbFvtbxx/5v9v/H89n/6CKkz2+emTkAdkM5B9i8Cp5udr/o6+9g7WZIbm+Tr+37lkrcB4/+yrAm0aVt1gKDOTc9nn98Gm391SXXrKETCBgoCCLoetSNdo6bz2oDj9ETPQbQlNsDYx9L9UltFgT/6bqLbVN7XJUSPpXu4ldQ0aEUHoK8PPtF3//Xk3m+z49w913cLeN8aMHFJICoLJAvROmY8zaKplghZpXI+0c58qyXxUdco1XiabUCytTUeLasBBV2D9rE/TtrPPuZWy1vd152ut0HiX10SaVmNck1zsUGCpr223Mk16bgb97OPpzahbQQytI44tmh/qrBrA+aNx1b/b98TrbPPGV0XBSS7DQmc6Hz0n/atflz1893sd/VB5Ga/7fdtb6P/trZk25Xugsl3CybfZvt+a8BE4GMLgdE/y22A5zbAZINM9Q/Q/k3qO5PvM9l+9DelJNhBhPSb9v1Gcpv7u1lnqr7O7rC3WsqyzMGSt1qSBlP9WPpvS/X1t/pNsUAk9nZqCxvYKSWFErJdgpeXVP+NCl1S9V4bSOzjbr2MDjwEZiQ2CNGSzk3LGwGq+jp7262WNQ5a1wai6u/3+rPdwgTxbXaiu+f69gHvGwMTvRR7ZLJfkP1R0NL+WKqvu+lvVeH8JgKRm4ndkWhpg5R9ftKY6Nr2tQikSGwNhM93kyTP6vdhH3urZfV9v4vflC5Sk1S/pt3OdttX33ar31S+Pco2GqWqsffjPDlK1+BIbYHbjerskZGeotKpDakt7f1vubxWONR+dwQk0Qjy6PFEL2K/F/pt/6fr0jVuCzy3GRhufG/2fVZvq7u/v30A+a7a9FsEpq8I5OyI8K8vb9Mo18DE/nj/aXm9sslXbIK2ik4fJedDkZdP+uo6/86Pk+6lJrndC6wJlGgbPcutzlHTNvsYmdg6b8LEaLcRAQSBA7e7qrOTgPan7TUdZx8f1Zb/eVCxAYMGE/teeOotiXwt+7rfFJiu38ctBiD72neXX/WP73NbfCvA9O96QLvj29ez//NHKRmc8EmskCrlUV2j/71Zp7KP/78sazqPfR81Lf8v1/ou9iVwq+m81IbkHqd9or8pRIDSOGwGiVsfz+1/raoxARuBTPXzERBR4i69k2gwbhRkaR8bDPkctwCVO91W0/Pd3Xbr9/d9bJs7Bib6OGp6ABr5qss/aTx0fA1CgXA1CY289gdqj8L2fxqNNaJo1QMsBE7UCYjCljqW3Rns/W+2rOneojaY6BSouq3HtvHQFKmmtvkuttnPQOeuCTTta1fXyK6vI41Ijwq1qZ3cSu3l81P5IornoYq0UcCyj7vpUlO51DprQNfKHdH5qP09XhmBYCK/XzongRRto/dGoGUD4k3PextAvfGYGweHG7ff/f/v/1b/lTa/Y2D6V05e/ZgbP5j/83/FupZ0Gq00q1kBtikpko6wFkKnZv2RN2seCgtKkT+vHKN65KBtZl8Ilp9LfBOtLgEfUX4Ymg5DURHwBUGJqwRkTMWh+GApQS53TQZ1Mv4S+OhGgJNbDaLqME24CGDNAEwrxJ1RkNzRmm2azAGTVNDAqcVBC6vR5Ga65jXQtEGSjLxEtKf6VQg6VSH2QPPR/m4uw8TPp/qZgZPKVpHdRxA15kfn56A0C9nHkc4KedAMkctzG5IEn+aHSEGQepgHC12lBFuZz02VUCzLYppfYg81/D6uAExxR3Qdel7LSsDYkdkYP2YGTDMCJzkzdAGiRm1isQFdsyjQUmU2BZ8aAdOaKAacihdeU2SCOvbuKQpSmzZC3tQc9O7WEz6T6EgMCB6TOdyp3LulaAipAVhSgKlRDDPIpb+J5kbXiG43wtVhqAYhxVpRVWEKbaB7IQM63Re1CX1TVP6cBkWydRFIRr/B2wOrkwJKDRWWojDBXdAMMzOEpPsgWiYstQ5XLnYQI2eQuMFELhrqFnQousB8VpqnLgfbEv8TtW2slcb3FiAKF8kBb1hDjGXwt0I8Upbs5CRm2UOUNibiTU+0dJTkhKF6+Hlcfopap+ITAQRVD0zFA6+ZwCJJEtP4EMDTQGVPl6kd7P92oGj1vvhD+P29AabbNRaN7BSPxCOuz89xSwQclB0/tO8oPFv5NtYV7MeW8r04vOYFHFj9IuZMXcDTOh8dS4T11LkJEFQFgVCQ6VOsIJUZF9lzZBJhvUtEQjiR96ESStRx2a3tiOe6eZJJ2e4iqGPGxbv5Y/VRyoJIVW39SDYbIVFvBMq8J1I1ilQnoKBUB/pwKL2Blj4rBA9l2ismCwWnWr7Qda2QNBanS2AuIDJCU/UOw6Tk0gTmNyLgpOx70wgwz5SipzE3OkWcCx7Gnh9BAAAgAElEQVQv3zeVbadOTgU+g1K0zJFDUuDQNGihJM6+p6jokBUGcYNTKSsCmfGD87Bz1YvYUfwM+ncazOXKiQVA103Wfiiqn7x2FJdk+KNFA4iWRZHN69S1RP8S1JKhOf0Y2HMk1q7ci+UL1jB9i8stwhdKYA52UdI5up7AldqEQUlSo2BD78mKINHfEKpDQKIZ4aIIPirWScVVPRqXVDeMMGvFpIXR1JABSVPZ+M7r5DvREkzW6HVyEsgUXyXB7/fDJ3qRILsQYyXCLzrR0HRCjr8fuuAA3bsRSmWOdafQCB6/n3nhDV1l+h7NG0FESUPDZj50buyHYBqIN1OYd4oKT1A5sPqmACXkgWAlMa20XF9Ch7YZaNU8EUEhACd5Y60kuFQ/DFVgTnSqgxgr6PD7qNKO91pJr6gGamui9I0RQBEwUUDy7frX9237vw2YvumDu7Uo2b3m0+GUnDwqE8gErTTsXP8UDhW8gtyxC9EsrS30+iG0SuyIpo0yWdOgFA0ioCPNRDKikcwxLhf8CWHEy05I/qg2oVpaNOZK8vLSCvlQN64efKEgs0FSegOPjqYEj+zlly5QEU1v9AOgNI/K/K14suIwVJcIn2kxXxQVLCBQJI4iotxwOrzwWyEu5RRQw9C9VBk4DNFL5GkWk9cR6EiSEtXuNB26L8oBRdoBdT7yapHBmX6bFvEhhZiFM+RPZsZGUXcjkGwhzhHPtCaGx+Ty7VSGSgqYiFcoil1m4NYl0igEyLLIaTR9Ow/F/jUv4tlNp9CpURck6CH4tADcDhGhYCIDJg0UvkiIQVrQJMS6oxxbzMNEoKn6YYphmK4wBncbjT3rXsPyxzbD7dTgj/hQ11EHgiXBDAWYP4u0TjPgR6zThWACTfs0rhe3YfU2bF97CMGAyeWdouybOrxuCT4jxKKI0XLv1AnJE0jARBomefui08Tba0w0eFA5LQqpUMJBOMgL6HUgXY7Dkwtn4syqqXirfCTeXj0S766ZiHdXjcQvysfg1dXj8XbJWLy2dBjMevdDNxWoYYvBfNXgLvjFssH4YP0I/HF+b/xq6USUjngQRr17eHCp7/WxRmp64qDEx2L56A54Z8VE/FdRX5ZfLBmHFWM6QicW0lAyD2gERAzqVpDZSA1FZHJEGrgo4ZjaLQrG0ak5fW+07pv2v3/38T8YYBJMDbFOB0yfweWLeOqj+tC60YPYUfY8dhbt44+VeH2YpZGI6wzSDiQQUR11YtI8WOMiLiJ/IijimCp7uHgapYMqcBDRv0fw8ugdG+NiLSbO5eZ8K2LRNDQTqirD4YrlKq7UAanUkOCjkVrButInUVV2EH49EA0uNXxwqq7rHwdpTDSSUd4bAQ+zSSomLDMEAjmy6bAqLssIhULRXDaPCn8ohcnSZCMKRtTxDEvlKQVVevFqMfAIVNGE2DtVKCaBxf2QVAfCIR88cjR0wyLjtDsewaACK6Awkya1ragE2N5EbJhUmDM1ksyFPiXRBE0ryaFAozBNlaIjsQ+xcVTEIUpFKwQUeA2ZK9zoAR8PADRw+H1hdGzXHQcqz2HZ3DKoHkph8iCcYjFlsEd1w6tQaALRJUcDPen+ZcGE7gpgY+EubC86gnvcD0CM6PD6ZbiIvzxItisHKAdS9JA2G+VYssMVroMTT3O+8uTeqoNRpWd6F26KgL82/Sf200QxFkXTRuL1+V1xZH5v7F0wAM8tGIkT84fh2Rkt8d7KTvjD0q7YNaMPEgwPg4JHScC8IZ3xQWkvvFkyGpsm9kZRVgf8atUIvFc4CItHtUEo6GdGUE2SYfm9KB3RFu8X98MbRUNROaY9dmb3wVtlo/D7iqFY1q8Ja8XE6GkR06iscMoPgZQuebhuIn1XpBnZRT3pXdlC7+tWz/19Xf+DASbqADRt8VsBiJSIK+lIMDMwoOME7Co4jtI5FVxamkCGVHHi1olXXPCSDYcM44IPmscHv5qMhsmt0TijPVQxzDYNqg9H5zeCQZAmpeshGGIEYT0DupzAo1pSqBVaNOiGgJLOVLD8IcheHmWplLWo+GBIfmwpeRoH170EJTZKGSt5aRQzkJrUAPGxLohClN+HSlRRR5YDKgQ/gU1USyMaYN1vcDVi0oYC/iRoYjLinTqC4QAE0YWkxAbwuFX4gyaDIZUk9/slrpJCuWqmP8JTG+psqmQiEkxHwxbtEQqkISAHub6d6HYweFGuX7xHgiU04Mq2ZHMjOuGAEUI4kAJRs+DUZa51F85IQN24Oty+AStafDMgJqN1ww5o1LAlnPVlmO4I/FoST7uJppjsTL179cPu4iMof2IDfJ4wV04xtQhaNG3LU3F6p6RBul0iwsFELrapO0NIFBrjYPkx7Mo/isTk5oiNUSCKAS5IQYBHwaj+ANlTCPgN1kIsvw/zn1iAJxYthD8YuDZ1vr3GQAMUx71J0emhR6SpdZiZU1VPPQRddaBTpR3vA9DdKh6I82FUhxT8umwoLqwYDz0cgmClIF6U4ddF/LJiGt5fMxCZzYJwOcK4LyGMzqlOvFM+AudXj4Vfc8DlawrBTINheXGhYAh+UzQc7Vv7ue2dMW40zvDiP5cNwK83TUWy5oWoBnk6r4luUAoQaeJN0xMx89H5eOzxBVxggTQkAhvbxkR94fsKPjXd1/cGmAjVaxKivaUqtgp1SD2IzZU7ULV6D7YWPYVn176K/cvO4NDms9hUcQB71j2DFY8Ucna8329xiZ+QNx1PzCjAk2sP89RvY+lu7N18FHOnLEZQSGdDbJ36DpjBBPR6cCg2Fe/DpP5z0KvtUJQUrMfmymewf/MZbCo8jHEDc7hMEdmtyABcsrwMOyqewqH1L2DXshOoevxFvFD1Mp4sPYJ9a07g0MbnMTtnHoK+JLan0OiuBwJsKCbOc7chQJLdbHwl7Yw0QzKMk+2qrLgK29e/AL+ZcU11V9Gvx1iMHDgNkiCCnk/whrCh6CA2rzuAuDiySwXYGD1hyCxsW/0iqspOYtPqfdi97nnkP7oRzRp2h+pPQaxXYrAa1XcC9q16BgcqnsXhDcexteAp7K04ic0lB5ESbgjZELn2XowUB1/YhKlbCCipmPnwQuxd+zR2lu/H3rJn8Py683iq6DT2Fj+HHWsOYMTQ8ZDdJh7qPAiHK05i8ZRV6NdmLLauehZ7N57GjjUvYs/6Y5g0ZDY8cQoCegSW6sfCR5Zh9/qnsaXwCJ5dfx5bFh7A4cIXcbrqDbYd7q54FiseK4MiBNlORcnIlNxLxQbWVK7FydOnuIhl5fp1DEy0raZOQNs8psoR64oU/b4IAJ00tfYFQSwSajAZoVCA6/xRxePUlMY4v3QQ3ivqjw6NMiAYbnhjTAQjBqaMTMUvlw7G9ok94PQ+gBRFgBlIhxgbh12z+uDjNX0xr38a6qgpcJvpeKR3E3y4bQyenNgHtWURhizArytwhQLYNbkv3lk/BDl9WkJkrVWLVrwJp3CB0IriZTh14TWcPHUGhUUlPCATKBEg0TSW2uSuxvR/dO3e7mOpvj0QCLAniQyfEV8qFi8owsK5RdhYcAC7S17AU6tew/zpFchfUIWKBU9iTM9JCBp+piGRYlWsW7obW0oOYXvFIQajhTMLsaFgJ3aVP4O1i3cibKQyZzl57/o8OAK7y45i+4qnsW/Nc6gs2YY52UuwbdXT2FX8PHZWPIc2mT1Qn7l7IpjycA6WzarAwqwCPFP5Kl6s+k8snVGKgkfXYPns9VieV4oxoyfBZyWwDUkUDKa4JcoTmYzjZhIs1YeQmYyQLx1+XyJrho76TpQsXoc9606iS5v+8GsG0oKpOLDpLDYWP4XeXftwjbhGGR2xs+QCVi3bCdMgLVDHtDGPYHvxc3iy9BgWz6zEzCmPY0P+XuxbcwobSp9CKKEZJDMEV7yEzk27o3jeahQ/Vo7FM0tR/Mg2HK58BXtWv4gWaW3giKkLrx71gJHGRgb2+TNWYP+GY9hSug8jeozB1GFzcaT8NA7ln8T6x/cgf/4adO38ECwljKE9x2BnwUlszT+Kg5tOYdWiKsydnI8dZS9ib8VpVK04irYtusITL0CVDeRNn4tFc0tRunAb9lUcw9HNZ1E0fS2WTl6F0rnrsWLuaowbmo2AL409dJIedRxQZ9y1ZzfOvnSOhX5TJyVHQvVv6Wa/qRAoaVhURYam2MThLpJR3QxBNvyI8XpYexL0ENt0Cke2wodLO6N8ZCs4rHQuikD19WiKvnHWQPy6pCtyerWHJqWjsfofCBtOuELJGNKtFT5c2QeHJzSGSh5MsR72Zafj7RU9MLFzJuL9jZAo1kdjv4BYqwGmPdgBby7ujI1TurAZgbyUqiMGgpkAQQ/gxSN7cez0OZw+c47pgWn6RiEY1Bb0m0Dph6g1fW80JvqAahLiCCL3Pnm/uNqGEIDfSEffTqOwu/w5LMjOBxV4jI8zEBAyEJZT+QWJpg9Dh0zEnrUnsKn4ENJ9rRCW0uH3JKNRoA2qCg7i0LrTGNhjGJeSMnxh9O46FLtLjuJg0XHkDH4Mfm8iTwUThYbYvHg/9q09jmGDp/Lcnj5gU46wEV4XfVhfthdb1h+Fy02VX/1cVZemeORtind4GYQ6ZPbAhBE5eGz6ckwf+Qhyx8zHjPGPYMKQmciZsABjh01Fp9adEJIDWDBtOXYUPYdxQ3IRMQIY+dBY7Fr9EnaWncPE4Vnw6z489OBY7C49jRkTHmN3fOMGzXFky2k8WfgMOjXoCiXOAdXng+YIYtXsdThU/jTmTZ/Hhloy5pPNTJIstm9ZZhABPRGrl2/CjjWHENKTEAyGIbiDoDp4FGahOhXs23QU21Y/hYjcEAEpAaLmx+iB07Gz7FnMnrgEVEKJDMhkbO/c4UHsqXgFu9ccR9aoXBgeHSE5BJ8zGRuX7ceB1acxZUIeAtemZzzdNdIhxSZjU/EBbCs7AMOfzBxYRiCR6VVIC+LUGXccgqFoFRyiv5mSNZXrxFHZ70lTJjMlTjQDoWbPHHn2KHuAPKkctvG/9kICPDKIC/ECtLCBoGXiflcAyQkmPlg3Gu+UT0ESVai2LFDpKCpTT1VfDs0ejzcLeqFbCz86pqbjXEEe3ls5AplJFjq1aoqfFmXjcE5/WCJVrlbxzJSH8IviaejYIh2tk5Pxm+LRbDTPTEpCu6YpeLciD8/M6s5cWuQUCcpu1JeiIQRZ44bjhROn8dL5C5g8JYu9v9SPqG4eARSB8F1g+g41JpeoMEcQGzk1CWYwatDr1XkYtq46iiVzVoJcsIop8zyfSMzIQyR7VKxeuhm7Ss6xdyghEOEPW5ANJmcbOzAL2wtPo2zxeh6RFMNE17aDsbvkOaxfuBm6YLCaT3E8FHOTN34JtpeexOM5xdGYHEq+lRIgWCIklwtHKl7BvpJT0N1k1zDhEt1sG/PIrmhFYK+CqaNzsHPNYexafRQ7Vz2P/WvPYmfZc6ApyjNbz2BzyWFMHJmLoB5Cj1b9cLjiFaxcsBaay4EluSXYVfQa9ha/jvKFVVAccXh8ZgH2lhzE8F6jmGBuZlYxdlSeRtbouVw0kozkDkWDZaaiZWpXbFt1BGtWbENASYbkteA3E0DPTVNTleKM3F5U5e/BwcpTaJCczHXgAr4U1IuL5XZPCTfGk6XPYdOyw7DcES6RRXX8WqV3xp7Vz6Fs0UauTKOGqHPL6NW1L/aXHEPxoxugyxGQsZ2qo9A0OHfMozi4+iTmTFsKVUyA5rfgEPwMCjRl31P2MnasOAhVcnKJKpfo5HOKoshaJVWpITI/6oBE8kYslGT/I6EQDVreScckzcIOmKXfZJ+jaR2dl0BdcMfApTfg2LbKfon4Y/5DKJnUBbpL4eKiZMD+kT8DSUIszsxuhV+tm46OIQUTewTwp8qH8GFhZ0zr3wTtUg28WTgBzy0cgTjFwfbFwwsG4Ver+qFTshfT+yTi52WD8NuKkcjqHkTrdC8+Lh6AE4/3hFMJ8LtINgS+JlHEUPAvTddoEKRAVgopobATt4c8kj7WFinM5mZa4vd53fdGY7pdI9HIqxgUq6FFXcLMTKihX7cxOLDhHBbPzodPs9gg7NZUBifywpE7fl3+LuwpO43WGR0gSQK7uEVLhWHpSA83w67yM9i55gi7yqlSR9/uY/D0upexZEoRe6YEU4FXdTIz5JiHsrBvzRn2MHkcTq4ebGiJcBkuWJqMfeVnUbXiKYSMEMc/UQAlswzoFjQzCJ8vkcHAJ4fZnR5SkkASkBvAcIXhF5IQUBtydRMq5U33t6PsOKrK9iOkWKgqPog1TxzC5hXPYXPRAfhFHUVPrMee8hNIthpA8+oMOrsLjuGFygvYufwwDq05iW0lh7B12SE8X3kBB0tewMYVO+BXEtkYT6EHus/ikucc9+TVeCpLmlqLjAaguCOaclLMV6yrPnTJwMGNR3Fw3fNo3aAVDC0erjgdC2esws7S5zB74jLoajhaRkvwYVCPcdhb9AJKHtsITQ7Co3qgBaNsCoO7jmVgemJOIWRvAFRpRzSioRGGbGJ70UkcqTjG26jSi2JEQN6peIcH4XACG8DJAxedsgUZiEhzIg8VgZLNSHm774u228BEv9lxIEc7NAXVBn0KZH8ya2kvzB+Id4qH4cEmFvyGyYGpmhIL3ZPINqn98wbht0VT0SI9DWYkCVumdsPG+W3ZLtmzRWv8YcNQ7MtpBo+SAcVqji1ZLfDRiuHo3qQdnElhPDnrIRzM7QsxORGtGrfCH5cMw+HZXeE1aLC14Kl7L7RAIixiEKWYOH+Q+wUNhHasH01fKZiX3h0B1J08//dpnx8MMFF8CTUwjQz0IRKoiB4VD3UciV1lJ6JAEeuF2xMPcleTek1eFtVtYFflcziy4SwStTRYlsHaDbnwKdK3eWobbC9+FhsLD8NnBiFrXvTvMRo7C49jw6L90DwBeDUvvJIT5Nod1GUM77/8kdX837RUOOMVPqehS9hSfJS1H1Mx+INVghoETeG6ci4ahc1oSSIyTFJn4lgbQ+doawpg5KmDYPEHSFMKSrXZWHwEeyqeR5NwK+xc8yIW5BRh+dwK7Fp7DJmpHXjbk2vOwBWjIDEURPGCNThcehY7FjyLlVmVWDFjDUoeq2T7zJJJpVg+rRQLcpayoTkUCUMxVaahdUsuZiGluCo2gK8+hQQzWr2W2p2iywXdy0GSo3vMwO6is9hbfhaL5lRgXeFe7Cp7AQfXnUWThA4MeILqhSHrGNZzOPYWHUPRvPUw5QBIe5R9Lo7R6t1mCPaXncKi2YUcdU9xQExcJ7s4MJXOv235YYQCGXALJmLccjTqPhANkKWwESoeSrE7pC2RdkQaBIEStS+tsz1Vt+t4NvsCHafKVFQzOv2jb8/tdbCnNCFg4q2NOThfNh7s2QxQtLvIsUYhKwiXFsKG8T3x0fKumNqnJWS1MRoYDqRR9RaHiAntE/F+fn/smN6eNSaXFId92d3xszX9kNe2IT9jUHcjTfVy+a3J7TPwq/IB2DC1Exxy1OMWsRTEugS2HxEwRZ85yBo6x7Qx934UkEh7IoC63bN/37b/gICJcqp8bAcibm+O41H9GNJjPHaWHMOyOeVIsKh2mg6n28XR3JqmgOw+ZUu3Y1/ZixjSbRwH/lGQIsXBeF0yRvSciMNrT2Hlo1WsuociGnp3GIRt+cdRkLcNchy57zX4AhZ3spG9J2BHyVEsyivm/5R+EA6lcsAlfah7K0+zDYq8h1SwkgIRKQ6IgkKpwCdpZBTIScGEpAGSe5/ikOI8Hki6yEU5RdWIBh2qXrhdElYuWI89hc9jzsilHIowvPdoDOg+FAc2nEf2kAXYXfQ8Hpu+CsmJacx5Pn38POxfdwHZo5awMdxjeTigks5LEdphK4UN5DTVIXoT0i4Sk4KsbYqiye78dUsO4VDly0gJhLnTM5BaMijy3acnI3f4Uhxd/1/YuPg4NhefQNXqrXgidwkaR1qw95S8dy4phmNu+nXph92Fx7E8r5xDLQh8PIoDQX8II3pPxt7VZ7BiXjkM0eTKwhRVHgjrkN06nt78Kg6UnYAiOqBqHphBnUMrqN3JXU6gQ8BBS1uGDB0OEgIrWnenXil6VwxOVDFF1qJTe1VnoAwZYaQocRjWIBm/XDEYJx8fAL/XZG50xSMhpBiID7o57iy3azI+WNMOu6eTlhRBPUlFXTkR6SENO3O74OO14zCzRwacUjTEYXrXDLy+ejSOTukO0yeAirIqsgif4cWh7B54u2wssrqlRAvG+n2smTu8MkemkwbVsWNH9B8w6LqxmwIt6Z1SyAzZme70+b9P4PSDASaKnGYjpmxGAxMNnVMtBnQZzbaOhXml0Dwmh+lTA9OoSdM2wa1g5MDpDExbiw4zQT6VpBadOtIDLbBxxT48s+4sxg19BLpqQBBi0KfTQNYE8mdtZm+dIHk5oI3sVUMfHIetJc9i8exyjqgWBAEeD9kkTFCe2q6KE9hW9Ay6NO8KisVRPBY0Kcy2AA6mpE5kGhwIx/lelMOnBSAbPq4yS8GNmkqdiaoURyOoJ42cg6dKz2JX/vM8VWyR2gwNQul8j1VLn8KR8pcwYcRcLnJg+mW0aNIJu9aexJOVR5GR3gRKmFJQgnC4FVhGMhJCGdFATtPPRSMotcLljmWtQNGDCJmJqCp6FtuLX0CrJk34I3e7FC67zQCrmdi3/gA2L9+OgCOIsBJEUKOS4QrCvggHKlJwJQGyLIbQq9NoHF53HsWPV8GUEkCxRqSBkPdwYLfxqFr5PJbMKud8xIA/gXPxDJ8CwWGgYvEe7F51DJkNmiFsBdnYrwoKAloAESvCcVqUS0ZaA3XAJUuX49xLL7PQb1pHWsUddTrDjCY1E9OCokeDabXoIEGlyCPKA1g2rCveXzUIe6a3Z43To0uQ/YnRYp5SLLvoE0ICLpSPwjsVVP3HBzOcgZ/4TXRIVvHLimxcKJmCZMkJ3WjIMWe6dS9eK52EvxbloXXTFI7JMtwqMhsl4Tf5WfhZ8SQ0DzjgpHABkeLdFFihRHjc8Zi3YBHOnTuHM2dfQtWWbYh3uPgeaCCxgy3v6Nm/Q/vwv3L9HwwwEQsiqaScDEtZ67rCqRsDHhyDvetOYNnjZZDcCkwa9WQyjJs83aNIWUNLwpaiA9hcdITDCxbmrcDMhx/B1tKnWLtZs3Ab3K4gRzVrqoD+PYZj38YTKFm4AZ44ShDV2OtEXqmB3UdiR/nzWDqvMqoRqQoXWCQDckDXMWXoAuxdcwy7K/Zg1tj5mDQ0F7OnLcL8vEIYYiLbWChQlIy3pDkYJkXouqN5a5LAGg8Fj1K1WjIOUy5gZqNueHLFM9hVfBRbC5+FXzQR0YLYsPII9q89ib2rjqF7p+H8IUqGhwMU541fgr2FT+H5jeexcOIaTOg1A4+OWYHKBTuxddV+DO47GlRAwKtQqowFn8/HRmUjEOFAxw2FB7B3/SkkBH2sRVC+HXVyyhH0GRFsL9+H/RVPYXlePmZPmYtpoxZh4vD5GNF/Jtpn9ufgVarxRqEP3br1w5bCQ1g8uwxeZzRhmjRGXQtiUM8J2F15CotmrYLX6YKmUOUVIqjzIOxvhJxxCzjEYPfq48h7eCXG9MvD3KlLsTBvGQy3jwcEnnpdS1w9fORpHDt+EsdPnMKRp57hd0fbb9c56NlIYyKhfQmYaKCi9YKmwRWmANSfYPGoTvhF2XCUjWkGSo+h+KdYKhMvSPApPjip0KZLweJRXfBfZcPwzsI+WDuuNTZOGorfFA/ER2sHYvbQjnATA0ZQg9N9P2vbjwxrig8Kh+LXS0ejJG8QisY/iD+UTsWrK/pgyejWkB11ofgiEAUPvzNRM2HpEtZWbcOxYy9wHBPFMtkOAHqGYCjCg8odA/P3CJx+MMBEUzdKi9A1ouEgoIgyI/brOQyVBbuwaH4Rf0iUca2qlDdmgW0mpsyBaZScuvTRNdhR8Qw2FWzHnv/Nv3qy/BksnFECNkQHk3gqZRga2jXrhl0bnuZAP4qEpmx7t2pwOsCAnoOxfc1hzJ9dxKkfdA0rHIyWopLciBitsHzuWuyr3If9a49iS+le7Nl4FJsr9iKgpcDrUlmjoGx/8pbJipcN6JISZrc92alMSktRA5yiwflyahi7K5/F3k1HUDB/PVSPCkM08MTsVXhy4yFsLj/E0dZcbopqqKkBBDwRTOkzGfuKnsa+wvM4sPp57C97DjuLD+OJ3BVolNGKQcbBCb8BBnkqXyX7o6BftmIrdla+gHAoGgxKQX+GQRWXRXjiQ3hi+ho8WfAiOwLI7lVVchp71r2CvesvYHflCWwp24cUfyq8Hhe69uzM9758fgmHS0QLDkRtIAN7j8Lm8gMcMOkzZI7sJk2L7FCSEESj5JZ4NHsxdq4+jR2rT2DHumPcnmsLN8EU/WwAdwiu61O2WbPn4uULr7LQbwIWktsBE223bUw2MNF0jn4zo4RLQ2NNwbq8sfhZyUws69cWYUFEQDD5XVACOGmbdQSTcwubG/F4tGcC3l05Eu9XjsJvCwbgveJemN9bgF/7CZymyZHcppoEy2iMJFHF/OFpeGNBc7yxfhT+a81o/HJlB8wck4YGxH5BCcCiAr9Ph0DsC7IGVXCg44O9GZgojokAmWYKNIWl+6ZpHPUVWkf/f0jygwEmzn1SraiNiXLMAhrniZGXJ8Foxp4ul8uFUCgCRQnDK/nYNqT5FC5TRN4eisXxe9MxoOMgdEjviIjcCIo7BDJgx0te3p/sV5acCEuKIGBaMOkDEgNw6xpPP2hUDIipfBwn0EY09jIRz7ViuaCIKQhrTRCRE9CzxWB0b9EfiWYzjv/xuJ1sA7P8Oue9kf2D44coAVeJgDLbdU1kkCOKD7JJUbIw0YRYcjJMxeK0EUrhoJw9TUlgzVAzUqE64xGO+OD1mYgVfVCNSDTpVRKRktAMbdt1QNMmLUEJr0TfQmkvbkpENvYDCswAACAASURBVHQGQrItkWZgJkTY85YWaQFv/TB8fg1OosmNi0EkFOZs/l7dRrB3sGTeOmQmtUNmg7bIzGiJB9v2wuDOw7GjdD9rUxP6Z8EnJUL631Qd02vw1McR74UVpKBFJUqvKxoI6MlQXD54PHXg96exzcijOXmA0SWNGQWo3lxmgw7o2PpBZCQ15Zy7gOFnhgjR+nqna9ioCUhYC7oWH3cnndLmM6d9CZRkClEhbcuyEOtXERNXF1YgDmHvvdBcteGgZG7NhEP3sNtf0zQ4qUqMJcJzTy2Ew2n4USiIXi1T0DQ5xBQukpEEj8tkE4E3XkecV0W8pfD3kOEJQAo5kRn0Y2iTZnCb9ZGoR1CnTm0Iho8HR00VESebMAJhritIIEXJ1xRUeubcWR7MyKHCeYeiwEGjlNh8J8//fdrnewNM5JEilZO4qcltS/YYytmyyAYj0YdiMCc2xW1Q4UhdlGGSO9Th5ikegURNQjaPmoTzpGqoVPJPxHc3UAG7VAk1CcdUEX3tNa4g+16rX9cuREAUILbY68heRtoc/SdPE3ERcRUTwQ3Lp/HUkKaHdD773LQvnYe8iTR6knAbf+05o5Vtqt/HzX6zdidKMIQAFs0qQdWqp9AosRMkp485rSjOi1zTkjcBKxdtReWqw+j/0MPRaZnxFd/3je1IAw4JxTvVJHZyrr20n9G+V58QTcAlKhGihKF0njhJhFNXGXAphIS+KwqipHg0KkrKXjdarxGnk59LR0lCMtuLVFGAT5OhOcKwlHpswyI7Fgt/a3bBDS8b46mQg1P0cm1DYrAgbivywjpEEw4xaoQXvG6o3hbMf+VWHbDMWKhaHFy6l2lN3Io/mkwtBxjMKceT1hEXkyJ7OFJcEOMhSg7ohgBBdHIy+bzH5uClYz/F+g2rQQOx123BkILQqWSaKsJp/fDy5b43wET2FFa7zShNAzEu0jSGapLFCl5Wp+t7nBD9GowIBeDJ8BJ1hyZD8FNogN3B/rXlP1d1sT+86JIM4DWJJomoSarfH52HjJjVxa1Rwc6oUEchKhH6T+tJiJ7FpYuo5xNRh1zJqgrT0FBfiENtIYZjkCjrnsSpRZf0mzQuErsj0zLaub+qahOlT/n680bb4yuwD4YsOOJjOcF02tiZPNUlu17X9r2QmpyGgKGgY8u2yH14Fp6sOITyJZvRNLElvPFu6MrN2+7rbeLmqstEf3Iz8Yqer7U/HVv9fViazsBAoEADl2WYzBdFCd9JXuN6uSiyU1JaR5QlQo9WplElJvZzGz+GLBNflgupKQ2QkiGiQeNERFJNpKYHr4kfqekkvqhkmEjNMNGksYRGDYXr0jBDRHq6iPQ0BQ0yDGQki2jfVkJqsgupjR5Aw4wgmqakIrOZjJREP9IyJGRkSGicLqNxmsTSMFXkdbStUXoADdL9SE81kJFmonHDAJo0TcDGjaU4e/Yozpw+iAd7piI93cvePFdcfZiqxJoflU3/PmlDd3Iv3xtgIk2IPAkETjTyk62IOqjTEJHQujG6bV6AgQcK0O9APnruWIghBwoweH8Bum9dgH4Hi9D/YME3kr77V6Imud35B+xdiZrkZsfT81yXvSsx8JoM2pcPEjpf/33R++q9bxlGHCxC550L0ftQPkbtLsDw3fnoe7gAo54tw+ADhddl0MGvflMbkfTdV02uPSu1pS19969AVKq1Q7Vjeu5agr57lqP/nnyMPLIWk17YiezTBzDp+DZMObMV456rwLQTW5B3dj8mHtmCyUd34MENSzFwTwGGHSm+fh37eje2R78DK1GT3Lj/gEOFILHX99qzDA8dKsCA/fkYurcIgw+V4KG9hRiwbhE8rdMZgMiFTlojhWkwAydN82QZuqbA48yAXw2gRcSNN16qjS/+WBd/+XUt4A+1cPWjWsAH/++a/Aj4gITWXZMPawHv/wh4rxau/qYWLr1ry3/gynv3AB/WxuV378df3q4FfOzGxV/fB/z2P/CXn9fC5fdqAe/VxRU6B4l9zvdpfS1c/aAWb7v8Dm3/Ma68S/v8CJd+Fb3W1fd/jIu//hE+ed+F/3m/Fv7w3o+xrkzjLAjK66vjvReqmXQXmO4EDW+2j20PIC1JFiWeN5PG4Aqr6DpxMEac24DRr27BmDe2YNjL6zHipXWY8OY2jPvpDgw+vwGDX930jWTIa5vxTWTg65tRk9x47qGvbsaQVzZdl1GvVGHMhSqMfWULCz3ryFerMPzVKgx7rQoPXViLnNd2YMTJCox+cztGn9+EnifL0Od8JR4+uR7Dz2+MyoVNGH5hE0a8shkjL3wlg1/dDJIhr1Vdk68/79DXNyEqVRj6OsmWqLy2DUNf24ZBr23FyJ9tx+BX1vM9DTi7AUNf3oZhr24DPcugN6ow5KdbMfj1Leh9dh2GvLEdI97eicE/34Z+b379Wje2xb/6337ng17ZiEFvbsKQNzdjzBvbMPDUWgx9cxuG/2IPBhxehaZZQ9mDRt8WsZEK5PXTyPhMPPQKd2K3EMt2sN5NGuCTP8Xik/dq4cp7D+CL/7of+OAnuPrujxh0CHhuJhc/+A+QXPrgx7j023uuyb24/NF9uPLRA/jy3Rjgz7Xwp3dq4eL79XHpQwcu/7kWvvywNi798j588ZsH8OV7dXDxvTq49O4DLF+8Wxv/eLc2b8NH9/K5v3y/Fq589GNcfP//4Yv3f4Qv3v8xPv3VjwACz3dr4+rHtfD+zxMRMWPgcBG7gAtaTOQuMN0MdO5kHRkZWYiuQSHPFQXhCaijOdF0YBeMO7MJY85swKiXNmLcK5sx7vxG/j/u/GaMubAFk1/aWqNMPL8VNcntjr/d9vEXtqImufHa9vkmndsCklHnNmH0S5uvy6jzmzH8/CYMO78JQ17ehPEvb8KoZ0sx9sImDPvZFgx8aS0D1tifPYmJJzdi1PlNLGNe3oyxBHAXokBHYEdiX+9WywlnN+G6nNmMCddlCyac2YKHz23HyONrMfHljZhC93JsDd/3uJMbkPPGLow7X4VRZ9ZjzLmNmPjqNjz8chXo3Qw+UYGxr9T8buiebmyfG//feN92u008WwWSh89twNTXtmHSqY2YcqYKI89uxLg3d2H6ye3Qu7fkQE+a/pKB20nUueRto5JWtBQl1A/6UF+KR+B/SfIOHnDj/TcNfHChNv769n34+Fx9fPCLB26Q2vjgF1/Jhz+9F7/92X346Of346Of18Zvf3Y/PvjpfXj/zXtZ/vBmHfzhjf/AJz9Px4dv/AS//uk9eOfNWvjdz93449v34Xdv1cbHbz/A8vu3HsDHP6/N56L1LG/ch9++fg/sbbT8/Vt18P7r9+HTDyX895l4fPpmbbx3rhaWzKzD8WMxegTO8P2QLekuMN0JCN10nxumcvQRkR2prhAPT6IFd6ofwQ5NobdNh9wmFf4OjSC3SIK3WSLMjk2gZaZ/I1FapqImud359RapqEnU1l+/P711BkiMzKho7RqCxLgm9Ftp1wBS+wYQ22UguVkqpO6NMPHYWow/vg5NHxkBV4sIPI0jUDo2gkzTldbpoOvYYq8TW6dBaZl8TW72nOkw2jSoUaz2TaG1SYPcMgJ/x4bwd2gCf7umsNo0hNw8EaG2jeFrlQF/ZjrMFinwtU5HsF1D+Ns05Ge8sf3UVmmoLjduv/H/7fY1WqZAbJYAs006X5PaLqZVMmKSKFCVCOa80fALTWd7E2lN5ECgEAG31wOP71549DpwuxqgfpwXghKGHPCjvlYXbn8IslOrUShpm1gTKAWK9pUcKmSXwknkskdBgsuLt39aD/lzJBie+uwoUN1+aPEyJ03LlI/oFkFR5ETLTFJ9HVGckDGdvH713QKnOIlWCPfUi0e8ZLJnmLxzxAwRH+eBR4uHSMm+bgGmx3EXmG4KOncQQ0FeOE570A2mqiC1m0YzGuHiRAFSrJdfGtuiNA1upwuiS2DSMpdTYPJ4IpC/lRCZWE3CBQckOVp44CbLW53XXk9hBjVJ9WtzLtgN16AAPdErsSeSvJGSW4TgEfnD8ngEJAoS9AGtMfJ4Jaae3YJRVUtBJHNafTfiyT0siCyqV4QttI6MvxydLomcpkOFF6Ly9WelKilREeD0kniiIrg4jcYheLjySX1XfV5PtMRErEfv2+l28HXIy0XvjDiJHA4X08GSFkwpQnY73WpZvX1u+lsQv3YOel/Vz0XFEjy6wqk3FAJB1VOo8gkVkzCcEjtK2AFwzbPGWQSGjz128ZLIUes+IQxvTLSCjqbWhugxEVtXhOjROXHcLjl/s2WsUhdxaj3EKTGIkeqhvvQAYtQ6iPv/2fvueCuq6/urSHv9tul9bn3vwaNXBSsqipWO9A5iizXRaGKaxsRobPQOakzyTdGYqFGU3lFsARHFbmJJ1Nji+v3Wvgw+iRqNaFT4Yz4zd+69U86cs2bvfdZe2y8tp/QP8PKLMay8IyWzhhX5ZjKDSvZ2hZ2WZ8jnSKmY3Zc0K74oOsxEGj55Z7oBzzBQ3bIcHVq3Q6oyBSWjIu5WoUxJQPMLkr/HWUICsJ019gHTfwtMnJXjVCzJbAQjAhCLCJAuQPVKEiupfVShqEhSMD5XEAWBhEHZV1+mekvEPfdDt6nl/HHLx/33k3yXcigt8tELCXHR+Xk81XRk4QCXxXRAaRfup9YQF8pY8DsCRgu1BofOvRiDNi9C/zWzMfGBX6JF2xAFM4NKVReGL4O7OgO8hlVazBL4NAbC9wdz6VxyHYYL3QpB7pQsdqlgAwe3LI4hVIuEkhYpGV6Pw9JQbhFpxRSNdMV1ENdNlCcV8E2uuBkkbRdJ6lO7jO18+HPZ1Raf8vns3n4sTsBzxT1b2oBpK6RGpNMqCm4GJmdx7VK7kJ8UFUXVyE/zPWQ9QzIHsnkLrm+hIh2TtKDQK8IyW8pkDCdkPriwLFNpcfWsqIayjJWj5mGqWQE2ghpzMm+9sYD3HkhKALv/MR1RY5bDKXdQryeQMn15IUnRDBbO2LnwHriQ2kAddMZhOUtNUObLg0TU6oQqJcLYjim1izDKvWwVfNNFweogVA6y+//bcfm/+t8em5Xjm5GMU3YGWj4kD/KmotgRP3M72sffRTcd7Y++i/6zizdiu8IRok52tOwaNDsHT8Rn+aquyTVi5RLyX8i/IeOc3JuYmUQ7OwOvUxFDl0/HpGUzMHrpVPRZNw3HXnoqrCQtmhIAsdNG0h3k1fDNHrkxn7VdeKyIchBZDI0/f9bj76n/R9cUraPjyouOqgEkTzZaxFJnPpyrijukOU5poNshNFl8YVmX9nulbbvRPumTrDDjIuEWkMopSBk1cIM40mprKKaLVm2SeH5bC7yzpQzvPdsEv5weQ1rNoSqbhlNdj+rAAq02LgTKlG1AD1xZkw5D9QLV/vjFcjWYjioL6RZM6SHlI+J9RWPtq7LeY8BEoCH4cDqWgEJw4j6CDPN34omUSFHwrc7fkSYfgVhjkGoMTo2BKQIkEfGP3uSNiIJRR/yqrulusfPRWmS2PNuNTGyygm3dwJFnDsUpq2di8tq5mLBhHvo+MAfjf3kVrLqcuAas70bdJ4IT1yRykrhIQmNjUPks7RN18ugYu3+O9v8v1hEA7X7uXfvZFynMz5ej0ARKeu3clpCBq0kmAdufydUUEpSF27IvIuiWAui79rkmKO9i2IpYzErg7bSGyQqvg5K2cdG3Fbz7pI53d+yPlx6K4a+bEyh6KuK5nSRh530LlaRZsewcvmzYH6Lzfvyacj0saMGFHK8IlHYRWj9BOOXLBFp7DJgISBHgkJnMBEICC/dRuIvWFOUYmPFM0OLChuB+/q5xo0QWE9cRODV+QLt3vq/DZ3ZGluVhO/K+mQZCgGHspDpjYvwtV2LQ6hkYuXImhq+ehQHrZsrMWe3g3tAUXcCJjGf5v1uSnWWbsSgl1/+pjaIB/HHr6BjRbxp/jrb/V2te00edW77bCUwEp8ZLBFSmV6o0XLI4qWYZKVo6wrAvscNL3DqCx/uf+b8SqZcvTbK1WdmZeW1qGCIwNGxaGQe26XhtWwxvP10DPF2J8yakkXIKMOwW0BRfaAuc8CF9QSZ+LEu2ybMicMo5ed6PWJh7SaJsaXHEUorGFF3AaPurst5jwBSBCwGHVhE/E5AaJxBKKoUXIJcviuwpGymytHZvsMbgJNtuqbH5lubD2335qE75VdlPMbkca7/RxbVccedo6TipNDKDjsCE5XMxfAMpBCVgGr1+gVAJek+7SAipbFu2E9+Q0kYeYzom6NJRMvc/tkOUbvFR608Abv/xHJ/jMf6tv0T0k93WUT+Lfr/rswzqkoUffVeyCEuDfZflsVsqEgFBFpvCf6EUPw1DE3rGQty00e9ID2/vKMfbjxyAdx7fH+/uaIJ3d1Tgj7+Poeh2kWIElM1hf2aunRA+WQ3YskrJ3pytJrD823ndj97XyDqifA6X6D6/Kus9BkwleU9H9GBq60qVVGktRWjNbT7wCKgIXpE7F/1m90bb1UE+JDbQOE7A7d3/+1X7zFhClsFOxuUYU2NHdBxJA+kz4yIMXjETBCPymMauX4hJqxdgOMFp6Wzk29WXqvxmS1Pjul5KWWFGumTMB5/9jdn4GXF7989flfbe/dp53XIv0cCP+lL0OQIelxb+Ry+uY4gMDoPdnqfAzTlIqR4WXJ8HnmyGN3fEgG1l+OfDMfz96XI88VQMx3euQ8FvL8F3WnUEH4K7PLed4RCOgcZt/cnbefdr/WqNkT0GTJHLRdeMlhIbkK4FrSO6F9xH944Nzbc7f8eFv4usrY9qdHk4jQKWXwcg2v1e6QYwMZnJzIwx0WS3LQNKmxAj7p2BAWtmgeTJ8ctKrO5hd16PCfffLEzrg8f3E3UE3bVlCpopPXQHqCLATk1w2v18n/Zz48HB7d0/f9rjfdG/Zx9qfE5+3n1f4+9lexc4MdRAq4NL4wG/c59DbalySXUxWLxCUUUEr0O9i22bTWBrDO+8cAD+tbUJsK0J/vp0E7z9elNMv9iCVp2R/E/mMxqMVzGX0fdkEoMEULqWlsdzftpn2Pg6/5v/f9rz7dnf7zFgYkelW0ZriZKel11+Bb7z3e/hzLPORucu3aRhCVBRp6YmcwRgn6TRG1tIjX8faehEHe2rumawmkoAvE9OeZONTFGwTmcMxKDlMzB882Jhc09eMU9SQIbdMw0TN9yIQZsWYMSiy6UcOqVb6L7RJSCniJYXQf+TtEn0YvmoNY8RfRcdb/fP0f7/xTrqE7ufu/H+aJvrxr9rvP/Dt6NBvvvg4/4SOIVetZRFV7xAav3ldA/fmGzgtedaAFti+OfjTfCvHS0k/+3N56rx9vbmeG4jZ9Ji8N2M8KyYlM5+IC+lRqD03wHT7tf61fq8x4CJD5odlesePQ/BrbfdjmXLV8pCZb1Lv/cDcd2i3/G3BDJaTQSsD+8Q7zdmBEyNfxeBEteNO9pXcZukQMY02CaVHgl0lqgVDP3VT9F/2TQM2DAXI5fPwqkr52PYpkUCSkPunop+G+eBYNX58INg5UOkNLUUpyCzmUJnjZ7LZ2kXtnsERNEzaPz5sxx7T/yX1xQdJ7qu6HN0vVw3tvT4ffRd4770/nYo1orlkiHulpbG8iyyjwJzlFX2hNBJjSbXT6JT1sFvf2Hh9eeZjFuGtx5sireeKMe7O2J4a4sKPFiG17fHMOL0BMKaHBynlB/KVKwovsR4o8gsM3blvS9k92Hb0X1EL/5oHe3/qq33GDCxIQgwDH7zgbNzUNu5dZsGEbG6975lEhRnA9HF4/eMS/G3jTvLV60BP+v1Rh2IZZgSgStlvx1OGmQD6N3rMH7FPIxhIu2KuTj/vgUYtGoqRq+eiVGrZmHSyvkYuXo2hm6YhaOuOhtasgZ500Y6R2JhWqQ94hkPWuazx5g+631+1f9fCiIHIqzH6jqUdn5/JsyRKslJJQ+7tQnLaIeerVrijVdieGlrFV5/rhLvbo3hveda4t2/NsHr26gy0BIvPRbH735bhpxhwNG6wfLLYVis9OvDcENYoSmCenTton7y366/au2/x4CJNx5ZPowrEXAY0AuzGfz2978DgYmAxIA33bhoFongxP1ftYbbU9e7q6MxP6pQ0gKnK1bpazjusm9g1NoFkinfb8MinLFkLkasmY3Ry6dJYu74VfMlID5w+VSMvv16ZNsUpMpIImdLekq9myu9IMz3LYM9dd1723EiYIqE7UqzcaUZULG8bB2q5SHppuGlQ8y90sdrjzXBu1sr8d7TTYEnyvDuEwpefTgOKgVge1O8vu0AvPBUAj3yaTgWVT2rIERJu1iyzvj8XFpTtfuA6b/tcBEvia4IgYcgRWCii8Ia8ixhzGNHgMTf0GriwJQH+6mDe++7ef/tNX8Z/hcBUyKRksq+nJnRNE24SyNn/wjjfnsd+t70I3S59nwcfeU5GLh+Fkavn4e+v78S7S8aheOnX4Txd0zF6csXoeHoHqi00miZL7GFOc1M9jjVHL8M9/p1uQahEexyAxvFnzIZSSPKqlV4+tE03ni4EthegdceieHN7TG8Rp2mJ/fD25yhe6Ycbz3ZAi8/H8OlkxuE6U/9d1pNjt0AO7Bg//8adY5D6dy97/ntMYuJA4yUAAITgYbARGuJb5hf/+b/8Mc/3SkESwJYxG/ib9lZ+b+vS6f9tPcRAZNWyEqcgpnuGb2U11VR74qudJmTlvyohsO7Y8jq2aB20wk/PU9iGmSLt3ASaFEw4aV11ErxhIykqjBHTFxr8/30n097fft+/8EXIPt2aaF7TGHDrCyGU42kqkkdv8O7W3j4kRgeXqnirhtVTP1+Co/eW4O3t1fi7ScSuPHKGlx/aQ3++AsV23Y0weKbk1Jp2NZrYTlx2HZRxg1z9mipeb6+142PPQZMkfXDgRBtB5lQEjxv/9Mfpc4X9xOwOBjp0nE7etB76wCIgKkitMHqvSxAyeq3LEOVsHUU0iaKhgs7YaBwYHsMplDehgU48WffkrYLbRc1SkKq/RY1B2FCE41vJoKyaAGF9Jmmsre27x67b86a7rLqS1ZSyb0jcGQRZKolP42xJ09thzpWfCnPId5SgW5X4fez0vjHY5V487kKHNk+IbImDWEDtOpEySIyM3CMulKSsKOX9vmKVLzxArXRuT8IlO9f09dr/x4DJg4wAk9EpBSAYp6PZeL3t90qpWUa2rQTaykCL3mbNyJdfl0b+ePuKwImJRsgny2I6xtX06hQk5I7Z6ulZNyy0IZ9UBsMWzMXY9cvQq8rzkZTIy2SMGnfBoEtQdkP14aWzyAZuKi0dKEeOLUsH/316rhf+P1EnCZpR1pKJUY1n5/0Z8OGa3VFSi0lmqcdHSkvgWTooSbv4vdzsnhtawu8/EQMJ/Y6FMnARplSBsvPoiYog+dpUiiBYygKgpPDZFv1UgDzC7/f/3F/2WPAxIfDxuODilw0sljpyl38nUukztdvf3crrvzZ1Zg46VQBKIJYZEXtbQ0f3W8ETIxbcCaNU/x067yGeilBnjZN+UzFgfYHd8Xpy+Zhyp9novfFU0QihpViLOofGYbUhKOFxGqsnFBgbKkY5uGkv3p6PFH7fGnWjYApemZcl1JF6Ho3k0C1mUki7beEGrBQRh6an0O5UoXFP/Pw3uMt8OZTMXRvF6LKq4EWGDDV1qJC4HjpUrUfehVBueTqWU4rWTPV5UvTDl8QYO0xYCIYEZy4cJsPjYFvglPHzp3w6//7Ldat3wgW5mO8ia4cB0/0kPe2ho/ud9f9GyZYndZSDKENxFUVbdOl+mZM6E3qKrI922HA2tkY8eCNOOiyKahgjTFFhRF6yDiBCKfJcS1X1BmpvUQuDCuCROfbt/7vLEe+OASEGnOhJC+RuXQGsrU5VFVn4GYK0H1FKtMo1V3gqhlk7Rr84mdZYHuVFBs4vF0baExeN32EWgI5j+W3bBhaK9HFMoIkzFCB5XSEna2SQqx723P7xMDEWNCuQbSTzMbGivaJObuTacx9/D2D3wSna667FitXrcEVP7kSXbp2lyB4IpkWciUBam9r9A+73yjNhu0maQiSBf9+XTgyuXP1BSkEQPH+Iy6eCGoESb062xSQl5lQCpftJLp+2Hn27fvvgCkiNTZuv4j0y/W/l//SBbAIWlyuv7QWeCaGN7bH0NC6KMVIWd2ZqUO6Fd8tKb2RbpQT7hS1+++uu/H1fpW2PzEwNb4pDh5+JgBxTQspmv7noKC8CfdzhokB8D/e8SepJc99dN/4v8iq2ttdObYJl48DJklVsT1kanMCTKxKcvi3J+zSXRL9nd3ST6Lj7lvvmQFNYNq9LRsDk1AIRAGjpEbwPlCVNJKu+34R7z4dw1s7YqirzcEh78mlqoAnWk6N1TIaH1e297ly/974uz8MghIXggutJG7TJYsAJrKWxE1jMqJtgbNydN+YfsLfkcsUJfcS0CKA2/1ce+vnqI3pBlMGgwulUPx8KMFvAtNh3xwrwMSkTwLT3tpW/8v7/gCARJpHjSots+9HhTkJTG89GcO7T++HLJn4LETqhbBMT8TdPhaYvqC4zv+yLXc/92eymAhMPCBdCIJO64a2YgnxM7+jfAPduUU3Lsb6DZvEWuJ3EXhFQLUPmD74QoiAiW9hgpMAFHWqs77Ui2OtuZ7njvxQYGJb7mvPD7bn7p3+8/jcuN35/PgCLgGTJTPTP/9eHq+zVt2zzUQQ0LJZySSESSoILa1dhM0v/to/j/b4rMf8xMDEhosaPxo4PHk0CGghUZ0ySkch6DBXju4cU1LuWXKf5MrxvxGlgP+nLlMEcJ/1Zr5O/5c23glMIoVhOlKlhMUsWQjzoLOGSeen8qXIqH4SGY+98M37RfUJ0gdKkiilZGICU2NwuvKSUHLk3n26XKwk01KhMb9U30d+/bBn9F8BEw/EgcM1gYnAwoWMbnKVCDaKqkM3KTlq4f9+l3xmMAAAIABJREFU+xssXbZC4lCMP9GVozYTf8//EcQ+7OL2pn0fFsOg/AVBiTpLrOxheBZGrCoBU7cpg+UZsH0pp8pB0PiFsTe13Rdxr43dtv90vug5RNYu1z/6lisW0xtPlMEyOXOtlgTiPk5ZI6IofIDcuXdYVJ8YmPgwGltM0WeuowdBLaaaeFKoACeceDIGDh6EH//kCixdvgx33nU3qqrjAkIEJFpNXOjacVD9p4f9df++MTBFViiBiaCkUPbVLFUmHrZilpT+7jSxv+gtkcC6D5g+/8H6ccDU+NnJeNgpA90YmC4+28SbTzbFq1tbwrGYS6pAC12hc5Re8h9C6dgJTFJUYi+zdj8VMDUGochSYqPSjYukdbn/+BNOAsmU6zasx91L7sGtf7gNx/Y5XgTkOBvH/xCMaClxe58rR7H59xUARON5pwB9BEwW689ZGoYunylWU8dxJwsw0SoVAfp9rtzn+nL7KGAiKHGRl/bOqjTRDF00M8cA+IVnapK0+9IjLeHatTuBaefkhngfBKbdwGlnpZt9wPQZUJnWDwGKIEPQqatvLRYRZ90IPlwIbPIAd85gRPu+7tbQp7m/xgOAHTxy5ch3UXwdo+6bJpSBrqNOkhp7fCsr5Mo0auNPc759v90z1hYF3Uo16koFIfhcGP9jcUrd9vDNcTbwRBrP3L8fQi0HFghlAQrNr4Jlt/tcQfWr+Iw/tcX0UTdJwIlm3AhMkQgcgarxoNkHTB8/ED4KmKgHzvLcp9x1DUY9sBgdRhwPxTKQoXqnbX6gjT/qGe3b//Ft/1nax3Z2yvc0ogsQnFh/jqWgThtj4e3tBl7ckkI+46IsVQ5FaSfVdG03sQ+YdjOK9hgw8aE2toC4HbltBKPou33A9J8HB8FJ2nOnxUSrKQgCKLaCU267WmJMHQYfIzXjAod10vYB02cBlT3xXxbJlKTb3eJLpZdygIkTk3j1qRg2rorBMlUYWRWu01pSUQJX2QdMnycwRbEirglKfOC0niKraU90gL3pGBGPicBUqauwa0OMveMGkdTtOuhYcRMY/NZZrXefK/c/HdzU/S7Fm0q8JAl8W6VcRdvyMWZkCvhHDI+sqYSRKEounJ8xoelJ+Oa+Wendx/UetZgIQAQixpsITFxzwNBK2v3EjT9H1lTjffu2S8UJpIMzjmRZoJTGSTf9AMOWzkR9/6OQ9kuzmUIZ+JyBKbJ0P2q9tz8v28+A5ZaYuxjVh2NRASZRk909YUger29thgfvyKFgdkTajItWGUs2/VvQezfrYW9s2z0GTAQkdloCUgRQ0axbY+CJtqMOzkaP9u2ND2D3e45mebiW2Z2dKSl1Xk7KOfW/5TJMevTXCAf2QqVniXJAoOwLfu/ejl/058hiIihFlq4wvyWp2sf4Ib4k8N5/RyWKgQXd0WCaIVRHhbkX5sL9p+ezR4GJJ4tAJnLhGu9rvL0PmD481vRhwMQkXiOtI+M4GDLnezj1vrkoHN0DNQaVDl1InOlztpj4XD9u+U8d7ev+PYPfco+NgCkKfjP+1Kd3Em++UInN97EUeAskrCQcv1YkUlRjN5rAPosJewyY2GkjsOE2gYkPivsad0p+F+2Pvov2Nf7d3rr9UcCUzvhQkwmkjmgD47gukuqTdbJStbeawvX7gOkD/eyL7j8u5UnY3933LSbSBXSblA8fnQ8s4FfTXFz9rY7QzBooYRya3lqKW7pUr9wHRh9ogz0GTF/2hmWnYfltkZngTJYfSKchnyRrlYoW+laAbKYIJZdF3HXhOSE4+C0/A9cOkKjLQw19ZDUX2TAjGjqsmKvmSvuoPmmHocTWeD5yWNxsVmZrqk0TYaFOXF1+J+WffV+m/L1MCINxOZIsPVeSPiUNJZ+T/WnDxgGBJgnR5L6U2Sp03RRxOLFMTU5JeyjYoZyT9ekKYR55zYW/U1qD2eteLoek7UiOlhuWNNdJ3hMFAypB5AIEqo2sl4Fan4etmuhk5cVlZGVZCtJlDRZkNJDIO3L/ZKUbngfVtlH0svBNF3VOVgZpqpiB6ZcsQ1YV9nKZkoZUPgfN9yT+4vs+QrqrriNqp+IKNSLdRi+4z9q/sp4Bl7LDtg/dz8DJeDADQ2q4mX4DtNCGlbOlMolhsiaiCcOuQCYswjRqYXt5kTpWfQVm1oCTCWBZGbDP5HymDHlS5cZSPGQDG65Z+p/mVyBhq0IbyHpNkEgWkAoCiTNV2GnoWhJhYCPL2JRrCPcpzHQV6V7bjcMP8vLysf16uQbGphy/A/TQgJd34dghPJPl4AN4rgFXD0EdeN/y4NkZZPKO8KhK7UojoSQ75HimqBrwheZ5Xz7p5b0GmAhIXIKdelBipQWhiPUTUIrFOmiaASpHesWCxMkIWCwQwEFnpS2Y+bzMvFDOljNlfDs2ULFQ1SRjnIMroG5PUhV+kRV48G0HHZ2cDFBxuyxPpG6LZL3btuhVqSZzBrNyTgJFrpCX7zwCqGqi1isgrSoIi3mR0c2mLNQW6tDS0lCT9VCp6/LfKt8W5co2YW1JOC6XQdIy4dYVwWMZhoWcn0XeCFHQAniGgzAM5Roo4UtQCYtFNNGSUnI8bepIuqZU+KXsLwE0aCjghEvPQI8fnopjLjkVhfo6qJ4t6RUsnqCrhsgDR9aw/Ee3pDikX5tHja4JWMuzsH342YyAQgRMEp/ZGa8kGBGYomN9FnCyjCx8rw38TKuSuJ5rlEqpU6veMWGrbaGmsmLd5POHQLWr4WfqpL9QXTJn1iHv5RG6HlTFghvk5SWkBy5SVGwNGyRWlK3zoXs1SFlNkXYqkdR1WJk8jKyPHvnOOKFniKMOaY0TD8mjyq9ExjkYetxB2vaQtC0kHQ2Kb8MIVOh+QhQIFK8I1/BhmwXkCiHCnA3NqIbnFBF4lN+tkRecG9ZLPTrHa4Bh1UFzeB1xKZzpusWSUoWrwAtshJkifL+V6Ikb9pePrrDXABNZuZwh4Uwht3cF6S1HYjVOWkO+WBDAMdMqQtWUNw9TPvh2rM0WUVFRJVYKpWrjti5muJNQ0DpbkNLcyYwDJe9L4nKgWwJKmmWiUkmiNlMA00p4PA5QWh8svcR0EloTBLtUIi3XwKCpkkoj43jI6C68JCvzZtBCTcCoTqKDlhEQ1bOhWE60wKwggACT6yKrmEikktDygeTaEUSrTRVtvRzqE7ZYjs09A/FcKcCuxpPIO6VE7PRORjKLbhZa16IiUQXXNKBmbKEl1J10MEaumY/+G+Zh5PqF6N7rYLDApmWYktNHwNUcS9qGbagoilhZtAhcm29vS97mrmLKIGdVmIRviKUo1tvOMukRCPEFsieAyQwScMKdaVC2CUvTS9ZOaCDMHIC8W49WrUIYdgJJswJJS4WbyaOyUkWrhgzScVeuPx96qMu1QrJGh2Lo0AMfbrEdapQyBHkPfN623RmOXQddDVD0eyNZbaPaTeOqb7v4x9MxvPxCDA+tbwktp8LQfdhGUsBRyoFbWek3OS+DrJND4JjyUmlfm4VpJpHWDZnNC80CMjZLRwUwM3VwvI6l/pRLyktQ85LwchoyQWfYZk5UNNm+fpCD5+dgWp70Rb4I2Lei9v6yrPcaYBLqgu2WzGLTKVkkngctlUaiTQ66pyMd6NCMNOo9D6FroSJQkO6QRVO9ClrGA92OnOFIINopZpHyLFRqKagFD+WOJoCTck3EySsqZKCmFQGGZNs8Eo4hdeBohQQZH4lUHClDQTJjIV5wkDU85P0QqVRKUhV4/AotBb0QosJUwMopXjGHsHUtmtlplBd96aR1qgcvbSJuaehQqIemqGLl0LSntaZRkMzW4WY8pD0DLcw0KnwDRi6QDs4ArZPPiGVW49moCW1kXR+ZtIaUnpY0GFtXkNVNaFkLrfschMnrFmHg7Vfj1PWL0bFnZ6l9ZyUVeJYp+XzNzRqY9VRntKBrCoJcFjkqcGqWDAbKLesZD2ohAAP7vkuxNHvXNHvEgeMg2WPA5NbBMErnCz1TQMa1C3CttrC0BqQ0H7Qag2xrZGsVhH5nsSh0vS0MO4Dbtj3iTgYpk/mdITKhi3zeRqEYSpHLfKYzdKUOhloQK8Zxq+EHTWCl4gj0GqheA6ZemsTbfynHP5+I4R9bmkJTWsOwVOgONbQyCNwCjISNrG3C030EZp30Q9/SoVQr8HMuzFwBppdD3umOUA9g2CmYxVoYesmyzOc6Ia2m4GdssajoanpaHtlCqX1VNYSmlWg8fkj3mVLMHz4R878Eqb0GmKSDu77kKPFtybcHXTFHM9BpykAcedE4dB53Eg4bfiKq3DSsI9rj6GvOxdHXnoeTf3IOOo46DpWBjlwuByOeEjcg06Mjel88GV0vGI5jvjsFZsZF94O6oe8Pz0a/qZegeFgXFFwPejIpSoaslHvoBWNw1FXnYtiCH2HgFefi0JEnIVWwxeKiu8WBShBrfcKhOOqiiWiY1BcHXzhaXB6nVQEdTh+CPrdcgSOuOg+HTBkGo0MdUr5R+j6hSKUVo1VeQCidc3DomcMx4NoLMWTG93DCtIvR64JxaNOpHexkCk7gI6EpaOWEqDu6J447bTSOuHAijp48FGHgoc3Qo3H41PMx8brvItepHoULBuH4687HkLVzcO7mX2PAyhk49Ceno825g9Hl5N7ofFBXHHLeCBx6wSgcfdF4uL07I2T1l5yHlJJGgWoSHYo4+qxROOTCceh4zlC0O6gr8lZJ6VTcOArjNXLf9lSMycvQPTZhaxYsDmjHhZ5JwspUgrEco3UaaScPTc3C1g04ig9dteAXNGhhUxygxGDVmlL9RHMMKRpgGgUkEjXwMpXwMy3hZ6rh+aaU+basggCAG6ZgOkmY2Upce0kS727L4Z1tGl5Y2hK+XoFCbRHxkC8TusNJxI0YnGJLJP0apLMZGJlWUOw8smEBduijpVGGuN8cjm/A0vLQDQdmPg4raAad1pcTwgpawHXq4VmHwPE1mFYKqlZypzM5v5Q8b+dhGKUS8u6XsG7dXgNMfAvTBVMCT8x4uje6qSFr2ei34IcYvnI2zl5/M4668kx0u3AETls6F2M3LsKoDQsxYfV8nH7nDIyZ9QOwOm42m4WdUlE47hCM+ONUjFu9ACOXzEC70/rh3DvnYOSjt6Df8ukI+nSD55rgm+nkGy7EyDtuwPCNC8UNGrxuHkavnIPJy+Zi9B+vQ22/wxEPLAEmWmK9vjUeU5bOw8Q1CzH8rhvg9OmOs2+didGbbsYxK2dgwvrFGHXvTIz6zdUo9O4mcS6rVR5xQ0WQD5E9rgfG/v5ajFk9H0fddy0mb74Ffe65FsevnI6Rd0/HEacORtHzkXd8qUfXeuxxmHznDJy6/kacfd8C5Cb0wdBlc3DC5oUYvG4BnAPbYPxDt2D8fbMweNl0jLt3JgavmoURq+fhtLU346DvT0FZrSvHnrByHsYsnYVe158nxTdToYMqW4MSWmh91iBMvncexqxdjFHL5yF7YDu555J8y07Fzs8BmDRDR+BbyDFo7Fuit500AuiajYLtI8goCMI0kpUm6osKfDuFgFac2lUC+W21VnAqbXH/WM0m7Zgy4ZDP1cMzMvCMCgSGioxeRKqmGhm/AxJqK6RzFpprtRKfu+5SA3/fvj/++WwMf1tbiYxdBiPeGm7rOLSWOeRNG60yJmy9HdJ2G6lJF9c4q9cUfsqGFffFQvP8jtCDOCwG3Y06sVQzWRW1mTbQ4jpCXpvWFJaVQFrNwC2kJQZJ4GeYgGBPly6TLcp+tv3/0jr6sHPvNcDEm2eQOxV68AwLqq0jbSgIbAPH/+4nGLhxnmTtn/DbH2PoHdfh9OXzcdq9czBl1QIMXHIDzrj/Joy6dwaOuvo8xD0TBd1BsV8vTNp8i+hwj994I4697afou24OTlo3G+euvgn5o7uiaVZBv59/EyNXzMHYzTej//q5GLRuDk6+8+eYuH4RxmxajBOWX4dJyxbA7NVR3EXNd3DYtydg2IrZ6L9sGobcdQ1O/uPVGL9qPsbfOxunr1mE0avmYuT9izBxzTyc9btrxa2ki2bmPDgd63DWffMxZOMCjL5/McatmY9T/u9KnH7PHEx55Fc4ctNMjHr4FygOPlIC1wnTQIdJJ6H/iukYvnkxRt0zA8fc+hOM33AzTl95I0avmI/gmO4Ye89sjFo+B0NXzsKwDfMx4sGbMHb5fIy/Zw76/OhcNDNT6DP1IgxfNVfOPXnVYqmSI4KAuQwqPBWHzbsEw1bOEcDs++ufIs6ZsaA0ExkNnMauXGPr6cM68CfdZ7gBfLeVWEuamZJZwbrWeUyZ6OLPtxu485Y47ro9gcM6FqCkVChaHrabgpfO4toZBtb9ysXqO01cfbUC224CW+sC30jgjIlx3HqLj8cfUfC355J4ZHMTrLw7g59c3ANZR5NYldU2QI2Sww0X1+G1vyTxj2f2xyuPqQgzDtyUhXPO97HxziKW/07F4usd1KYdqImcBLVzZhHDTgqw6u4WuPdWHX/4jY0ureqQcGKw8ir0pI9WTkt85/QQ65YWseWR/fD8kwoef9THzKuLOKpTO3hqQmJYUs7cLUp8STMTYsmRDJ0J2+4Dpk/akfb07/gASFJkHIXTqapniiIkganHLy/FmPWLcMq908Eqt6fceT2yY4+BcVhb1I7sjdF3TcPYjfNw4poZ8qYPD+mMnGqhMOBIDF41GyNXzMboJTMFONpfPgG1w45Cx14HwutQRGH4UThjzY0y6MfcMx1Dr70Q+e4NqFGr0XlwL4y/eyr6bp6Lfg/fhKEzvy+xL77BOpw2EKc++EuM3rQAU1bORr9VM9D2wqHI9WiD/LHdcPj8b2HYhrkYsnQqTlk/E71PG1VyQTIeBs38HoaunYf+a2ZhyC0/hndgKwSpFGKZBHr8ZAqmrJiPsXdOxZn3zEeiR4MUyOx86kmYtKb0nzGr5+GMpfPR6cwhaH3cYejW50gYoQOzcx1yk4/H+UsWYPiyWZiwfB4KJx8KtXsr2MUi6qwQbU88HKevWoST18zClKUL0KlnDxTdPPKKBa8ui4F3XoexK+bi3HsXoGHySbAto2R9iBJn6Y1OlQq63tHCZ/dZ+4OR0WFbtSK452YqoVkuzEQWZw5P4qXHWgKPluGt52I4dSin1DsgkamAmYmjfZ2Gx19sine2x/DK4y4uOcdE0cmhPtsSv/l1NV59OgY80wJ4vApvbYoBO/YDdsTw3CMx3HtnFRpq90c6kUc6E8fcHxaA5/fHq8/E8JfNzaC69cilAkz/aRVee6IFXt0Rw+MPOqgzEvD9IozCAdBrfIw/JYN/PRXDW1ta4p87anBM2wy8bByK1Qmd2hVx1x0m8FwM2NYU2JoC/sLtGN5+OoYXt/r45nDGoPICSJyB061SaKGUCsOis/tiTJ+5g33aDspZC5m58H3he1AVkjlM5HW4pgXdNTFw8eUYuPp6THz0Fxh79wyYXRvkLc6AclrX0OmUPjjrrlk4adMsjH74RnQ+bYDEhBpOOEKAaciGWThzxTwcdPEYic2wMi7jV+Sp9P75uZi0dqFYY2PvnAYl64CzYJkghKWpOOSMUzD2vlnov3oqTlu5EF6PTkh5DnpeMgEjNixE3yU3YOKGG9Hh7NFIV6Ulr0qtURHW12Hin2ej7+YFGLFpIfpddwlSGR92u1YYvmIeTt20GP3Xz0L2yE4yHV/QTLR2fLQo6Jj8h6kYfv9inHTPVLQfcIzMmtFiGr5kGiasXYT+Dy3CIUNPFGuHFAPVc5HKhyiPx9Gj3/E4Yc1MDF49A+PWzUP+sI7gLKaWyaBC00QudtxtUzHg4QUYtXG+xJ8YhK90FHQ7rAf6bpiLCSvnY9Sa+bC7tkKe0+AOp+xZ7YVVRahhXgKmT/usP+73lqvB9mthODXwtDawPZbwrkDR0/HYwy7e2hIDnjIx9doamGEKlknOmYdJE6vx5uNxAS7OpvXsUgbDbYnLf9oNb2yvAbY0wz+erML6W2386cYyPHafgtcf2w/4a0u8eX8aiy6xkbcUqXJzxfd0vLMtBmyvwMv3KyA/zQ5ymH2ND2yJ4eVtLbD9kTjsZJ3QNXSbxS4NjBvcDn/fEcNb21oCTx2AQzplhIOXcmz8YZEGPNEC7zy5P15+phK3/Z+FRddreHKFgncejwF/i+HZv1Tj5J4xOHpn2IEJJaxGqLhCb8gwPmnUf+Hj8uOeFb/72rtyETCRUU0iGoGJnV8IZyRHeiYGLL4c561bhGP/8GMM+NUVMuVbz9kuapl7HsrMJCb+aaoMxJF3XYeTLjtLKsC0OrQ7Jq1dhLFrZ2Pk8lkIj+sOJ60Il4SzeLpjYPxvr8GQDfMwfvPNOPC741DmalK2W4mnSwH4nm0w+r6ZGP3wIrG6Dhs2ADWKggMvGovBS2eIyzN5081ItC0i0Dzh0nAwx8wERlx2gST0jlu7AH3vvB7kTbUa2gejNt6ECXdOw+SNi9Dj0vESbD74nJE44pvjQIuu3x+uwohVc3Hq6hvR+xtjUekZaDOmjwDoyGWzceLaWbA71wswkchJAmVzg/flo+NRh2Pgmjk49cGbMXL5DGQO7ygUgJq0hsDLIm7oOOyKMzF0+XQMXz0L/X9xuaTMxC0FR54xAsM2lKytE266DHq2xFOibPDnDUx0Ew03C8tLwDeLUsst6SbFep4/1QGeao5XH67BlrXVyNe6cJUijDDAjVNzeHPbfnj1kTL88U8p+JUHo86LYe3KouS+vbG1Cab/qB6Wk0TOaYV0pilW3tMKrz+5P956Ooa/brDQjJwj08fPfmTj3e0x/GtbSwEmJmbrjo9pV5rAlhq8sm1/PPGABi8dImUHQq5MaDGcM+EIvPpYJd5+LAY81wI9uluiqT/glAxe3t4Sbz0Ww1NP74cJI2sFTJ2gHB2ddrjvlyZefTgGPL8f7rzxSFh2rEQ3KOpwzWok3QYYeQWpgC+8L5fVtNcBE5nT8lb2qLdsQfFN9L3pcgxbPweTNizGcddfiJbpOFzDQU1NAp5qoMzX0ee2n2DcytkYu3wm+i34PsqNNBr6HIZTVs3BqHWzMWzNPNQe0lnY0FTyFE6TlsbYu6ej/8bZGHL3VPT59mQkij6qq+PI19WjOp2EWfAlyN1/7QyJQx05agjCMCsW08AlU3Hq2kU44Y9XIWUYKA8saIou3KXmeQu9LxgvwEi53UFr50JJxNHu3OEYtHY+Rvx5qtzT8PULMPy+uRi56SaMWzIHw5dMx5ils3Ha5l9i5N0zccolZ4t1WHdKL5n+ZwyJcbDq0JB7UVlUgmkVxRxSKQVdj+6Fk5dOxfCl0zB53QJYPVpLnCpvlSp+kO3OQD5dVFpV4/88AwzKp8wUBt50GcatXYihK2aj09lDhToQ9x0hdn7ewMSUEcV0YPpp4QWpliJxORYGGNTbx9uP7o+3ni3HO49Uotehljx3gsPWZaqU9cYLaVxwcVPkMgfCjFvo3qkCB7WycWjnECm/GimrAUm9GqlsAj+7OI9XH2mJN56M4bmNZahyu8I1PPz8xx7efSKGd7Y2xaubFSFFkrw79Scq8Mj+wAsO7l8aQ952UKM7QpLl9Y4f6uE1WlpP1uCNx2I48OAiTN3B7FkJceHe2pHEqtss1HH2Vy0gbuahWs0w8uQM3vprHK8/UI1nn42hPs/shzph/zvxLFS7KLN4XvbLBUp7pcVEYCLJz/RLAdd0YOLkmy9H7w3TMGXdYvS/6luockwYmZKmVD1TUXI2et/6Ywy8+xpx9w6edp7whlofeygGbJyPIaumYfiq+Wg4uBuUbAAzoUrchJK3Q5ZOl1gQZ+SO//apSGR9YZfHTUNcTM5UnblsAfptmIWhK+bimIkjwXLgHc4fjgkP3ISRS6Zj8IpZoIJlLK/JLBdnmAzDQN0PxmLMugUYt3IuJq5aAM8w0PW0wTLwaUUxmH3EVeeg588vQLd5F6HXlWej73XfQu8fnY5DfnYmel5zDg4cOwBVvon2I47BmFVzxZUbef9iWMUSz4kgy2A0rSa6dR17H4EhDyzCiFWzMHntfBSP6ip5e/VpF+WOBccOYPo2Bt5yOUZsXojzV90E7+RDoRUcCYqPXjUPI++dDb9ne4mnMebH9InPHZhsElp1GL4B17GELqCGoTC9i1aI7StaAC+1wLv3V+G7ZyWRyQTo2NXB61vKgCdjwOMaWtXHhGmvhDoqEjUoej1x2CEt8IOfdsf8q+K4aVYz3LPQwEtrGvDec/sBTxp45qE4bCMOW3Nw9eWuxKrefqwp/v6wgrSpitjf3Ktt4PEYXtteicfXV6EusFFpVkALDJhuHUYPq8Q/t/MaEvjHlhg6HpSDr+ew9LY03nqgGd58RsO7D6aw6uYYHl5RjT/fpmDlqpa499YqvLOjObCV8bEYenem5EpWZnBbG/QaTBgkmu5MG/oyWU17ncXEHLTGwEQO0Ek3XYaxa+filCVTMen3U1Ft6jDTOkzdglWZgNcqh/G3X48xy2ei//IbcORlp6GQNtHl6MMw9P5FGLdiBkatvxm1Hdui2rUQWJ64NJzO7febK8Sl4azdSdMvERZ4NswhkUwL89nv3U3AoN+a6Ri3ehE69+uDeFpBlwtH45SdgXXO3HXo2VWsGLKpOSPoVMXR88ZL5JqnLJ2Lob/6KXzfRd2R3TF67QKcuWIBxq+aByPvifUnU9hpDdXxChQLGST0hByPtIkWqRp0n3CyBPFJLyCz2ytmBHAISGSWs8IN122O64Vj18/CKWtnYfyqOcj2bCcWiJ8ykSrkUFYVFxDt+b3xGLByGs5cuRDdLp+CVn0PwbB184Re0Hf+DwSI0o5dErtjpZzPOcbkWTrMwCzlxrHoqpuHEgSQ3Lekh4XXG3h5Swzv7YjhnsXV0KyOuOj8BF5/ogb/2hbD2l+60NIFxPMGfLsT+p8Qw7o/lwOvWHhjM+NGVcDzNfj7lhhe2dwc/3p0pdO2AAAdA0lEQVSmCm88GsOLj8VQYMxMc8SVe/PxGN59nMCUQkJLQTFMLLo+I+7YS0/F8Pi6LAp2FkpeRYqFPtxWOHVMFm8/lsbbDGo/H0ddJwVkzt9/Vz3wWHP8/clmeGVrS+C5Gry5rSn++XAN/vWXHPB8Nd7YFBdgfe+pOEb0CWFXWHBcFQ25lkjaLjQ3j3S4LyXlC/dld48xEZgkyMpYk2kKEfHkGy/DxNVzxfqYdP8v0WbyABhtiyBL26sNJE5zxtJ5mPTgTRI76TDhJNgVCXQ4vhf6rp2NCWtmY/CGhejctYv48EzIraAAWFrDkeePxsTNN+OkdbMwYMlU1B3RTc7L60h6Oo65/gIct3KqVNg9Z8lCVOdKOVOHf3cy+t17A0Y9sBBDlkwVMFQLDpqoVZKAWux7mLhxo9bMw/iNC9HrB6cKUzsR2hjMWbUVC3DK/fPQccwJ0JNpdDB9hEkFzcM0Dj9/FI6/5nycePU30fqwA5Ep5NF51HFyDaQojFo5F3bgSDyOSc4SZzLtUt3APkeg99oZGLRiGiasm4/icQdJEnO5pUhichUD/2GAzNFdMOLeqRi0dBoG/u5q9Ln6GyIJTODrcvpgUEOqytAQ2D5UsxTwlufyOQW/CUxM3FUogau58OxSQYC0m5Kk5GMPC/DGE1V4/YUYXtzUAo5Rhz/fVINXduyH955K4tyJBuyCClXviYJaibde9fDKhhq8t6UpnlhXhl9P9XHthQVccGkC9/6hGn9jMP3lavx1fQUSZgBHdwWY3n4yhneeaIZXHkwIm1/Tbcy/KsRrjySB1/bHw/dWwi73kfYbUG2koFkFTBjk4N3tCeBpzrQl0KFTEZ5ahbXLEniPQPdMc/zhriTOnpLGt8+rxHfO7IjvfMPAOVPK8e1vtsEZ51Xj7DMq0fZgF1WuiqqMitBNIq50QOB2gOt9+UrM73UWEy0EDgBhGUt+l4H+iy4DZ9aGL5+Ok++5HpM2/gJdrjwdB583CiOu+zb6rJ2K4evnY+i62Tjtjqlo2doWE9w7vicGbJiHEWtmStyl48HdJAZUY1lIBq6QMDsc0g0j7rgBIx9chIHr5mD0r3+Ow6cMR8Ow43DkD0/HWWtvxKB1s3DuxlvQ58JJqDRNVNkGDv7GCEx68Bfou3YGJi4rMa37zrwEPb8/EcdeehpOuPtasbSGrp6DE5ddhwP7H4OkY4jlcdBlUzB22Wwcf/8sDN24EJ0uHIVszw4o9OqG46ddKAHz0Vt+hTHL5sFqKKKd5qPN0KPEoiHHaOyq+fACtzQzaTPfTZNUHiZAe+0bMOHRX+FM8rpWzcKQqZcgGNQLiS51cDQLQb4W1ek0yt0URv/+55iwfpHEzkbedQ3GrZmLkbdfB6NHO8kBZIIrk6TJwv68LSZasQxml2r0eTIjqzml5FnHV6CpNnasCWXK/p8vNsGk/j5e2pDC35+J4e+P5pHPmFAylcjmFJw9NsCTBJ6/NcHTW2Lo3t0VSoCdzqBaN/Hz71XivWerJTj+0gMthKISWUzv7Ijh7e1N8eIDTEkyhK097fsW3t2exJvPlOHlvzRBt9o4KqpC+Hkb5v9PW/r5pSn8i7SE5/bHK1vL0bN7AzwlhfkLD8CrjzD2VIm7fq/CT+hQMy3QMtEecS2ApsdhqNR8qkDR6oImVgzVhSQqMw4yfg0Msw2ylouMoX/hBsN/chv3GmCi/AZn5QhMDHoTmBzDBNMLBiy6DEPXzBCr6agFF2P07VMxau0iDF0/H6eunC+Wx4mrpmPifTPRe/JA1JhJMJOeBEuSHictnykM7dyhnQSwopI9jM9QbiR/Rj+Mu2eakBJP3jQPo+6agW9s/g2GbVqE8XdNk+MOXPh9pFpnxdWocS0ce944ca1OXDdd3Mijrz4bQx+6CePumYkzlszF2G2/wZjlcyS4fvTN34EVT6OFqaJWcaWc0+Cbfyj303fVDIzbeDPGrVggS5+VvI4FmLR6IbKTTxS2ua7r6DiqT4k0uW4Bxqych2w2RNLSwWuhEgDdW7pyKdtC/9uuwsS7pmLYihm4YN0tmLBkPgZcerZUyaEFoCdVJHImWp8zAKffNxejNi3GCNIL1sxFvznfRcuQ8hw2HJ3PgvIpn3+MKTRzYi0pgQbfc2BrKVB1UrPbgsCkujWYeq6BN7eX4YXnYrh3fgZ4oalQAu77ZRn8goe4mYBaruOqSzJ479WmeHtDc7zzRBXynoEyr1zkULr5Bp5cU4k3CBhbVPxtazMYegqWauNnPzLxztMxvLmtCZ7fVA3NpvRLDldfqMhs3T+27g880xKXXqBC0RMw1SwO6VmNbRvzeGdHE7z4cAxvP5NEzwNbwqj0cfrEjsALLl4jf2pbCoO7u1DtJpKi5JlN8c3BdXh5czn+vs7AX1bF0N5uBz/VDqZdi6yRQsJrDsOrl9nR/wQUX/T3ew0wUcKEs0t8YxIs1MARV4vaQkf/5gqMWTUbdIuOuewM+Ae3xbhbrsaQjYswcM084d0MvW8W2pw9BGW+CldRYShp1B93MCbfMxcDNy3CBbfPR+HEw0QBgKDHhZnmzKg3qRowvBcGzfseTt9wk+SYnbjsBkzaeKOAzpGXTUFVQwZVtgJb1xBXkzj4vBEYvnpOCSzuvB75wEXP687GKVtvwai7pmHCXbMwaP0CHHrV2ZJWQ3eIFAjmvh2QrIDevQ5Hf38yxt05VQDh+E1zccLGORj14M0YdMtPUd/vCCFNkmNEV6848USJcfVbOw9nLFuEZMFHnVFK3ynLOvANH2raEI5Vq/5HieU3euNinLRxDk54YC76fOs0lLkGFM8X64pVZrOtizhnzY0CYP02zsWklYtw4OkjUG0z4B3C00v5iqqlSZoEWd4RqXJPD4TouCQTcmFAv+Q6soy9hoSdRq+DC3jx2f3xr8dqgKdi+OeWNJ59qiWmjC6gLpGH75YsorHjMnhpRzXwWDnwdBrr/hTD5d8u4IYfpvHQxv3xt6dMvPH0/vjXkzHs2BaHoZlI+Blc810HeLw58FAVnn2wOVJeCvt7Do49rhpv0jJ7uICXtjXFP56P4S/LEljzmwT+8RcTr21tgddIFdjaDNhRwMGda1BlpsTqW3NfC7z1TAxvb22BF/6yH26aVo4ffKMtbp5WxHOPN8Obz8fw+qMpTJ9aQGiYiKvl0LOVIovCF4JoQFlfvmIIew0w0ZQnD0eEzTRdsv7JAKcWz9G/vhxjNszHKSumo+9PzxErikJo9rHdcOCok9G+98Eotq6FYWhIVVXJAyY50rB01HdtB69DHRLdWwkVgGL01GRSdU1iVAQLscw0loS2kT2kI7qMPBFdx5yM/JHdYNQx6dIRGRVVVZFTDWhqGkecOxIjls/GkNWzMfj2n8NLpVCTM6Af0QENg49G2wFHId21FWooDpZURcOHQEj5EVdn8D4tSglBqyzaHtoFfQf3x4HHHI7CQR1g1ZUC21Qi4EQAJVzC0Edt+9bId2qLus7txbXS04oIzqVJoGQJLj8DTTeRMDW4HVohOLQjGo4/GIeP7ovant1QlUoh27qVaEC1TFQj11CLIXdcixM2zMCg1bPxjfsWobJ9AQnDAiuHUKSfOlO5QvYLByaCYMl9NCTDP53Ioqgm8eCSWrzzWDn+9VgMbz8bw7M7muHQXEeklCz0VmVI5QpQ4y7WLtHxGoPlWzW8vrUS7/xNw3MPxfD6Ngt3zFTxxkMu3t4Sw9+erIBbUUBaj2H69zWJE733YEu8uCkDx6hCUu+KohHDspuLePXJ/fDecy0lBvXujhjeeaoCL29NYd6P4nj9aQt4ugwvbouhe203UWfQjAr0adcdm5YqeONvMbz+dAXefKI5Xt4Uw1uPtgD+1gLPPHYA1iypQ96PQa9uK/pjzLOjLAsnd6gAQRG8Pf0i+KzH22uASapV7AQmMr5p0TCbP26kcdwvf4wRK6Zh2KqZ6HflufA8B/HyStHbIcEyVcO3HvlD5PSwWokpQECBNGoqUdaDLg9jJeKeqKUETzKmRWSOlgDJnLqGGpP6Q5boNqmhK1wWahJRLI7XlaUrZGqSxDtm3ULJORt09/VQ1TQsRYFJPZ6QxzXhKrosBNykqoDH4XmoAc58QAKLpmliSYmYWz4QWZNqp3Qf7JgEGjMTlhQADE3cXF4zmd7NLRVmNiMuMAXeeH+kDDAYzoFNdQKmz/CaqpMJ5AhehYzokXeeNADDf/YtDF4/F8MeWYxxS2ah70/PR03ogrpDTIegWyj0DU353IGJA4VWkwBSZJkJ2bYETL7THla8HJd/y8GWNQ6e2pDDts0G5s5shrDaQDyoEaJkmbU/dKWIDmE1bpkaYuuG5nj9lRhefiqGpb9ugUEdk7j8LANPPtQMzzyQxvq1TeEkPBhaiB98J4v1q9J4boeCTRuySOoxoaVoVTpaW82weGprbNvUEv94TMMbO8qxcUkNpgyxMeqUKtz/UB5bHm6GBzcmcFDHAClbQ9JuCl+x0DmXwjU/srDjYR/vPFEDbG8CvBjDw38uw48v7ArLKEc66SCfO0JeHpzY0NUMcpmiPD87LMlgf1Yw2ZP/32uASQaVUwICCrCJaJlpyMzHyN9cg2GrpmPopnk46AcT0ZIaN2SHB6HMGFFOl+qCOvWcOYW7U6WRD4JWAr/jQKO8qqmUrAEnLMnYxhW9pBJoUgY1ECtBU0xwocUQ7aPsBWfAEkoaZWYaPb85RvLySEfgbF5CUQXkOL1M6Q7Gcch3YgCX//Usu0Tu5D1padRYhqSoxDMeWliGUBA4Pc/9ZGdztpKKmklVk/MShModQwK1VGAgqMqMpuEgx+v2fBHZYx4br6FSSYtSA7XIJRWGImSaCbU2g3PvnId+K2eLxTf4wUUYd9c0XPDHuUi0L4gLpdSk5LrN2rzEsShE93m6cdGA+QAw7XS3+Zxp+VZZLtJmSekz76ShtKxBMSix2e1sDZj4a5ttEPqtoaVrYdLNtauRd1y0CQ6Ey1w020LCrkbaCZHQqmBbGVRp1ahwCjCdPCyDYnM10JJUrgyQUHSoTgFeJouUEgiAtPXrcWSHLA5tr8CKq+JmcnaO8dG8riCnNJfkYUoEp8w60YrS3RhaOVnYNa2Rybpo6FaNfF1JUI56S4lUCKNgIuUpQnR1nZL2k6qkEGRcGN4+usAXbjLuogsEpWrAKUMTno3kydH68QwMn/Y9jF85W6RPel1xFqoztgxYAgAtIJIhOXtEdQJaGBzMpcC2J+RAX7NLujjUFXIDCWqmbReK4wmBj5o5DAoTiAI7RM7KSHoJ5Xqp+WPojszipbOBxHAooHbUeeNx6p2zMfHeeZh4+3TR86YlQ+lfqk1Sd5xxEs5s8boY0Kf1QneOICxVYS0qKgQInQxq7VxJ21wlqc6U3C0OWAIOVRhJMqQsDHXBCTyU2ZX7Ug2pacd9jNFxcHN2TsDZ8ISBrKkWanQFpqrBaV+Pby69SWYDJy6di5H3zcT46d+H1qMtjGJGZu6ybiiEzTJdESVPgiqPGy0RkOzp9S5gIq+oUcVctptaNEvg5Bmo0VMgjSCuhqhROqHMqIGltIOulkFPGRKwZoyywkxJvKwi7cBOJ2CSce0GUJI9JGHcMGLw7CpQbzydLpfnr6T4TOqQShRg6QkEJK8aAdTAAmVYyKtiBRVeg5m30bQmhXRQQFIzYeh1EhB3rErRWWIScMuaVihTYoinTFEy0IIMNLcI1aCrXERKCWHnLSSy1ag0msnLlsBErXHDTCLMBpLQvKfb+rMeb6+xmGjtUJifMSaCEpnUlNtImAra9jsSdX0OArlBbXv1FAlcpqR4qoVAd0C52YRGCQuzJOiVz4i1QEH9IJcX10aKDvi+yGnQMuFUMAc9a+sRxBKeh7TvI+16SJq2xFlSjiv7Up4HxbChuiUVxbSiIde5LVr3PRKZE3pKLIqzWLQqeA0ESh6fYncM5JMFztlGghJdTRmAlgM9pUFP6HBSjCPZ4HnomlnZjFhfPAaD5gRbghU1zzmjyBwuWmIKrS7XhJkPRX6Vx2c7EBDJ1qZ+OMGM10XQzGcLMOtz8I7phvqRfdDl+CPQvFsezTIGKklw9H2Ja8SrE0jqqih+ks/Fe/i8QSkaKI0BiTGmyLVzM7ZYqwk1WXpuuSIUtR6qWwYv6wo5k4CfzXWD6lWjWtVLzOxCFTQ7hF1bgcpsOfY3VZjU/fZDqPqhiKfyUt3GDAqo0MokcZbFDNJhCNvOQ1eqkQpCGEaNiAkSlA5I7CdVl2sUykDXgmqYdqiiQq2GETRA11lePCPaW0aBIYbu0MN6pP1yqEZT1Hu1cCtNuOlyOH4VWsQrYOZqJWGY9AGKAMaV/ZGryyJF5rfT8IUbDNHz+Kj13gNMtlMi8wWOuHGcjaLou6KlkXA1GIoqUrOUqXUTpUHEwUnlxWTOgx5SP9sV94f63MIMV0rENEqy8ncpTRVSYpBhNRYSE0uxHCbXUmdcUXXpCKykQsuEx5NKKtQjVwkstII8mUqnFUT5W4qsGZ4llhEBiSkczN2jqBxBlknJTH2hGxFxgSJmu50LYeWyUtmF8SRagKLgaOyUsfVKSc38H91WDlJqdFPqlkvWDySQ7miaBNV5XFoKPC+3aX0yXkUdKA7ERE2ypO8U2tBzLgpJQ4LzvEey3eOJlIBevlWdkDAZc+PCe/gigInWsyRvs93snW22s8yYkWqN2lwHWCbjclVIxhU4egNUrZnEFxN6XGgimtcemm8hldRRyITQ0xkkkhp0xUaNmocSGkgpLWCqSqkvBPXI2yaqgwLUbBtYTo3kSFZlaeHoyAQNOMArk9kxphpZVif4QQ/oZkFeGOl4DQK9VgTgrEIBzbQKGAwZ0Gq3fCi6B8dMCSUhYdmoLnrYP0zgAMdEOmyDtNEKufyBSGoWUikHWb8dTKcSdpa5erXyQgz3Bb+/+GTByJXjwKN7wqofrE7CmTJykZjGwTcQg7IU5ydYMOO7iaVAL1LE3QHz6Rjw5lteLBJyoFgOKfClo3NgEehCloi2bQkG8zNlcmllcDCzugalUCjUz/OSDMmANI/P34VBXqwpun+O5YqrxEA5iwiwgAGD94z9aNSY5kyK64DT7KbHmBZzqnaqJrBkFF0uWkKUIeHgNw25L8YyOEXM43H2kMehrjdnZlgogfmDVr50fMc2hRLhhx5Sbik3j4Hq6PvAp2yMIcUUCIyVto36fCvhMjVL14BMcNINqNAQlKloHdaJ5Ui2NwG3rKIc+ZAWgScBcALTR70999R+6QssV8WJCksX15dgTL1t6mRTD5vWoO2yOIIp4OV7rWEHFfBSB8LOJIT7Y3oZeFoDLC2GdNKDW6xDXi+AcrrkRgVGJXzFgelkxQqzExr0fA0UrQxtdBeZpA0jVwVXDeBWJ6DnFehBEZrTWkCLAoaK4gnJNV/rQ9MdBAlXkm9FT95pL/2Nkr2WW4WiWS8a4SxeQJXLUMmjSCkZrRJhXkHzdAxBoQqmGZfqPZwhlIkH5zCZuLHNis+97T/tM/zaW0xRg0Qm+651o9wsWhv/aSEQcRHzf+d/CVJcCD7R/6Pvo3W0P3IhGq+j33BNd4/XxuvlIOUAiQTTOKBo0RFMCWIEHS67rsl6//obH5Pb0fl23x99jr5nnEVm2BppIjX+P0E0yjPk70TTioUEaIk6rsiHUCubaT4EPYIcU3q40GIkLUAsgp1FB3jextcQPafPb/2+2Nz75y6BD3lMBKvS8r71Vro+1l/bOQu5Uxok6kPRtfKzYmmSJMzZUlrafMERyGntcmHBgY9bSv/jBMvOdnZLM77iThulFxBfQvICchnL5OLIi4n7Vcv9wELyZuOF/bBxezfeFkrLPtmTL95qigY7B3zUqaIHw3UEHo3Xjb/nthSFZH05xiV2LozrREu075Os3x8Y7yevEoR4bdE1RsAkb3AG0TW9BEYEpv/X3rktSY7CQHQ+Y2O2bxH7sP//hT2RwLFlythdM1WNYpwPhIy4oySRbaqsD0TK69OzmbDA+7aVRujTiJ+lk08LRmMVEReQ6/T8a/XO5KGJoHSGSsT0oo92frwVUpK3prhISeX22pOORf48uSUmtVkIR/+P/aqf8jQCCs+d6tirPvYdnDAWxfXfWyUsX9+tvzL4+f7vp4JeHBwFcFSJp/5OUTptegrUU/Op7m39vHUeSfVR46HP2LXMvc7amZjmEBPktEdMGOlIAkYMjJEBEnEMH+VRvUqLdZL3pr1GBNFri2185Zq6kbFM2TU/6uet0ZNPUuOUPuogyCjJy6Li1ld66pVkfNJ/z44diElvAJexQEiSbaPQqfDlZHh4HkU65BzildjapqXDm+0AZ60Tz0zPtfYDbcc5Qqe5Wkmvfna8klz12JUGDiUhuSipK9bP9ffM/33r/jK3cpGYIugw2JFcQVyBtzGodpuwoFngSPKOJO32bUh/phPwBER5JLQX5ajNXh/LcE0e+od3hl6SNIiVsujJy1hi/PuJabsw6AuSPo9lJLDba26rkZGs67WebR6F1RO+LdsIrxHhuI8H+ThUGo5lyDtXyOYtqT+XISaMoJ1sj5hYXCOjnxnvyMBnaUpXuyxW+qJFg57bgN5VL+eV9Pas/be5ZN9Xxr4n+7zDuA6l6kszweUv/W7zCUmqz4yDRU98NLfKN2w3tPfoPGU+uN1lwRJHjvSkN1l+d6ZF3p5FrrJ+mn5NH8d14DWGWGaxXdcu+ji3zPtGBhKiDPLR8/qI+i5JTIWcOnc8Gnbv+lVv3E4I4CsGGREIi7d/AL3o9YHG9pxC5MQtqcClN1/Ue9YHwCgZ8/bxmKbrnpSkUxn6wW0D/dXDcc2j4v2YNguGhf1EAurHshdnXkoaHmjs045XzDiKp1hICdJ5K29gmbMi3/771N/7DkOY41hOx0wUNn3e6Z/6gseKLB911Ydd9SZyx969btNGHPuE68sQE5MOAAGV5C4R9TtTIyYdmqQuSUB0ZOQ+rfdqlM4CH0l5RhCS2qWMdtUb4N4JJPVH9fX9jOPcuy7524Iszzga2etWRB6D5pU3l3GOmXstoOX6zj7v9efPdOszKBb2Wl8lfuaITSDG66eQGjZuiCPUPRgndY7kWf2jcuh729L3dYxbXM/WX46YZKgy6Q08LIwzKUIiRKP9DjHF8hEggEjp0oukSFfbXJd8yqPjBY2YSIt16zrW2ad9JZ0yPSGXsoGYtSsX8nl5Kd6CzidpTosn9VF3836OFwKQLQYL9rl6EUYN+oSUQmlvQyw1XWedyKPrPk49o/KbsVJ/lIPxY9fF0ypz/r56ZM0L0z8/6AxVH/QTKYV+Hqm312eJX46YnjXxEMBIPqtd6h21i558I0m+kRyVsz6Xp/G32MPENNip7jXwaEGjv7e+e/PTzkie1Tcqh/6svNNNUI/EgInpQcT0SKO4Li/yq2PAxGRiunn+cPVF4fHP3xhMTCYmE5MxkA4DJiaDMh0o7bHM91hm28DEZGIyMRkD6TBgYjIo04Fy9m7t9ud7bCYmE5OJyRhIhwETk0GZDpT2WOZ7LLNtYGIyMZmYjIF0GDAxGZTpQDl7t3b78z02E5OJycRkDKTDgInJoEwHSnss8z2W2TYwMZmYTEzGQDoMmJgMynSgnL1bu/35HpuJycRkYjIG0mHAxGRQpgOlPZb5HstsG5iYTEwmJmMgHQZMTAZlOlDO3q3d/nyPzcRkYjIxGQPpMGBiMijTgdIey3yPZbYNTEwmJhOTMZAOAyYmgzIdKGfv1m5/vsdmYjIxmZiMgXQYWIiJC8v/Pz0HngNjIAcGftgQOQxhO9gOxsCKARPTP+tkGBieC2MgBwZMTCYm38IaA+kwYGIyKNOB0l5LDq9lph1MTCYmE5MxkA4DJiaDMh0oZ+7UbjuHt2ZiMjGZmIyBdBgwMRmU6UBpryWH1zLTDr8APmqvi6Xd8IIAAAAASUVORK5CYII=&quot;&gt;" style="whiteSpace=wrap;html=1;" vertex="1" parent="1">
                    <mxGeometry x="300" y="22.5" width="520" height="275" as="geometry"/>
                </mxCell>
                <mxCell id="10" value="" style="edgeStyle=none;html=1;" edge="1" parent="1" source="7" target="9">
                    <mxGeometry relative="1" as="geometry"/>
                </mxCell>
                <mxCell id="14" style="edgeStyle=none;html=1;entryX=0;entryY=0.5;entryDx=0;entryDy=0;" edge="1" parent="1" source="7" target="13">
                    <mxGeometry relative="1" as="geometry">
                        <Array as="points">
                            <mxPoint x="700" y="530"/>
                        </Array>
                    </mxGeometry>
                </mxCell>
                <mxCell id="24" style="edgeStyle=none;html=1;entryX=0;entryY=0.5;entryDx=0;entryDy=0;" edge="1" parent="1" source="7" target="23">
                    <mxGeometry relative="1" as="geometry">
                        <Array as="points">
                            <mxPoint x="700" y="860"/>
                        </Array>
                    </mxGeometry>
                </mxCell>
                <mxCell id="42" style="edgeStyle=none;html=1;entryX=-0.012;entryY=0.431;entryDx=0;entryDy=0;entryPerimeter=0;" edge="1" parent="1" source="7" target="33">
                    <mxGeometry relative="1" as="geometry">
                        <Array as="points">
                            <mxPoint x="700" y="1176"/>
                        </Array>
                    </mxGeometry>
                </mxCell>
                <mxCell id="53" style="edgeStyle=none;html=1;entryX=-0.014;entryY=0.631;entryDx=0;entryDy=0;entryPerimeter=0;" edge="1" parent="1" source="7" target="44">
                    <mxGeometry relative="1" as="geometry">
                        <Array as="points">
                            <mxPoint x="700" y="1470"/>
                        </Array>
                    </mxGeometry>
                </mxCell>
                <mxCell id="55" style="edgeStyle=none;html=1;entryX=-0.014;entryY=0.42;entryDx=0;entryDy=0;entryPerimeter=0;" edge="1" parent="1" source="7" target="54">
                    <mxGeometry relative="1" as="geometry">
                        <Array as="points">
                            <mxPoint x="700" y="1945"/>
                        </Array>
                    </mxGeometry>
                </mxCell>
                <mxCell id="69" style="edgeStyle=none;html=1;entryX=0;entryY=0.5;entryDx=0;entryDy=0;" edge="1" parent="1" source="7" target="68">
                    <mxGeometry relative="1" as="geometry">
                        <Array as="points">
                            <mxPoint x="700" y="2350"/>
                        </Array>
                    </mxGeometry>
                </mxCell>
                <mxCell id="7" value="Selectores" style="whiteSpace=wrap;html=1;" vertex="1" parent="1">
                    <mxGeometry x="640" y="390" width="120" height="60" as="geometry"/>
                </mxCell>
                <mxCell id="12" value="" style="edgeStyle=none;html=1;" edge="1" parent="1" source="9" target="11">
                    <mxGeometry relative="1" as="geometry"/>
                </mxCell>
                <mxCell id="9" value="Selector universal" style="whiteSpace=wrap;html=1;" vertex="1" parent="1">
                    <mxGeometry x="840" y="390" width="120" height="60" as="geometry"/>
                </mxCell>
                <mxCell id="11" value="&lt;div&gt;* {&lt;/div&gt;&lt;div&gt;&amp;nbsp; color: purple;&lt;/div&gt;&lt;div&gt;}&lt;/div&gt;&lt;div&gt;&lt;br&gt;&lt;/div&gt;" style="whiteSpace=wrap;html=1;" vertex="1" parent="1">
                    <mxGeometry x="1040" y="390" width="210" height="60" as="geometry"/>
                </mxCell>
                <mxCell id="16" value="" style="edgeStyle=none;html=1;" edge="1" parent="1" source="13" target="15">
                    <mxGeometry relative="1" as="geometry"/>
                </mxCell>
                <mxCell id="13" value="Selector de tipo" style="whiteSpace=wrap;html=1;" vertex="1" parent="1">
                    <mxGeometry x="840" y="500" width="120" height="60" as="geometry"/>
                </mxCell>
                <mxCell id="18" value="" style="edgeStyle=none;html=1;" edge="1" parent="1" source="15" target="17">
                    <mxGeometry relative="1" as="geometry"/>
                </mxCell>
                <mxCell id="20" value="" style="edgeStyle=none;html=1;" edge="1" parent="1" source="15" target="19">
                    <mxGeometry relative="1" as="geometry"/>
                </mxCell>
                <mxCell id="15" value="HTML" style="whiteSpace=wrap;html=1;" vertex="1" parent="1">
                    <mxGeometry x="1040" y="500" width="120" height="60" as="geometry"/>
                </mxCell>
                <mxCell id="22" value="" style="edgeStyle=none;html=1;" edge="1" parent="1" source="17" target="21">
                    <mxGeometry relative="1" as="geometry"/>
                </mxCell>
                <mxCell id="17" value="CSS" style="whiteSpace=wrap;html=1;" vertex="1" parent="1">
                    <mxGeometry x="1340" y="500" width="120" height="60" as="geometry"/>
                </mxCell>
                <mxCell id="19" value="&lt;div&gt;&amp;lt;!-- index.html --&amp;gt;&lt;/div&gt;&lt;div&gt;&lt;br&gt;&lt;/div&gt;&lt;div&gt;&amp;lt;div&amp;gt;Hello, World!&amp;lt;/div&amp;gt;&lt;/div&gt;&lt;div&gt;&amp;lt;div&amp;gt;Hello again!&amp;lt;/div&amp;gt;&lt;/div&gt;&lt;div&gt;&amp;lt;p&amp;gt;Hi...&amp;lt;/p&amp;gt;&lt;/div&gt;&lt;div&gt;&amp;lt;div&amp;gt;Okay, bye.&amp;lt;/div&amp;gt;&lt;/div&gt;&lt;div&gt;&lt;br&gt;&lt;/div&gt;" style="whiteSpace=wrap;html=1;" vertex="1" parent="1">
                    <mxGeometry x="990" y="590" width="220" height="120" as="geometry"/>
                </mxCell>
                <mxCell id="21" value="&lt;div&gt;/* styles.css */&lt;/div&gt;&lt;div&gt;&lt;br&gt;&lt;/div&gt;&lt;div&gt;div {&lt;/div&gt;&lt;div&gt;&amp;nbsp; color: white;&lt;/div&gt;&lt;div&gt;}&lt;/div&gt;&lt;div&gt;&lt;br&gt;&lt;/div&gt;" style="whiteSpace=wrap;html=1;" vertex="1" parent="1">
                    <mxGeometry x="1310" y="590" width="180" height="110" as="geometry"/>
                </mxCell>
                <mxCell id="32" style="edgeStyle=none;html=1;entryX=0;entryY=0.5;entryDx=0;entryDy=0;" edge="1" parent="1" source="23" target="27">
                    <mxGeometry relative="1" as="geometry"/>
                </mxCell>
                <mxCell id="23" value="Selector de clase&lt;br&gt;" style="whiteSpace=wrap;html=1;" vertex="1" parent="1">
                    <mxGeometry x="840" y="830" width="120" height="60" as="geometry"/>
                </mxCell>
                <mxCell id="25" value="" style="edgeStyle=none;html=1;" edge="1" parent="1" source="27" target="29">
                    <mxGeometry relative="1" as="geometry"/>
                </mxCell>
                <mxCell id="26" value="" style="edgeStyle=none;html=1;" edge="1" parent="1" source="27" target="30">
                    <mxGeometry relative="1" as="geometry"/>
                </mxCell>
                <mxCell id="27" value="HTML" style="whiteSpace=wrap;html=1;" vertex="1" parent="1">
                    <mxGeometry x="1040" y="830" width="120" height="60" as="geometry"/>
                </mxCell>
                <mxCell id="28" value="" style="edgeStyle=none;html=1;" edge="1" parent="1" source="29" target="31">
                    <mxGeometry relative="1" as="geometry"/>
                </mxCell>
                <mxCell id="29" value="CSS" style="whiteSpace=wrap;html=1;" vertex="1" parent="1">
                    <mxGeometry x="1340" y="830" width="120" height="60" as="geometry"/>
                </mxCell>
                <mxCell id="30" value="&lt;div&gt;&lt;div&gt;&amp;lt;!-- index.html --&amp;gt;&lt;/div&gt;&lt;div&gt;&lt;br&gt;&lt;/div&gt;&lt;div&gt;&amp;lt;div class=&quot;alert-text&quot;&amp;gt;Please agree to our terms of service.&amp;lt;/div&amp;gt;&lt;/div&gt;&lt;/div&gt;&lt;div&gt;&lt;br&gt;&lt;/div&gt;" style="whiteSpace=wrap;html=1;" vertex="1" parent="1">
                    <mxGeometry x="990" y="920" width="220" height="120" as="geometry"/>
                </mxCell>
                <mxCell id="31" value="&lt;div&gt;&lt;div&gt;/* styles.css */&lt;/div&gt;&lt;div&gt;&lt;br&gt;&lt;/div&gt;&lt;div&gt;.alert-text {&lt;/div&gt;&lt;div&gt;&amp;nbsp; color: red;&lt;/div&gt;&lt;div&gt;}&lt;/div&gt;&lt;/div&gt;&lt;div&gt;&lt;br&gt;&lt;/div&gt;" style="whiteSpace=wrap;html=1;" vertex="1" parent="1">
                    <mxGeometry x="1310" y="920" width="180" height="110" as="geometry"/>
                </mxCell>
                <mxCell id="41" style="edgeStyle=none;html=1;" edge="1" parent="1" source="33" target="36">
                    <mxGeometry relative="1" as="geometry"/>
                </mxCell>
                <mxCell id="33" value="Selector de identificación&lt;br&gt;" style="whiteSpace=wrap;html=1;" vertex="1" parent="1">
                    <mxGeometry x="830" y="1150" width="120" height="60" as="geometry"/>
                </mxCell>
                <mxCell id="34" value="" style="edgeStyle=none;html=1;" edge="1" parent="1" source="36" target="38">
                    <mxGeometry relative="1" as="geometry"/>
                </mxCell>
                <mxCell id="35" value="" style="edgeStyle=none;html=1;" edge="1" parent="1" source="36" target="39">
                    <mxGeometry relative="1" as="geometry"/>
                </mxCell>
                <mxCell id="36" value="HTML" style="whiteSpace=wrap;html=1;" vertex="1" parent="1">
                    <mxGeometry x="1040" y="1150" width="120" height="60" as="geometry"/>
                </mxCell>
                <mxCell id="37" value="" style="edgeStyle=none;html=1;" edge="1" parent="1" source="38" target="40">
                    <mxGeometry relative="1" as="geometry"/>
                </mxCell>
                <mxCell id="38" value="CSS" style="whiteSpace=wrap;html=1;" vertex="1" parent="1">
                    <mxGeometry x="1340" y="1150" width="120" height="60" as="geometry"/>
                </mxCell>
                <mxCell id="39" value="&lt;div&gt;&lt;div&gt;&lt;div&gt;&amp;lt;!-- index.html --&amp;gt;&lt;/div&gt;&lt;div&gt;&lt;br&gt;&lt;/div&gt;&lt;div&gt;&amp;lt;div id=&quot;title&quot;&amp;gt;My Awesome 90's Page&amp;lt;/div&amp;gt;&lt;/div&gt;&lt;/div&gt;&lt;/div&gt;&lt;div&gt;&lt;br&gt;&lt;/div&gt;" style="whiteSpace=wrap;html=1;" vertex="1" parent="1">
                    <mxGeometry x="990" y="1240" width="220" height="120" as="geometry"/>
                </mxCell>
                <mxCell id="40" value="&lt;div&gt;&lt;div&gt;&lt;div&gt;/* styles.css */&lt;/div&gt;&lt;div&gt;&lt;br&gt;&lt;/div&gt;&lt;div&gt;#title {&lt;/div&gt;&lt;div&gt;&amp;nbsp; background-color: red;&lt;/div&gt;&lt;div&gt;}&lt;/div&gt;&lt;/div&gt;&lt;/div&gt;&lt;div&gt;&lt;br&gt;&lt;/div&gt;" style="whiteSpace=wrap;html=1;" vertex="1" parent="1">
                    <mxGeometry x="1310" y="1240" width="180" height="110" as="geometry"/>
                </mxCell>
                <mxCell id="52" style="edgeStyle=none;html=1;" edge="1" parent="1" source="44" target="47">
                    <mxGeometry relative="1" as="geometry"/>
                </mxCell>
                <mxCell id="44" value="Selector de agrupación&lt;br&gt;" style="whiteSpace=wrap;html=1;" vertex="1" parent="1">
                    <mxGeometry x="810" y="1430" width="120" height="60" as="geometry"/>
                </mxCell>
                <mxCell id="45" value="" style="edgeStyle=none;html=1;" edge="1" parent="1" source="47" target="49">
                    <mxGeometry relative="1" as="geometry"/>
                </mxCell>
                <mxCell id="46" value="" style="edgeStyle=none;html=1;" edge="1" parent="1" source="47" target="50">
                    <mxGeometry relative="1" as="geometry"/>
                </mxCell>
                <mxCell id="47" value="CSS sin agrupación" style="whiteSpace=wrap;html=1;" vertex="1" parent="1">
                    <mxGeometry x="1040" y="1430" width="120" height="60" as="geometry"/>
                </mxCell>
                <mxCell id="48" value="" style="edgeStyle=none;html=1;" edge="1" parent="1" source="49" target="51">
                    <mxGeometry relative="1" as="geometry"/>
                </mxCell>
                <mxCell id="49" value="CSS con agrupación" style="whiteSpace=wrap;html=1;" vertex="1" parent="1">
                    <mxGeometry x="1390" y="1430" width="120" height="60" as="geometry"/>
                </mxCell>
                <mxCell id="50" value="&lt;div&gt;&lt;div&gt;&lt;div&gt;.read {&lt;/div&gt;&lt;div&gt;&amp;nbsp; color: white;&lt;/div&gt;&lt;div&gt;&amp;nbsp; background-color: black;&lt;/div&gt;&lt;div&gt;&amp;nbsp; /* several unique declarations */&lt;/div&gt;&lt;div&gt;}&lt;/div&gt;&lt;div&gt;&lt;br&gt;&lt;/div&gt;&lt;div&gt;.unread {&lt;/div&gt;&lt;div&gt;&amp;nbsp; color: white;&lt;/div&gt;&lt;div&gt;&amp;nbsp; background-color: black;&lt;/div&gt;&lt;div&gt;&amp;nbsp; /* several unique declarations */&lt;/div&gt;&lt;div&gt;}&lt;/div&gt;&lt;/div&gt;&lt;/div&gt;&lt;div&gt;&lt;br&gt;&lt;/div&gt;" style="whiteSpace=wrap;html=1;" vertex="1" parent="1">
                    <mxGeometry x="975" y="1530" width="250" height="180" as="geometry"/>
                </mxCell>
                <mxCell id="51" value=".read,&#10;.unread {&#10;  color: white;&#10;  background-color: black;&#10;}&#10;&#10;&#10;.read {&#10;  /* several unique declarations */&#10;}&#10;&#10;&#10;.unread {&#10;  /* several unique declarations */&#10;}" style="whiteSpace=wrap;html=1;" vertex="1" parent="1">
                    <mxGeometry x="1260" y="1530" width="390" height="240" as="geometry"/>
                </mxCell>
                <mxCell id="63" style="edgeStyle=none;html=1;entryX=0;entryY=0.5;entryDx=0;entryDy=0;" edge="1" parent="1" source="54" target="58">
                    <mxGeometry relative="1" as="geometry"/>
                </mxCell>
                <mxCell id="54" value="Encadenamiento de selectores" style="whiteSpace=wrap;html=1;" vertex="1" parent="1">
                    <mxGeometry x="800" y="1920" width="120" height="60" as="geometry"/>
                </mxCell>
                <mxCell id="56" value="" style="edgeStyle=none;html=1;" edge="1" parent="1" source="58" target="60">
                    <mxGeometry relative="1" as="geometry"/>
                </mxCell>
                <mxCell id="57" value="" style="edgeStyle=none;html=1;" edge="1" parent="1" source="58" target="61">
                    <mxGeometry relative="1" as="geometry"/>
                </mxCell>
                <mxCell id="58" value="HTML" style="whiteSpace=wrap;html=1;" vertex="1" parent="1">
                    <mxGeometry x="1025" y="1920" width="120" height="60" as="geometry"/>
                </mxCell>
                <mxCell id="59" value="" style="edgeStyle=none;html=1;" edge="1" parent="1" source="60" target="62">
                    <mxGeometry relative="1" as="geometry"/>
                </mxCell>
                <mxCell id="67" style="edgeStyle=none;html=1;entryX=0;entryY=0.5;entryDx=0;entryDy=0;" edge="1" parent="1" source="60" target="65">
                    <mxGeometry relative="1" as="geometry"/>
                </mxCell>
                <mxCell id="60" value="CSS" style="whiteSpace=wrap;html=1;" vertex="1" parent="1">
                    <mxGeometry x="1325" y="1920" width="120" height="60" as="geometry"/>
                </mxCell>
                <mxCell id="61" value="&lt;div&gt;&lt;div&gt;&lt;div&gt;&lt;div&gt;&amp;lt;div&amp;gt;&lt;/div&gt;&lt;div&gt;&amp;nbsp; &amp;lt;div class=&quot;subsection header&quot;&amp;gt;Latest Posts&amp;lt;/div&amp;gt;&lt;/div&gt;&lt;div&gt;&amp;nbsp; &amp;lt;p class=&quot;subsection preview&quot;&amp;gt;This is where a preview for a post might go.&amp;lt;/p&amp;gt;&lt;/div&gt;&lt;div&gt;&amp;lt;/div&amp;gt;&lt;/div&gt;&lt;/div&gt;&lt;/div&gt;&lt;/div&gt;&lt;div&gt;&lt;br&gt;&lt;/div&gt;" style="whiteSpace=wrap;html=1;" vertex="1" parent="1">
                    <mxGeometry x="975" y="2010" width="220" height="120" as="geometry"/>
                </mxCell>
                <mxCell id="62" value="&lt;div&gt;&lt;div&gt;&lt;div&gt;&lt;div&gt;.subsection.header {&lt;/div&gt;&lt;div&gt;&amp;nbsp; color: red;&lt;/div&gt;&lt;div&gt;}&lt;/div&gt;&lt;/div&gt;&lt;/div&gt;&lt;/div&gt;&lt;div&gt;&lt;br&gt;&lt;/div&gt;" style="whiteSpace=wrap;html=1;" vertex="1" parent="1">
                    <mxGeometry x="1295" y="2010" width="180" height="110" as="geometry"/>
                </mxCell>
                <mxCell id="64" value="" style="edgeStyle=none;html=1;" edge="1" parent="1" source="65" target="66">
                    <mxGeometry relative="1" as="geometry"/>
                </mxCell>
                <mxCell id="65" value="CSS" style="whiteSpace=wrap;html=1;" vertex="1" parent="1">
                    <mxGeometry x="1560" y="1920" width="120" height="60" as="geometry"/>
                </mxCell>
                <mxCell id="66" value="&lt;div&gt;&lt;div&gt;&lt;div&gt;&lt;div&gt;&lt;div&gt;.subsection.header {&lt;/div&gt;&lt;div&gt;&amp;nbsp; color: red;&lt;/div&gt;&lt;div&gt;}&lt;/div&gt;&lt;div&gt;&lt;br&gt;&lt;/div&gt;&lt;div&gt;.subsection#preview {&lt;/div&gt;&lt;div&gt;&amp;nbsp; color: blue;&lt;/div&gt;&lt;div&gt;}&lt;/div&gt;&lt;/div&gt;&lt;/div&gt;&lt;/div&gt;&lt;/div&gt;&lt;div&gt;&lt;br&gt;&lt;/div&gt;" style="whiteSpace=wrap;html=1;" vertex="1" parent="1">
                    <mxGeometry x="1530" y="2010" width="180" height="120" as="geometry"/>
                </mxCell>
                <mxCell id="77" style="edgeStyle=none;html=1;entryX=0;entryY=0.5;entryDx=0;entryDy=0;" edge="1" parent="1" source="68" target="72">
                    <mxGeometry relative="1" as="geometry"/>
                </mxCell>
                <mxCell id="68" value="Selectores&amp;nbsp; decendientes" style="whiteSpace=wrap;html=1;" vertex="1" parent="1">
                    <mxGeometry x="800" y="2320" width="120" height="60" as="geometry"/>
                </mxCell>
                <mxCell id="70" value="" style="edgeStyle=none;html=1;" edge="1" parent="1" source="72" target="74">
                    <mxGeometry relative="1" as="geometry"/>
                </mxCell>
                <mxCell id="71" value="" style="edgeStyle=none;html=1;" edge="1" parent="1" source="72" target="75">
                    <mxGeometry relative="1" as="geometry"/>
                </mxCell>
                <mxCell id="72" value="HTML" style="whiteSpace=wrap;html=1;" vertex="1" parent="1">
                    <mxGeometry x="1030" y="2320" width="120" height="60" as="geometry"/>
                </mxCell>
                <mxCell id="73" value="" style="edgeStyle=none;html=1;" edge="1" parent="1" source="74" target="76">
                    <mxGeometry relative="1" as="geometry"/>
                </mxCell>
                <mxCell id="74" value="CSS" style="whiteSpace=wrap;html=1;" vertex="1" parent="1">
                    <mxGeometry x="1330" y="2320" width="120" height="60" as="geometry"/>
                </mxCell>
                <mxCell id="75" value="&lt;div&gt;&lt;div&gt;&lt;div&gt;&lt;div&gt;&lt;div&gt;&amp;lt;!-- index.html --&amp;gt;&lt;/div&gt;&lt;div&gt;&lt;br&gt;&lt;/div&gt;&lt;div&gt;&amp;lt;div class=&quot;ancestor&quot;&amp;gt;&lt;/div&gt;&lt;div&gt;&amp;nbsp; &amp;lt;!-- A --&amp;gt;&lt;/div&gt;&lt;div&gt;&amp;nbsp; &amp;lt;div class=&quot;contents&quot;&amp;gt;&lt;/div&gt;&lt;div&gt;&amp;nbsp; &amp;nbsp; &amp;lt;!-- B --&amp;gt;&lt;/div&gt;&lt;div&gt;&amp;nbsp; &amp;nbsp; &amp;lt;div class=&quot;contents&quot;&amp;gt;&amp;lt;!-- C --&amp;gt;&amp;lt;/div&amp;gt;&lt;/div&gt;&lt;div&gt;&amp;nbsp; &amp;lt;/div&amp;gt;&lt;/div&gt;&lt;div&gt;&amp;lt;/div&amp;gt;&lt;/div&gt;&lt;div&gt;&lt;br&gt;&lt;/div&gt;&lt;div&gt;&amp;lt;div class=&quot;contents&quot;&amp;gt;&amp;lt;!-- D --&amp;gt;&amp;lt;/div&amp;gt;&lt;/div&gt;&lt;/div&gt;&lt;/div&gt;&lt;/div&gt;&lt;/div&gt;&lt;div&gt;&lt;br&gt;&lt;/div&gt;" style="whiteSpace=wrap;html=1;" vertex="1" parent="1">
                    <mxGeometry x="960" y="2420" width="260" height="200" as="geometry"/>
                </mxCell>
                <mxCell id="76" value="&lt;div&gt;&lt;div&gt;&lt;div&gt;&lt;div&gt;&lt;div&gt;/* styles.css */&lt;/div&gt;&lt;div&gt;&lt;br&gt;&lt;/div&gt;&lt;div&gt;.ancestor .contents {&lt;/div&gt;&lt;div&gt;&amp;nbsp; /* some declarations */&lt;/div&gt;&lt;div&gt;}&lt;/div&gt;&lt;/div&gt;&lt;/div&gt;&lt;/div&gt;&lt;/div&gt;&lt;div&gt;&lt;br&gt;&lt;/div&gt;" style="whiteSpace=wrap;html=1;" vertex="1" parent="1">
                    <mxGeometry x="1300" y="2410" width="180" height="110" as="geometry"/>
                </mxCell>
                <mxCell id="87" style="edgeStyle=none;html=1;entryX=0;entryY=0.5;entryDx=0;entryDy=0;" edge="1" parent="1" source="78" target="80">
                    <mxGeometry relative="1" as="geometry">
                        <Array as="points">
                            <mxPoint x="-410" y="520"/>
                        </Array>
                    </mxGeometry>
                </mxCell>
                <mxCell id="88" style="edgeStyle=none;html=1;entryX=-0.003;entryY=0.537;entryDx=0;entryDy=0;entryPerimeter=0;" edge="1" parent="1" source="78" target="82">
                    <mxGeometry relative="1" as="geometry">
                        <Array as="points">
                            <mxPoint x="-410" y="926"/>
                        </Array>
                    </mxGeometry>
                </mxCell>
                <mxCell id="89" style="edgeStyle=none;html=1;entryX=0;entryY=0.5;entryDx=0;entryDy=0;" edge="1" parent="1" source="78" target="83">
                    <mxGeometry relative="1" as="geometry">
                        <Array as="points">
                            <mxPoint x="-410" y="1235"/>
                        </Array>
                    </mxGeometry>
                </mxCell>
                <mxCell id="90" style="edgeStyle=none;html=1;entryX=-0.009;entryY=0.613;entryDx=0;entryDy=0;entryPerimeter=0;" edge="1" parent="1" source="78" target="84">
                    <mxGeometry relative="1" as="geometry">
                        <Array as="points">
                            <mxPoint x="-410" y="1437"/>
                        </Array>
                    </mxGeometry>
                </mxCell>
                <mxCell id="91" style="edgeStyle=none;html=1;entryX=0;entryY=0.5;entryDx=0;entryDy=0;" edge="1" parent="1" source="78" target="85">
                    <mxGeometry relative="1" as="geometry">
                        <Array as="points">
                            <mxPoint x="-410" y="1610"/>
                        </Array>
                    </mxGeometry>
                </mxCell>
                <mxCell id="92" style="edgeStyle=none;html=1;entryX=0;entryY=0.5;entryDx=0;entryDy=0;" edge="1" parent="1" source="78" target="86">
                    <mxGeometry relative="1" as="geometry">
                        <Array as="points">
                            <mxPoint x="-410" y="1815"/>
                        </Array>
                    </mxGeometry>
                </mxCell>
                <mxCell id="78" value="Propiedades" style="whiteSpace=wrap;html=1;" vertex="1" parent="1">
                    <mxGeometry x="-470" y="390" width="120" height="60" as="geometry"/>
                </mxCell>
                <mxCell id="80" value="Color: Etablece color de texto." style="whiteSpace=wrap;html=1;" vertex="1" parent="1">
                    <mxGeometry x="-290" y="490" width="300" height="60" as="geometry"/>
                </mxCell>
                <mxCell id="81" value="&lt;code style=&quot;border: 0px solid rgb(229, 231, 235); box-sizing: border-box; --tw-border-spacing-x: 0; --tw-border-spacing-y: 0; --tw-translate-x: 0; --tw-translate-y: 0; --tw-rotate: 0; --tw-skew-x: 0; --tw-skew-y: 0; --tw-scale-x: 1; --tw-scale-y: 1; --tw-pan-x: ; --tw-pan-y: ; --tw-pinch-zoom: ; --tw-scroll-snap-strictness: proximity; --tw-gradient-from-position: ; --tw-gradient-via-position: ; --tw-gradient-to-position: ; --tw-ordinal: ; --tw-slashed-zero: ; --tw-numeric-figure: ; --tw-numeric-spacing: ; --tw-numeric-fraction: ; --tw-ring-inset: ; --tw-ring-offset-width: 0px; --tw-ring-offset-color: #fff; --tw-ring-color: rgba(59,130,246,.5); --tw-ring-offset-shadow: 0 0 #0000; --tw-ring-shadow: 0 0 #0000; --tw-shadow: 0 0 #0000; --tw-shadow-colored: 0 0 #0000; --tw-blur: ; --tw-brightness: ; --tw-contrast: ; --tw-grayscale: ; --tw-hue-rotate: ; --tw-invert: ; --tw-saturate: ; --tw-sepia: ; --tw-drop-shadow: ; --tw-backdrop-blur: ; --tw-backdrop-brightness: ; --tw-backdrop-contrast: ; --tw-backdrop-grayscale: ; --tw-backdrop-hue-rotate: ; --tw-backdrop-invert: ; --tw-backdrop-opacity: ; --tw-backdrop-saturate: ; --tw-backdrop-sepia: ; font-family: ui-monospace, SFMono-Regular, Menlo, Monaco, Consolas, &amp;quot;Liberation Mono&amp;quot;, &amp;quot;Courier New&amp;quot;, monospace; font-feature-settings: normal; font-size: 0.875em; font-variation-settings: normal; border-radius: 0.375rem; --tw-bg-opacity: 1; background-color: rgba(55, 65, 81, 0.4); padding: 0.25rem; text-align: start;&quot;&gt;background-color&lt;/code&gt;&lt;font style=&quot;border: 0px solid rgb(229, 231, 235); box-sizing: border-box; --tw-border-spacing-x: 0; --tw-border-spacing-y: 0; --tw-translate-x: 0; --tw-translate-y: 0; --tw-rotate: 0; --tw-skew-x: 0; --tw-skew-y: 0; --tw-scale-x: 1; --tw-scale-y: 1; --tw-pan-x: ; --tw-pan-y: ; --tw-pinch-zoom: ; --tw-scroll-snap-strictness: proximity; --tw-gradient-from-position: ; --tw-gradient-via-position: ; --tw-gradient-to-position: ; --tw-ordinal: ; --tw-slashed-zero: ; --tw-numeric-figure: ; --tw-numeric-spacing: ; --tw-numeric-fraction: ; --tw-ring-inset: ; --tw-ring-offset-width: 0px; --tw-ring-offset-color: #fff; --tw-ring-color: rgba(59,130,246,.5); --tw-ring-offset-shadow: 0 0 #0000; --tw-ring-shadow: 0 0 #0000; --tw-shadow: 0 0 #0000; --tw-shadow-colored: 0 0 #0000; --tw-blur: ; --tw-brightness: ; --tw-contrast: ; --tw-grayscale: ; --tw-hue-rotate: ; --tw-invert: ; --tw-saturate: ; --tw-sepia: ; --tw-drop-shadow: ; --tw-backdrop-blur: ; --tw-backdrop-brightness: ; --tw-backdrop-contrast: ; --tw-backdrop-grayscale: ; --tw-backdrop-hue-rotate: ; --tw-backdrop-invert: ; --tw-backdrop-opacity: ; --tw-backdrop-saturate: ; --tw-backdrop-sepia: ; color: rgb(209, 213, 219); font-family: Inter, &amp;quot;Helvetica Neue&amp;quot;, Helvetica, Arial, sans-serif; font-size: 16px; text-align: start; background-color: rgb(17, 24, 39); vertical-align: inherit;&quot;&gt;&lt;font style=&quot;border: 0px solid rgb(229, 231, 235); box-sizing: border-box; --tw-border-spacing-x: 0; --tw-border-spacing-y: 0; --tw-translate-x: 0; --tw-translate-y: 0; --tw-rotate: 0; --tw-skew-x: 0; --tw-skew-y: 0; --tw-scale-x: 1; --tw-scale-y: 1; --tw-pan-x: ; --tw-pan-y: ; --tw-pinch-zoom: ; --tw-scroll-snap-strictness: proximity; --tw-gradient-from-position: ; --tw-gradient-via-position: ; --tw-gradient-to-position: ; --tw-ordinal: ; --tw-slashed-zero: ; --tw-numeric-figure: ; --tw-numeric-spacing: ; --tw-numeric-fraction: ; --tw-ring-inset: ; --tw-ring-offset-width: 0px; --tw-ring-offset-color: #fff; --tw-ring-color: rgba(59,130,246,.5); --tw-ring-offset-shadow: 0 0 #0000; --tw-ring-shadow: 0 0 #0000; --tw-shadow: 0 0 #0000; --tw-shadow-colored: 0 0 #0000; --tw-blur: ; --tw-brightness: ; --tw-contrast: ; --tw-grayscale: ; --tw-hue-rotate: ; --tw-invert: ; --tw-saturate: ; --tw-sepia: ; --tw-drop-shadow: ; --tw-backdrop-blur: ; --tw-backdrop-brightness: ; --tw-backdrop-contrast: ; --tw-backdrop-grayscale: ; --tw-backdrop-hue-rotate: ; --tw-backdrop-invert: ; --tw-backdrop-opacity: ; --tw-backdrop-saturate: ; --tw-backdrop-sepia: ; vertical-align: inherit;&quot; class=&quot;&quot;&gt;establece, bueno, el color de fondo de un elemento.&lt;/font&gt;&lt;/font&gt;" style="whiteSpace=wrap;html=1;" vertex="1" parent="1">
                    <mxGeometry x="-290" y="630" width="300" height="60" as="geometry"/>
                </mxCell>
                <mxCell id="82" value="&lt;div&gt;p {&lt;/div&gt;&lt;div&gt;&amp;nbsp; /* hex example: */&lt;/div&gt;&lt;div&gt;&amp;nbsp; color: #1100ff;&lt;/div&gt;&lt;div&gt;}&lt;/div&gt;&lt;div&gt;&lt;br&gt;&lt;/div&gt;&lt;div&gt;p {&lt;/div&gt;&lt;div&gt;&amp;nbsp; /* rgb example: */&lt;/div&gt;&lt;div&gt;&amp;nbsp; color: rgb(100, 0, 127);&lt;/div&gt;&lt;div&gt;}&lt;/div&gt;&lt;div&gt;&lt;br&gt;&lt;/div&gt;&lt;div&gt;p {&lt;/div&gt;&lt;div&gt;&amp;nbsp; /* hsl example: */&lt;/div&gt;&lt;div&gt;&amp;nbsp; color: hsl(15, 82%, 56%);&lt;/div&gt;&lt;div&gt;}&lt;/div&gt;&lt;div&gt;&lt;br&gt;&lt;/div&gt;" style="whiteSpace=wrap;html=1;" vertex="1" parent="1">
                    <mxGeometry x="-290" y="760" width="400" height="310" as="geometry"/>
                </mxCell>
                <mxCell id="83" value="&lt;code style=&quot;border: 0px solid rgb(229, 231, 235); box-sizing: border-box; --tw-border-spacing-x: 0; --tw-border-spacing-y: 0; --tw-translate-x: 0; --tw-translate-y: 0; --tw-rotate: 0; --tw-skew-x: 0; --tw-skew-y: 0; --tw-scale-x: 1; --tw-scale-y: 1; --tw-pan-x: ; --tw-pan-y: ; --tw-pinch-zoom: ; --tw-scroll-snap-strictness: proximity; --tw-gradient-from-position: ; --tw-gradient-via-position: ; --tw-gradient-to-position: ; --tw-ordinal: ; --tw-slashed-zero: ; --tw-numeric-figure: ; --tw-numeric-spacing: ; --tw-numeric-fraction: ; --tw-ring-inset: ; --tw-ring-offset-width: 0px; --tw-ring-offset-color: #fff; --tw-ring-color: rgba(59,130,246,.5); --tw-ring-offset-shadow: 0 0 #0000; --tw-ring-shadow: 0 0 #0000; --tw-shadow: 0 0 #0000; --tw-shadow-colored: 0 0 #0000; --tw-blur: ; --tw-brightness: ; --tw-contrast: ; --tw-grayscale: ; --tw-hue-rotate: ; --tw-invert: ; --tw-saturate: ; --tw-sepia: ; --tw-drop-shadow: ; --tw-backdrop-blur: ; --tw-backdrop-brightness: ; --tw-backdrop-contrast: ; --tw-backdrop-grayscale: ; --tw-backdrop-hue-rotate: ; --tw-backdrop-invert: ; --tw-backdrop-opacity: ; --tw-backdrop-saturate: ; --tw-backdrop-sepia: ; font-family: ui-monospace, SFMono-Regular, Menlo, Monaco, Consolas, &amp;quot;Liberation Mono&amp;quot;, &amp;quot;Courier New&amp;quot;, monospace; font-feature-settings: normal; font-size: 0.875em; font-variation-settings: normal; border-radius: 0.375rem; --tw-bg-opacity: 1; background-color: rgba(55, 65, 81, 0.4); padding: 0.25rem; text-align: start;&quot;&gt;font-family&lt;/code&gt;&lt;font style=&quot;border: 0px solid rgb(229, 231, 235); box-sizing: border-box; --tw-border-spacing-x: 0; --tw-border-spacing-y: 0; --tw-translate-x: 0; --tw-translate-y: 0; --tw-rotate: 0; --tw-skew-x: 0; --tw-skew-y: 0; --tw-scale-x: 1; --tw-scale-y: 1; --tw-pan-x: ; --tw-pan-y: ; --tw-pinch-zoom: ; --tw-scroll-snap-strictness: proximity; --tw-gradient-from-position: ; --tw-gradient-via-position: ; --tw-gradient-to-position: ; --tw-ordinal: ; --tw-slashed-zero: ; --tw-numeric-figure: ; --tw-numeric-spacing: ; --tw-numeric-fraction: ; --tw-ring-inset: ; --tw-ring-offset-width: 0px; --tw-ring-offset-color: #fff; --tw-ring-color: rgba(59,130,246,.5); --tw-ring-offset-shadow: 0 0 #0000; --tw-ring-shadow: 0 0 #0000; --tw-shadow: 0 0 #0000; --tw-shadow-colored: 0 0 #0000; --tw-blur: ; --tw-brightness: ; --tw-contrast: ; --tw-grayscale: ; --tw-hue-rotate: ; --tw-invert: ; --tw-saturate: ; --tw-sepia: ; --tw-drop-shadow: ; --tw-backdrop-blur: ; --tw-backdrop-brightness: ; --tw-backdrop-contrast: ; --tw-backdrop-grayscale: ; --tw-backdrop-hue-rotate: ; --tw-backdrop-invert: ; --tw-backdrop-opacity: ; --tw-backdrop-saturate: ; --tw-backdrop-sepia: ; color: rgb(209, 213, 219); font-family: Inter, &amp;quot;Helvetica Neue&amp;quot;, Helvetica, Arial, sans-serif; font-size: 16px; text-align: start; background-color: rgb(17, 24, 39); vertical-align: inherit;&quot;&gt;&lt;font style=&quot;border: 0px solid rgb(229, 231, 235); box-sizing: border-box; --tw-border-spacing-x: 0; --tw-border-spacing-y: 0; --tw-translate-x: 0; --tw-translate-y: 0; --tw-rotate: 0; --tw-skew-x: 0; --tw-skew-y: 0; --tw-scale-x: 1; --tw-scale-y: 1; --tw-pan-x: ; --tw-pan-y: ; --tw-pinch-zoom: ; --tw-scroll-snap-strictness: proximity; --tw-gradient-from-position: ; --tw-gradient-via-position: ; --tw-gradient-to-position: ; --tw-ordinal: ; --tw-slashed-zero: ; --tw-numeric-figure: ; --tw-numeric-spacing: ; --tw-numeric-fraction: ; --tw-ring-inset: ; --tw-ring-offset-width: 0px; --tw-ring-offset-color: #fff; --tw-ring-color: rgba(59,130,246,.5); --tw-ring-offset-shadow: 0 0 #0000; --tw-ring-shadow: 0 0 #0000; --tw-shadow: 0 0 #0000; --tw-shadow-colored: 0 0 #0000; --tw-blur: ; --tw-brightness: ; --tw-contrast: ; --tw-grayscale: ; --tw-hue-rotate: ; --tw-invert: ; --tw-saturate: ; --tw-sepia: ; --tw-drop-shadow: ; --tw-backdrop-blur: ; --tw-backdrop-brightness: ; --tw-backdrop-contrast: ; --tw-backdrop-grayscale: ; --tw-backdrop-hue-rotate: ; --tw-backdrop-invert: ; --tw-backdrop-opacity: ; --tw-backdrop-saturate: ; --tw-backdrop-sepia: ; vertical-align: inherit;&quot; class=&quot;&quot;&gt;puede ser un valor único o una lista de valores separados por comas que determinan qué fuente utiliza un elemento. Cada fuente se clasificará en una de dos categorías: un &quot;nombre de familia de fuentes&quot;&amp;nbsp;&lt;/font&gt;&lt;/font&gt;&lt;code style=&quot;border: 0px solid rgb(229, 231, 235); box-sizing: border-box; --tw-border-spacing-x: 0; --tw-border-spacing-y: 0; --tw-translate-x: 0; --tw-translate-y: 0; --tw-rotate: 0; --tw-skew-x: 0; --tw-skew-y: 0; --tw-scale-x: 1; --tw-scale-y: 1; --tw-pan-x: ; --tw-pan-y: ; --tw-pinch-zoom: ; --tw-scroll-snap-strictness: proximity; --tw-gradient-from-position: ; --tw-gradient-via-position: ; --tw-gradient-to-position: ; --tw-ordinal: ; --tw-slashed-zero: ; --tw-numeric-figure: ; --tw-numeric-spacing: ; --tw-numeric-fraction: ; --tw-ring-inset: ; --tw-ring-offset-width: 0px; --tw-ring-offset-color: #fff; --tw-ring-color: rgba(59,130,246,.5); --tw-ring-offset-shadow: 0 0 #0000; --tw-ring-shadow: 0 0 #0000; --tw-shadow: 0 0 #0000; --tw-shadow-colored: 0 0 #0000; --tw-blur: ; --tw-brightness: ; --tw-contrast: ; --tw-grayscale: ; --tw-hue-rotate: ; --tw-invert: ; --tw-saturate: ; --tw-sepia: ; --tw-drop-shadow: ; --tw-backdrop-blur: ; --tw-backdrop-brightness: ; --tw-backdrop-contrast: ; --tw-backdrop-grayscale: ; --tw-backdrop-hue-rotate: ; --tw-backdrop-invert: ; --tw-backdrop-opacity: ; --tw-backdrop-saturate: ; --tw-backdrop-sepia: ; font-family: ui-monospace, SFMono-Regular, Menlo, Monaco, Consolas, &amp;quot;Liberation Mono&amp;quot;, &amp;quot;Courier New&amp;quot;, monospace; font-feature-settings: normal; font-size: 0.875em; font-variation-settings: normal; border-radius: 0.375rem; --tw-bg-opacity: 1; background-color: rgba(55, 65, 81, 0.4); padding: 0.25rem; text-align: start;&quot;&gt;&quot;Times New Roman&quot;&lt;/code&gt;&lt;font style=&quot;border: 0px solid rgb(229, 231, 235); box-sizing: border-box; --tw-border-spacing-x: 0; --tw-border-spacing-y: 0; --tw-translate-x: 0; --tw-translate-y: 0; --tw-rotate: 0; --tw-skew-x: 0; --tw-skew-y: 0; --tw-scale-x: 1; --tw-scale-y: 1; --tw-pan-x: ; --tw-pan-y: ; --tw-pinch-zoom: ; --tw-scroll-snap-strictness: proximity; --tw-gradient-from-position: ; --tw-gradient-via-position: ; --tw-gradient-to-position: ; --tw-ordinal: ; --tw-slashed-zero: ; --tw-numeric-figure: ; --tw-numeric-spacing: ; --tw-numeric-fraction: ; --tw-ring-inset: ; --tw-ring-offset-width: 0px; --tw-ring-offset-color: #fff; --tw-ring-color: rgba(59,130,246,.5); --tw-ring-offset-shadow: 0 0 #0000; --tw-ring-shadow: 0 0 #0000; --tw-shadow: 0 0 #0000; --tw-shadow-colored: 0 0 #0000; --tw-blur: ; --tw-brightness: ; --tw-contrast: ; --tw-grayscale: ; --tw-hue-rotate: ; --tw-invert: ; --tw-saturate: ; --tw-sepia: ; --tw-drop-shadow: ; --tw-backdrop-blur: ; --tw-backdrop-brightness: ; --tw-backdrop-contrast: ; --tw-backdrop-grayscale: ; --tw-backdrop-hue-rotate: ; --tw-backdrop-invert: ; --tw-backdrop-opacity: ; --tw-backdrop-saturate: ; --tw-backdrop-sepia: ; color: rgb(209, 213, 219); font-family: Inter, &amp;quot;Helvetica Neue&amp;quot;, Helvetica, Arial, sans-serif; font-size: 16px; text-align: start; background-color: rgb(17, 24, 39); vertical-align: inherit;&quot;&gt;&lt;font style=&quot;border: 0px solid rgb(229, 231, 235); box-sizing: border-box; --tw-border-spacing-x: 0; --tw-border-spacing-y: 0; --tw-translate-x: 0; --tw-translate-y: 0; --tw-rotate: 0; --tw-skew-x: 0; --tw-skew-y: 0; --tw-scale-x: 1; --tw-scale-y: 1; --tw-pan-x: ; --tw-pan-y: ; --tw-pinch-zoom: ; --tw-scroll-snap-strictness: proximity; --tw-gradient-from-position: ; --tw-gradient-via-position: ; --tw-gradient-to-position: ; --tw-ordinal: ; --tw-slashed-zero: ; --tw-numeric-figure: ; --tw-numeric-spacing: ; --tw-numeric-fraction: ; --tw-ring-inset: ; --tw-ring-offset-width: 0px; --tw-ring-offset-color: #fff; --tw-ring-color: rgba(59,130,246,.5); --tw-ring-offset-shadow: 0 0 #0000; --tw-ring-shadow: 0 0 #0000; --tw-shadow: 0 0 #0000; --tw-shadow-colored: 0 0 #0000; --tw-blur: ; --tw-brightness: ; --tw-contrast: ; --tw-grayscale: ; --tw-hue-rotate: ; --tw-invert: ; --tw-saturate: ; --tw-sepia: ; --tw-drop-shadow: ; --tw-backdrop-blur: ; --tw-backdrop-brightness: ; --tw-backdrop-contrast: ; --tw-backdrop-grayscale: ; --tw-backdrop-hue-rotate: ; --tw-backdrop-invert: ; --tw-backdrop-opacity: ; --tw-backdrop-saturate: ; --tw-backdrop-sepia: ; vertical-align: inherit;&quot; class=&quot;&quot;&gt;(usamos comillas debido al espacio en blanco entre las palabras) o un &quot;nombre de familia genérico&quot;&amp;nbsp;&lt;/font&gt;&lt;/font&gt;&lt;code style=&quot;border: 0px solid rgb(229, 231, 235); box-sizing: border-box; --tw-border-spacing-x: 0; --tw-border-spacing-y: 0; --tw-translate-x: 0; --tw-translate-y: 0; --tw-rotate: 0; --tw-skew-x: 0; --tw-skew-y: 0; --tw-scale-x: 1; --tw-scale-y: 1; --tw-pan-x: ; --tw-pan-y: ; --tw-pinch-zoom: ; --tw-scroll-snap-strictness: proximity; --tw-gradient-from-position: ; --tw-gradient-via-position: ; --tw-gradient-to-position: ; --tw-ordinal: ; --tw-slashed-zero: ; --tw-numeric-figure: ; --tw-numeric-spacing: ; --tw-numeric-fraction: ; --tw-ring-inset: ; --tw-ring-offset-width: 0px; --tw-ring-offset-color: #fff; --tw-ring-color: rgba(59,130,246,.5); --tw-ring-offset-shadow: 0 0 #0000; --tw-ring-shadow: 0 0 #0000; --tw-shadow: 0 0 #0000; --tw-shadow-colored: 0 0 #0000; --tw-blur: ; --tw-brightness: ; --tw-contrast: ; --tw-grayscale: ; --tw-hue-rotate: ; --tw-invert: ; --tw-saturate: ; --tw-sepia: ; --tw-drop-shadow: ; --tw-backdrop-blur: ; --tw-backdrop-brightness: ; --tw-backdrop-contrast: ; --tw-backdrop-grayscale: ; --tw-backdrop-hue-rotate: ; --tw-backdrop-invert: ; --tw-backdrop-opacity: ; --tw-backdrop-saturate: ; --tw-backdrop-sepia: ; font-family: ui-monospace, SFMono-Regular, Menlo, Monaco, Consolas, &amp;quot;Liberation Mono&amp;quot;, &amp;quot;Courier New&amp;quot;, monospace; font-feature-settings: normal; font-size: 0.875em; font-variation-settings: normal; border-radius: 0.375rem; --tw-bg-opacity: 1; background-color: rgba(55, 65, 81, 0.4); padding: 0.25rem; text-align: start;&quot;&gt;serif&lt;/code&gt;&lt;font style=&quot;border: 0px solid rgb(229, 231, 235); box-sizing: border-box; --tw-border-spacing-x: 0; --tw-border-spacing-y: 0; --tw-translate-x: 0; --tw-translate-y: 0; --tw-rotate: 0; --tw-skew-x: 0; --tw-skew-y: 0; --tw-scale-x: 1; --tw-scale-y: 1; --tw-pan-x: ; --tw-pan-y: ; --tw-pinch-zoom: ; --tw-scroll-snap-strictness: proximity; --tw-gradient-from-position: ; --tw-gradient-via-position: ; --tw-gradient-to-position: ; --tw-ordinal: ; --tw-slashed-zero: ; --tw-numeric-figure: ; --tw-numeric-spacing: ; --tw-numeric-fraction: ; --tw-ring-inset: ; --tw-ring-offset-width: 0px; --tw-ring-offset-color: #fff; --tw-ring-color: rgba(59,130,246,.5); --tw-ring-offset-shadow: 0 0 #0000; --tw-ring-shadow: 0 0 #0000; --tw-shadow: 0 0 #0000; --tw-shadow-colored: 0 0 #0000; --tw-blur: ; --tw-brightness: ; --tw-contrast: ; --tw-grayscale: ; --tw-hue-rotate: ; --tw-invert: ; --tw-saturate: ; --tw-sepia: ; --tw-drop-shadow: ; --tw-backdrop-blur: ; --tw-backdrop-brightness: ; --tw-backdrop-contrast: ; --tw-backdrop-grayscale: ; --tw-backdrop-hue-rotate: ; --tw-backdrop-invert: ; --tw-backdrop-opacity: ; --tw-backdrop-saturate: ; --tw-backdrop-sepia: ; color: rgb(209, 213, 219); font-family: Inter, &amp;quot;Helvetica Neue&amp;quot;, Helvetica, Arial, sans-serif; font-size: 16px; text-align: start; background-color: rgb(17, 24, 39); vertical-align: inherit;&quot;&gt;&lt;font style=&quot;border: 0px solid rgb(229, 231, 235); box-sizing: border-box; --tw-border-spacing-x: 0; --tw-border-spacing-y: 0; --tw-translate-x: 0; --tw-translate-y: 0; --tw-rotate: 0; --tw-skew-x: 0; --tw-skew-y: 0; --tw-scale-x: 1; --tw-scale-y: 1; --tw-pan-x: ; --tw-pan-y: ; --tw-pinch-zoom: ; --tw-scroll-snap-strictness: proximity; --tw-gradient-from-position: ; --tw-gradient-via-position: ; --tw-gradient-to-position: ; --tw-ordinal: ; --tw-slashed-zero: ; --tw-numeric-figure: ; --tw-numeric-spacing: ; --tw-numeric-fraction: ; --tw-ring-inset: ; --tw-ring-offset-width: 0px; --tw-ring-offset-color: #fff; --tw-ring-color: rgba(59,130,246,.5); --tw-ring-offset-shadow: 0 0 #0000; --tw-ring-shadow: 0 0 #0000; --tw-shadow: 0 0 #0000; --tw-shadow-colored: 0 0 #0000; --tw-blur: ; --tw-brightness: ; --tw-contrast: ; --tw-grayscale: ; --tw-hue-rotate: ; --tw-invert: ; --tw-saturate: ; --tw-sepia: ; --tw-drop-shadow: ; --tw-backdrop-blur: ; --tw-backdrop-brightness: ; --tw-backdrop-contrast: ; --tw-backdrop-grayscale: ; --tw-backdrop-hue-rotate: ; --tw-backdrop-invert: ; --tw-backdrop-opacity: ; --tw-backdrop-saturate: ; --tw-backdrop-sepia: ; vertical-align: inherit;&quot; class=&quot;&quot;&gt;(los nombres de familias genéricos nunca usan comillas).&lt;/font&gt;&lt;/font&gt;" style="whiteSpace=wrap;html=1;" vertex="1" parent="1">
                    <mxGeometry x="-290" y="1170" width="510" height="130" as="geometry"/>
                </mxCell>
                <mxCell id="84" value="&lt;code style=&quot;border: 0px solid rgb(229, 231, 235); box-sizing: border-box; --tw-border-spacing-x: 0; --tw-border-spacing-y: 0; --tw-translate-x: 0; --tw-translate-y: 0; --tw-rotate: 0; --tw-skew-x: 0; --tw-skew-y: 0; --tw-scale-x: 1; --tw-scale-y: 1; --tw-pan-x: ; --tw-pan-y: ; --tw-pinch-zoom: ; --tw-scroll-snap-strictness: proximity; --tw-gradient-from-position: ; --tw-gradient-via-position: ; --tw-gradient-to-position: ; --tw-ordinal: ; --tw-slashed-zero: ; --tw-numeric-figure: ; --tw-numeric-spacing: ; --tw-numeric-fraction: ; --tw-ring-inset: ; --tw-ring-offset-width: 0px; --tw-ring-offset-color: #fff; --tw-ring-color: rgba(59,130,246,.5); --tw-ring-offset-shadow: 0 0 #0000; --tw-ring-shadow: 0 0 #0000; --tw-shadow: 0 0 #0000; --tw-shadow-colored: 0 0 #0000; --tw-blur: ; --tw-brightness: ; --tw-contrast: ; --tw-grayscale: ; --tw-hue-rotate: ; --tw-invert: ; --tw-saturate: ; --tw-sepia: ; --tw-drop-shadow: ; --tw-backdrop-blur: ; --tw-backdrop-brightness: ; --tw-backdrop-contrast: ; --tw-backdrop-grayscale: ; --tw-backdrop-hue-rotate: ; --tw-backdrop-invert: ; --tw-backdrop-opacity: ; --tw-backdrop-saturate: ; --tw-backdrop-sepia: ; font-family: ui-monospace, SFMono-Regular, Menlo, Monaco, Consolas, &amp;quot;Liberation Mono&amp;quot;, &amp;quot;Courier New&amp;quot;, monospace; font-feature-settings: normal; font-size: 0.875em; font-variation-settings: normal; border-radius: 0.375rem; --tw-bg-opacity: 1; background-color: rgba(55, 65, 81, 0.4); padding: 0.25rem; text-align: start;&quot;&gt;font-size&lt;/code&gt;&lt;font style=&quot;border: 0px solid rgb(229, 231, 235); box-sizing: border-box; --tw-border-spacing-x: 0; --tw-border-spacing-y: 0; --tw-translate-x: 0; --tw-translate-y: 0; --tw-rotate: 0; --tw-skew-x: 0; --tw-skew-y: 0; --tw-scale-x: 1; --tw-scale-y: 1; --tw-pan-x: ; --tw-pan-y: ; --tw-pinch-zoom: ; --tw-scroll-snap-strictness: proximity; --tw-gradient-from-position: ; --tw-gradient-via-position: ; --tw-gradient-to-position: ; --tw-ordinal: ; --tw-slashed-zero: ; --tw-numeric-figure: ; --tw-numeric-spacing: ; --tw-numeric-fraction: ; --tw-ring-inset: ; --tw-ring-offset-width: 0px; --tw-ring-offset-color: #fff; --tw-ring-color: rgba(59,130,246,.5); --tw-ring-offset-shadow: 0 0 #0000; --tw-ring-shadow: 0 0 #0000; --tw-shadow: 0 0 #0000; --tw-shadow-colored: 0 0 #0000; --tw-blur: ; --tw-brightness: ; --tw-contrast: ; --tw-grayscale: ; --tw-hue-rotate: ; --tw-invert: ; --tw-saturate: ; --tw-sepia: ; --tw-drop-shadow: ; --tw-backdrop-blur: ; --tw-backdrop-brightness: ; --tw-backdrop-contrast: ; --tw-backdrop-grayscale: ; --tw-backdrop-hue-rotate: ; --tw-backdrop-invert: ; --tw-backdrop-opacity: ; --tw-backdrop-saturate: ; --tw-backdrop-sepia: ; color: rgb(209, 213, 219); font-family: Inter, &amp;quot;Helvetica Neue&amp;quot;, Helvetica, Arial, sans-serif; font-size: 16px; text-align: start; background-color: rgb(17, 24, 39); vertical-align: inherit;&quot;&gt;&lt;font style=&quot;border: 0px solid rgb(229, 231, 235); box-sizing: border-box; --tw-border-spacing-x: 0; --tw-border-spacing-y: 0; --tw-translate-x: 0; --tw-translate-y: 0; --tw-rotate: 0; --tw-skew-x: 0; --tw-skew-y: 0; --tw-scale-x: 1; --tw-scale-y: 1; --tw-pan-x: ; --tw-pan-y: ; --tw-pinch-zoom: ; --tw-scroll-snap-strictness: proximity; --tw-gradient-from-position: ; --tw-gradient-via-position: ; --tw-gradient-to-position: ; --tw-ordinal: ; --tw-slashed-zero: ; --tw-numeric-figure: ; --tw-numeric-spacing: ; --tw-numeric-fraction: ; --tw-ring-inset: ; --tw-ring-offset-width: 0px; --tw-ring-offset-color: #fff; --tw-ring-color: rgba(59,130,246,.5); --tw-ring-offset-shadow: 0 0 #0000; --tw-ring-shadow: 0 0 #0000; --tw-shadow: 0 0 #0000; --tw-shadow-colored: 0 0 #0000; --tw-blur: ; --tw-brightness: ; --tw-contrast: ; --tw-grayscale: ; --tw-hue-rotate: ; --tw-invert: ; --tw-saturate: ; --tw-sepia: ; --tw-drop-shadow: ; --tw-backdrop-blur: ; --tw-backdrop-brightness: ; --tw-backdrop-contrast: ; --tw-backdrop-grayscale: ; --tw-backdrop-hue-rotate: ; --tw-backdrop-invert: ; --tw-backdrop-opacity: ; --tw-backdrop-saturate: ; --tw-backdrop-sepia: ; vertical-align: inherit;&quot; class=&quot;&quot;&gt;Como sugiere el nombre de la propiedad, establecerá el tamaño de la fuente. Al asignar un valor a esta propiedad, el valor no debe contener ningún espacio en blanco, por ejemplo,&amp;nbsp;&lt;/font&gt;&lt;/font&gt;&lt;code style=&quot;border: 0px solid rgb(229, 231, 235); box-sizing: border-box; --tw-border-spacing-x: 0; --tw-border-spacing-y: 0; --tw-translate-x: 0; --tw-translate-y: 0; --tw-rotate: 0; --tw-skew-x: 0; --tw-skew-y: 0; --tw-scale-x: 1; --tw-scale-y: 1; --tw-pan-x: ; --tw-pan-y: ; --tw-pinch-zoom: ; --tw-scroll-snap-strictness: proximity; --tw-gradient-from-position: ; --tw-gradient-via-position: ; --tw-gradient-to-position: ; --tw-ordinal: ; --tw-slashed-zero: ; --tw-numeric-figure: ; --tw-numeric-spacing: ; --tw-numeric-fraction: ; --tw-ring-inset: ; --tw-ring-offset-width: 0px; --tw-ring-offset-color: #fff; --tw-ring-color: rgba(59,130,246,.5); --tw-ring-offset-shadow: 0 0 #0000; --tw-ring-shadow: 0 0 #0000; --tw-shadow: 0 0 #0000; --tw-shadow-colored: 0 0 #0000; --tw-blur: ; --tw-brightness: ; --tw-contrast: ; --tw-grayscale: ; --tw-hue-rotate: ; --tw-invert: ; --tw-saturate: ; --tw-sepia: ; --tw-drop-shadow: ; --tw-backdrop-blur: ; --tw-backdrop-brightness: ; --tw-backdrop-contrast: ; --tw-backdrop-grayscale: ; --tw-backdrop-hue-rotate: ; --tw-backdrop-invert: ; --tw-backdrop-opacity: ; --tw-backdrop-saturate: ; --tw-backdrop-sepia: ; font-family: ui-monospace, SFMono-Regular, Menlo, Monaco, Consolas, &amp;quot;Liberation Mono&amp;quot;, &amp;quot;Courier New&amp;quot;, monospace; font-feature-settings: normal; font-size: 0.875em; font-variation-settings: normal; border-radius: 0.375rem; --tw-bg-opacity: 1; background-color: rgba(55, 65, 81, 0.4); padding: 0.25rem; text-align: start;&quot;&gt;font-size: 22px&lt;/code&gt;&lt;font style=&quot;border: 0px solid rgb(229, 231, 235); box-sizing: border-box; --tw-border-spacing-x: 0; --tw-border-spacing-y: 0; --tw-translate-x: 0; --tw-translate-y: 0; --tw-rotate: 0; --tw-skew-x: 0; --tw-skew-y: 0; --tw-scale-x: 1; --tw-scale-y: 1; --tw-pan-x: ; --tw-pan-y: ; --tw-pinch-zoom: ; --tw-scroll-snap-strictness: proximity; --tw-gradient-from-position: ; --tw-gradient-via-position: ; --tw-gradient-to-position: ; --tw-ordinal: ; --tw-slashed-zero: ; --tw-numeric-figure: ; --tw-numeric-spacing: ; --tw-numeric-fraction: ; --tw-ring-inset: ; --tw-ring-offset-width: 0px; --tw-ring-offset-color: #fff; --tw-ring-color: rgba(59,130,246,.5); --tw-ring-offset-shadow: 0 0 #0000; --tw-ring-shadow: 0 0 #0000; --tw-shadow: 0 0 #0000; --tw-shadow-colored: 0 0 #0000; --tw-blur: ; --tw-brightness: ; --tw-contrast: ; --tw-grayscale: ; --tw-hue-rotate: ; --tw-invert: ; --tw-saturate: ; --tw-sepia: ; --tw-drop-shadow: ; --tw-backdrop-blur: ; --tw-backdrop-brightness: ; --tw-backdrop-contrast: ; --tw-backdrop-grayscale: ; --tw-backdrop-hue-rotate: ; --tw-backdrop-invert: ; --tw-backdrop-opacity: ; --tw-backdrop-saturate: ; --tw-backdrop-sepia: ; color: rgb(209, 213, 219); font-family: Inter, &amp;quot;Helvetica Neue&amp;quot;, Helvetica, Arial, sans-serif; font-size: 16px; text-align: start; background-color: rgb(17, 24, 39); vertical-align: inherit;&quot;&gt;&lt;font style=&quot;border: 0px solid rgb(229, 231, 235); box-sizing: border-box; --tw-border-spacing-x: 0; --tw-border-spacing-y: 0; --tw-translate-x: 0; --tw-translate-y: 0; --tw-rotate: 0; --tw-skew-x: 0; --tw-skew-y: 0; --tw-scale-x: 1; --tw-scale-y: 1; --tw-pan-x: ; --tw-pan-y: ; --tw-pinch-zoom: ; --tw-scroll-snap-strictness: proximity; --tw-gradient-from-position: ; --tw-gradient-via-position: ; --tw-gradient-to-position: ; --tw-ordinal: ; --tw-slashed-zero: ; --tw-numeric-figure: ; --tw-numeric-spacing: ; --tw-numeric-fraction: ; --tw-ring-inset: ; --tw-ring-offset-width: 0px; --tw-ring-offset-color: #fff; --tw-ring-color: rgba(59,130,246,.5); --tw-ring-offset-shadow: 0 0 #0000; --tw-ring-shadow: 0 0 #0000; --tw-shadow: 0 0 #0000; --tw-shadow-colored: 0 0 #0000; --tw-blur: ; --tw-brightness: ; --tw-contrast: ; --tw-grayscale: ; --tw-hue-rotate: ; --tw-invert: ; --tw-saturate: ; --tw-sepia: ; --tw-drop-shadow: ; --tw-backdrop-blur: ; --tw-backdrop-brightness: ; --tw-backdrop-contrast: ; --tw-backdrop-grayscale: ; --tw-backdrop-hue-rotate: ; --tw-backdrop-invert: ; --tw-backdrop-opacity: ; --tw-backdrop-saturate: ; --tw-backdrop-sepia: ; vertical-align: inherit;&quot; class=&quot;&quot;&gt;no debe tener espacio entre “22” y “px”.&lt;/font&gt;&lt;/font&gt;" style="whiteSpace=wrap;html=1;" vertex="1" parent="1">
                    <mxGeometry x="-290" y="1370" width="470" height="110" as="geometry"/>
                </mxCell>
                <mxCell id="85" value="&lt;code style=&quot;border: 0px solid rgb(229, 231, 235); box-sizing: border-box; --tw-border-spacing-x: 0; --tw-border-spacing-y: 0; --tw-translate-x: 0; --tw-translate-y: 0; --tw-rotate: 0; --tw-skew-x: 0; --tw-skew-y: 0; --tw-scale-x: 1; --tw-scale-y: 1; --tw-pan-x: ; --tw-pan-y: ; --tw-pinch-zoom: ; --tw-scroll-snap-strictness: proximity; --tw-gradient-from-position: ; --tw-gradient-via-position: ; --tw-gradient-to-position: ; --tw-ordinal: ; --tw-slashed-zero: ; --tw-numeric-figure: ; --tw-numeric-spacing: ; --tw-numeric-fraction: ; --tw-ring-inset: ; --tw-ring-offset-width: 0px; --tw-ring-offset-color: #fff; --tw-ring-color: rgba(59,130,246,.5); --tw-ring-offset-shadow: 0 0 #0000; --tw-ring-shadow: 0 0 #0000; --tw-shadow: 0 0 #0000; --tw-shadow-colored: 0 0 #0000; --tw-blur: ; --tw-brightness: ; --tw-contrast: ; --tw-grayscale: ; --tw-hue-rotate: ; --tw-invert: ; --tw-saturate: ; --tw-sepia: ; --tw-drop-shadow: ; --tw-backdrop-blur: ; --tw-backdrop-brightness: ; --tw-backdrop-contrast: ; --tw-backdrop-grayscale: ; --tw-backdrop-hue-rotate: ; --tw-backdrop-invert: ; --tw-backdrop-opacity: ; --tw-backdrop-saturate: ; --tw-backdrop-sepia: ; font-family: ui-monospace, SFMono-Regular, Menlo, Monaco, Consolas, &amp;quot;Liberation Mono&amp;quot;, &amp;quot;Courier New&amp;quot;, monospace; font-feature-settings: normal; font-size: 0.875em; font-variation-settings: normal; border-radius: 0.375rem; --tw-bg-opacity: 1; background-color: rgba(55, 65, 81, 0.4); padding: 0.25rem; text-align: start;&quot;&gt;font-weight&lt;/code&gt;&lt;font style=&quot;border: 0px solid rgb(229, 231, 235); box-sizing: border-box; --tw-border-spacing-x: 0; --tw-border-spacing-y: 0; --tw-translate-x: 0; --tw-translate-y: 0; --tw-rotate: 0; --tw-skew-x: 0; --tw-skew-y: 0; --tw-scale-x: 1; --tw-scale-y: 1; --tw-pan-x: ; --tw-pan-y: ; --tw-pinch-zoom: ; --tw-scroll-snap-strictness: proximity; --tw-gradient-from-position: ; --tw-gradient-via-position: ; --tw-gradient-to-position: ; --tw-ordinal: ; --tw-slashed-zero: ; --tw-numeric-figure: ; --tw-numeric-spacing: ; --tw-numeric-fraction: ; --tw-ring-inset: ; --tw-ring-offset-width: 0px; --tw-ring-offset-color: #fff; --tw-ring-color: rgba(59,130,246,.5); --tw-ring-offset-shadow: 0 0 #0000; --tw-ring-shadow: 0 0 #0000; --tw-shadow: 0 0 #0000; --tw-shadow-colored: 0 0 #0000; --tw-blur: ; --tw-brightness: ; --tw-contrast: ; --tw-grayscale: ; --tw-hue-rotate: ; --tw-invert: ; --tw-saturate: ; --tw-sepia: ; --tw-drop-shadow: ; --tw-backdrop-blur: ; --tw-backdrop-brightness: ; --tw-backdrop-contrast: ; --tw-backdrop-grayscale: ; --tw-backdrop-hue-rotate: ; --tw-backdrop-invert: ; --tw-backdrop-opacity: ; --tw-backdrop-saturate: ; --tw-backdrop-sepia: ; color: rgb(209, 213, 219); font-family: Inter, &amp;quot;Helvetica Neue&amp;quot;, Helvetica, Arial, sans-serif; font-size: 16px; text-align: start; background-color: rgb(17, 24, 39); vertical-align: inherit;&quot;&gt;&lt;font style=&quot;border: 0px solid rgb(229, 231, 235); box-sizing: border-box; --tw-border-spacing-x: 0; --tw-border-spacing-y: 0; --tw-translate-x: 0; --tw-translate-y: 0; --tw-rotate: 0; --tw-skew-x: 0; --tw-skew-y: 0; --tw-scale-x: 1; --tw-scale-y: 1; --tw-pan-x: ; --tw-pan-y: ; --tw-pinch-zoom: ; --tw-scroll-snap-strictness: proximity; --tw-gradient-from-position: ; --tw-gradient-via-position: ; --tw-gradient-to-position: ; --tw-ordinal: ; --tw-slashed-zero: ; --tw-numeric-figure: ; --tw-numeric-spacing: ; --tw-numeric-fraction: ; --tw-ring-inset: ; --tw-ring-offset-width: 0px; --tw-ring-offset-color: #fff; --tw-ring-color: rgba(59,130,246,.5); --tw-ring-offset-shadow: 0 0 #0000; --tw-ring-shadow: 0 0 #0000; --tw-shadow: 0 0 #0000; --tw-shadow-colored: 0 0 #0000; --tw-blur: ; --tw-brightness: ; --tw-contrast: ; --tw-grayscale: ; --tw-hue-rotate: ; --tw-invert: ; --tw-saturate: ; --tw-sepia: ; --tw-drop-shadow: ; --tw-backdrop-blur: ; --tw-backdrop-brightness: ; --tw-backdrop-contrast: ; --tw-backdrop-grayscale: ; --tw-backdrop-hue-rotate: ; --tw-backdrop-invert: ; --tw-backdrop-opacity: ; --tw-backdrop-saturate: ; --tw-backdrop-sepia: ; vertical-align: inherit;&quot;&gt;Afecta la negrita del texto, siempre que la fuente admita el grosor especificado. Este valor puede ser una palabra clave, p. ej.&amp;nbsp;&lt;/font&gt;&lt;/font&gt;&lt;code style=&quot;border: 0px solid rgb(229, 231, 235); box-sizing: border-box; --tw-border-spacing-x: 0; --tw-border-spacing-y: 0; --tw-translate-x: 0; --tw-translate-y: 0; --tw-rotate: 0; --tw-skew-x: 0; --tw-skew-y: 0; --tw-scale-x: 1; --tw-scale-y: 1; --tw-pan-x: ; --tw-pan-y: ; --tw-pinch-zoom: ; --tw-scroll-snap-strictness: proximity; --tw-gradient-from-position: ; --tw-gradient-via-position: ; --tw-gradient-to-position: ; --tw-ordinal: ; --tw-slashed-zero: ; --tw-numeric-figure: ; --tw-numeric-spacing: ; --tw-numeric-fraction: ; --tw-ring-inset: ; --tw-ring-offset-width: 0px; --tw-ring-offset-color: #fff; --tw-ring-color: rgba(59,130,246,.5); --tw-ring-offset-shadow: 0 0 #0000; --tw-ring-shadow: 0 0 #0000; --tw-shadow: 0 0 #0000; --tw-shadow-colored: 0 0 #0000; --tw-blur: ; --tw-brightness: ; --tw-contrast: ; --tw-grayscale: ; --tw-hue-rotate: ; --tw-invert: ; --tw-saturate: ; --tw-sepia: ; --tw-drop-shadow: ; --tw-backdrop-blur: ; --tw-backdrop-brightness: ; --tw-backdrop-contrast: ; --tw-backdrop-grayscale: ; --tw-backdrop-hue-rotate: ; --tw-backdrop-invert: ; --tw-backdrop-opacity: ; --tw-backdrop-saturate: ; --tw-backdrop-sepia: ; font-family: ui-monospace, SFMono-Regular, Menlo, Monaco, Consolas, &amp;quot;Liberation Mono&amp;quot;, &amp;quot;Courier New&amp;quot;, monospace; font-feature-settings: normal; font-size: 0.875em; font-variation-settings: normal; border-radius: 0.375rem; --tw-bg-opacity: 1; background-color: rgba(55, 65, 81, 0.4); padding: 0.25rem; text-align: start;&quot;&gt;font-weight: bold&lt;/code&gt;&lt;font style=&quot;border: 0px solid rgb(229, 231, 235); box-sizing: border-box; --tw-border-spacing-x: 0; --tw-border-spacing-y: 0; --tw-translate-x: 0; --tw-translate-y: 0; --tw-rotate: 0; --tw-skew-x: 0; --tw-skew-y: 0; --tw-scale-x: 1; --tw-scale-y: 1; --tw-pan-x: ; --tw-pan-y: ; --tw-pinch-zoom: ; --tw-scroll-snap-strictness: proximity; --tw-gradient-from-position: ; --tw-gradient-via-position: ; --tw-gradient-to-position: ; --tw-ordinal: ; --tw-slashed-zero: ; --tw-numeric-figure: ; --tw-numeric-spacing: ; --tw-numeric-fraction: ; --tw-ring-inset: ; --tw-ring-offset-width: 0px; --tw-ring-offset-color: #fff; --tw-ring-color: rgba(59,130,246,.5); --tw-ring-offset-shadow: 0 0 #0000; --tw-ring-shadow: 0 0 #0000; --tw-shadow: 0 0 #0000; --tw-shadow-colored: 0 0 #0000; --tw-blur: ; --tw-brightness: ; --tw-contrast: ; --tw-grayscale: ; --tw-hue-rotate: ; --tw-invert: ; --tw-saturate: ; --tw-sepia: ; --tw-drop-shadow: ; --tw-backdrop-blur: ; --tw-backdrop-brightness: ; --tw-backdrop-contrast: ; --tw-backdrop-grayscale: ; --tw-backdrop-hue-rotate: ; --tw-backdrop-invert: ; --tw-backdrop-opacity: ; --tw-backdrop-saturate: ; --tw-backdrop-sepia: ; color: rgb(209, 213, 219); font-family: Inter, &amp;quot;Helvetica Neue&amp;quot;, Helvetica, Arial, sans-serif; font-size: 16px; text-align: start; background-color: rgb(17, 24, 39); vertical-align: inherit;&quot;&gt;&lt;font style=&quot;border: 0px solid rgb(229, 231, 235); box-sizing: border-box; --tw-border-spacing-x: 0; --tw-border-spacing-y: 0; --tw-translate-x: 0; --tw-translate-y: 0; --tw-rotate: 0; --tw-skew-x: 0; --tw-skew-y: 0; --tw-scale-x: 1; --tw-scale-y: 1; --tw-pan-x: ; --tw-pan-y: ; --tw-pinch-zoom: ; --tw-scroll-snap-strictness: proximity; --tw-gradient-from-position: ; --tw-gradient-via-position: ; --tw-gradient-to-position: ; --tw-ordinal: ; --tw-slashed-zero: ; --tw-numeric-figure: ; --tw-numeric-spacing: ; --tw-numeric-fraction: ; --tw-ring-inset: ; --tw-ring-offset-width: 0px; --tw-ring-offset-color: #fff; --tw-ring-color: rgba(59,130,246,.5); --tw-ring-offset-shadow: 0 0 #0000; --tw-ring-shadow: 0 0 #0000; --tw-shadow: 0 0 #0000; --tw-shadow-colored: 0 0 #0000; --tw-blur: ; --tw-brightness: ; --tw-contrast: ; --tw-grayscale: ; --tw-hue-rotate: ; --tw-invert: ; --tw-saturate: ; --tw-sepia: ; --tw-drop-shadow: ; --tw-backdrop-blur: ; --tw-backdrop-brightness: ; --tw-backdrop-contrast: ; --tw-backdrop-grayscale: ; --tw-backdrop-hue-rotate: ; --tw-backdrop-invert: ; --tw-backdrop-opacity: ; --tw-backdrop-saturate: ; --tw-backdrop-sepia: ; vertical-align: inherit;&quot;&gt;, o un número entre 1 y 1000, p. ej.&amp;nbsp;&lt;/font&gt;&lt;/font&gt;&lt;code style=&quot;border: 0px solid rgb(229, 231, 235); box-sizing: border-box; --tw-border-spacing-x: 0; --tw-border-spacing-y: 0; --tw-translate-x: 0; --tw-translate-y: 0; --tw-rotate: 0; --tw-skew-x: 0; --tw-skew-y: 0; --tw-scale-x: 1; --tw-scale-y: 1; --tw-pan-x: ; --tw-pan-y: ; --tw-pinch-zoom: ; --tw-scroll-snap-strictness: proximity; --tw-gradient-from-position: ; --tw-gradient-via-position: ; --tw-gradient-to-position: ; --tw-ordinal: ; --tw-slashed-zero: ; --tw-numeric-figure: ; --tw-numeric-spacing: ; --tw-numeric-fraction: ; --tw-ring-inset: ; --tw-ring-offset-width: 0px; --tw-ring-offset-color: #fff; --tw-ring-color: rgba(59,130,246,.5); --tw-ring-offset-shadow: 0 0 #0000; --tw-ring-shadow: 0 0 #0000; --tw-shadow: 0 0 #0000; --tw-shadow-colored: 0 0 #0000; --tw-blur: ; --tw-brightness: ; --tw-contrast: ; --tw-grayscale: ; --tw-hue-rotate: ; --tw-invert: ; --tw-saturate: ; --tw-sepia: ; --tw-drop-shadow: ; --tw-backdrop-blur: ; --tw-backdrop-brightness: ; --tw-backdrop-contrast: ; --tw-backdrop-grayscale: ; --tw-backdrop-hue-rotate: ; --tw-backdrop-invert: ; --tw-backdrop-opacity: ; --tw-backdrop-saturate: ; --tw-backdrop-sepia: ; font-family: ui-monospace, SFMono-Regular, Menlo, Monaco, Consolas, &amp;quot;Liberation Mono&amp;quot;, &amp;quot;Courier New&amp;quot;, monospace; font-feature-settings: normal; font-size: 0.875em; font-variation-settings: normal; border-radius: 0.375rem; --tw-bg-opacity: 1; background-color: rgba(55, 65, 81, 0.4); padding: 0.25rem; text-align: start;&quot;&gt;font-weight: 700&lt;/code&gt;&lt;font style=&quot;border: 0px solid rgb(229, 231, 235); box-sizing: border-box; --tw-border-spacing-x: 0; --tw-border-spacing-y: 0; --tw-translate-x: 0; --tw-translate-y: 0; --tw-rotate: 0; --tw-skew-x: 0; --tw-skew-y: 0; --tw-scale-x: 1; --tw-scale-y: 1; --tw-pan-x: ; --tw-pan-y: ; --tw-pinch-zoom: ; --tw-scroll-snap-strictness: proximity; --tw-gradient-from-position: ; --tw-gradient-via-position: ; --tw-gradient-to-position: ; --tw-ordinal: ; --tw-slashed-zero: ; --tw-numeric-figure: ; --tw-numeric-spacing: ; --tw-numeric-fraction: ; --tw-ring-inset: ; --tw-ring-offset-width: 0px; --tw-ring-offset-color: #fff; --tw-ring-color: rgba(59,130,246,.5); --tw-ring-offset-shadow: 0 0 #0000; --tw-ring-shadow: 0 0 #0000; --tw-shadow: 0 0 #0000; --tw-shadow-colored: 0 0 #0000; --tw-blur: ; --tw-brightness: ; --tw-contrast: ; --tw-grayscale: ; --tw-hue-rotate: ; --tw-invert: ; --tw-saturate: ; --tw-sepia: ; --tw-drop-shadow: ; --tw-backdrop-blur: ; --tw-backdrop-brightness: ; --tw-backdrop-contrast: ; --tw-backdrop-grayscale: ; --tw-backdrop-hue-rotate: ; --tw-backdrop-invert: ; --tw-backdrop-opacity: ; --tw-backdrop-saturate: ; --tw-backdrop-sepia: ; color: rgb(209, 213, 219); font-family: Inter, &amp;quot;Helvetica Neue&amp;quot;, Helvetica, Arial, sans-serif; font-size: 16px; text-align: start; background-color: rgb(17, 24, 39); vertical-align: inherit;&quot;&gt;&lt;font style=&quot;border: 0px solid rgb(229, 231, 235); box-sizing: border-box; --tw-border-spacing-x: 0; --tw-border-spacing-y: 0; --tw-translate-x: 0; --tw-translate-y: 0; --tw-rotate: 0; --tw-skew-x: 0; --tw-skew-y: 0; --tw-scale-x: 1; --tw-scale-y: 1; --tw-pan-x: ; --tw-pan-y: ; --tw-pinch-zoom: ; --tw-scroll-snap-strictness: proximity; --tw-gradient-from-position: ; --tw-gradient-via-position: ; --tw-gradient-to-position: ; --tw-ordinal: ; --tw-slashed-zero: ; --tw-numeric-figure: ; --tw-numeric-spacing: ; --tw-numeric-fraction: ; --tw-ring-inset: ; --tw-ring-offset-width: 0px; --tw-ring-offset-color: #fff; --tw-ring-color: rgba(59,130,246,.5); --tw-ring-offset-shadow: 0 0 #0000; --tw-ring-shadow: 0 0 #0000; --tw-shadow: 0 0 #0000; --tw-shadow-colored: 0 0 #0000; --tw-blur: ; --tw-brightness: ; --tw-contrast: ; --tw-grayscale: ; --tw-hue-rotate: ; --tw-invert: ; --tw-saturate: ; --tw-sepia: ; --tw-drop-shadow: ; --tw-backdrop-blur: ; --tw-backdrop-brightness: ; --tw-backdrop-contrast: ; --tw-backdrop-grayscale: ; --tw-backdrop-hue-rotate: ; --tw-backdrop-invert: ; --tw-backdrop-opacity: ; --tw-backdrop-saturate: ; --tw-backdrop-sepia: ; vertical-align: inherit;&quot;&gt;(el equivalente a&amp;nbsp;&lt;/font&gt;&lt;/font&gt;&lt;code style=&quot;border: 0px solid rgb(229, 231, 235); box-sizing: border-box; --tw-border-spacing-x: 0; --tw-border-spacing-y: 0; --tw-translate-x: 0; --tw-translate-y: 0; --tw-rotate: 0; --tw-skew-x: 0; --tw-skew-y: 0; --tw-scale-x: 1; --tw-scale-y: 1; --tw-pan-x: ; --tw-pan-y: ; --tw-pinch-zoom: ; --tw-scroll-snap-strictness: proximity; --tw-gradient-from-position: ; --tw-gradient-via-position: ; --tw-gradient-to-position: ; --tw-ordinal: ; --tw-slashed-zero: ; --tw-numeric-figure: ; --tw-numeric-spacing: ; --tw-numeric-fraction: ; --tw-ring-inset: ; --tw-ring-offset-width: 0px; --tw-ring-offset-color: #fff; --tw-ring-color: rgba(59,130,246,.5); --tw-ring-offset-shadow: 0 0 #0000; --tw-ring-shadow: 0 0 #0000; --tw-shadow: 0 0 #0000; --tw-shadow-colored: 0 0 #0000; --tw-blur: ; --tw-brightness: ; --tw-contrast: ; --tw-grayscale: ; --tw-hue-rotate: ; --tw-invert: ; --tw-saturate: ; --tw-sepia: ; --tw-drop-shadow: ; --tw-backdrop-blur: ; --tw-backdrop-brightness: ; --tw-backdrop-contrast: ; --tw-backdrop-grayscale: ; --tw-backdrop-hue-rotate: ; --tw-backdrop-invert: ; --tw-backdrop-opacity: ; --tw-backdrop-saturate: ; --tw-backdrop-sepia: ; font-family: ui-monospace, SFMono-Regular, Menlo, Monaco, Consolas, &amp;quot;Liberation Mono&amp;quot;, &amp;quot;Courier New&amp;quot;, monospace; font-feature-settings: normal; font-size: 0.875em; font-variation-settings: normal; border-radius: 0.375rem; --tw-bg-opacity: 1; background-color: rgba(55, 65, 81, 0.4); padding: 0.25rem; text-align: start;&quot;&gt;bold&lt;/code&gt;&lt;font style=&quot;border: 0px solid rgb(229, 231, 235); box-sizing: border-box; --tw-border-spacing-x: 0; --tw-border-spacing-y: 0; --tw-translate-x: 0; --tw-translate-y: 0; --tw-rotate: 0; --tw-skew-x: 0; --tw-skew-y: 0; --tw-scale-x: 1; --tw-scale-y: 1; --tw-pan-x: ; --tw-pan-y: ; --tw-pinch-zoom: ; --tw-scroll-snap-strictness: proximity; --tw-gradient-from-position: ; --tw-gradient-via-position: ; --tw-gradient-to-position: ; --tw-ordinal: ; --tw-slashed-zero: ; --tw-numeric-figure: ; --tw-numeric-spacing: ; --tw-numeric-fraction: ; --tw-ring-inset: ; --tw-ring-offset-width: 0px; --tw-ring-offset-color: #fff; --tw-ring-color: rgba(59,130,246,.5); --tw-ring-offset-shadow: 0 0 #0000; --tw-ring-shadow: 0 0 #0000; --tw-shadow: 0 0 #0000; --tw-shadow-colored: 0 0 #0000; --tw-blur: ; --tw-brightness: ; --tw-contrast: ; --tw-grayscale: ; --tw-hue-rotate: ; --tw-invert: ; --tw-saturate: ; --tw-sepia: ; --tw-drop-shadow: ; --tw-backdrop-blur: ; --tw-backdrop-brightness: ; --tw-backdrop-contrast: ; --tw-backdrop-grayscale: ; --tw-backdrop-hue-rotate: ; --tw-backdrop-invert: ; --tw-backdrop-opacity: ; --tw-backdrop-saturate: ; --tw-backdrop-sepia: ; color: rgb(209, 213, 219); font-family: Inter, &amp;quot;Helvetica Neue&amp;quot;, Helvetica, Arial, sans-serif; font-size: 16px; text-align: start; background-color: rgb(17, 24, 39); vertical-align: inherit;&quot;&gt;&lt;font style=&quot;border: 0px solid rgb(229, 231, 235); box-sizing: border-box; --tw-border-spacing-x: 0; --tw-border-spacing-y: 0; --tw-translate-x: 0; --tw-translate-y: 0; --tw-rotate: 0; --tw-skew-x: 0; --tw-skew-y: 0; --tw-scale-x: 1; --tw-scale-y: 1; --tw-pan-x: ; --tw-pan-y: ; --tw-pinch-zoom: ; --tw-scroll-snap-strictness: proximity; --tw-gradient-from-position: ; --tw-gradient-via-position: ; --tw-gradient-to-position: ; --tw-ordinal: ; --tw-slashed-zero: ; --tw-numeric-figure: ; --tw-numeric-spacing: ; --tw-numeric-fraction: ; --tw-ring-inset: ; --tw-ring-offset-width: 0px; --tw-ring-offset-color: #fff; --tw-ring-color: rgba(59,130,246,.5); --tw-ring-offset-shadow: 0 0 #0000; --tw-ring-shadow: 0 0 #0000; --tw-shadow: 0 0 #0000; --tw-shadow-colored: 0 0 #0000; --tw-blur: ; --tw-brightness: ; --tw-contrast: ; --tw-grayscale: ; --tw-hue-rotate: ; --tw-invert: ; --tw-saturate: ; --tw-sepia: ; --tw-drop-shadow: ; --tw-backdrop-blur: ; --tw-backdrop-brightness: ; --tw-backdrop-contrast: ; --tw-backdrop-grayscale: ; --tw-backdrop-hue-rotate: ; --tw-backdrop-invert: ; --tw-backdrop-opacity: ; --tw-backdrop-saturate: ; --tw-backdrop-sepia: ; vertical-align: inherit;&quot;&gt;). Por lo general, los valores numéricos se mostrarán en incrementos de 100 hasta 900, aunque esto dependerá de la fuente.&lt;/font&gt;&lt;/font&gt;" style="whiteSpace=wrap;html=1;" vertex="1" parent="1">
                    <mxGeometry x="-290" y="1550" width="530" height="120" as="geometry"/>
                </mxCell>
                <mxCell id="86" value="&lt;p style=&quot;border: 0px solid rgb(229, 231, 235); box-sizing: border-box; --tw-border-spacing-x: 0; --tw-border-spacing-y: 0; --tw-translate-x: 0; --tw-translate-y: 0; --tw-rotate: 0; --tw-skew-x: 0; --tw-skew-y: 0; --tw-scale-x: 1; --tw-scale-y: 1; --tw-pan-x: ; --tw-pan-y: ; --tw-pinch-zoom: ; --tw-scroll-snap-strictness: proximity; --tw-gradient-from-position: ; --tw-gradient-via-position: ; --tw-gradient-to-position: ; --tw-ordinal: ; --tw-slashed-zero: ; --tw-numeric-figure: ; --tw-numeric-spacing: ; --tw-numeric-fraction: ; --tw-ring-inset: ; --tw-ring-offset-width: 0px; --tw-ring-offset-color: #fff; --tw-ring-color: rgba(59,130,246,.5); --tw-ring-offset-shadow: 0 0 #0000; --tw-ring-shadow: 0 0 #0000; --tw-shadow: 0 0 #0000; --tw-shadow-colored: 0 0 #0000; --tw-blur: ; --tw-brightness: ; --tw-contrast: ; --tw-grayscale: ; --tw-hue-rotate: ; --tw-invert: ; --tw-saturate: ; --tw-sepia: ; --tw-drop-shadow: ; --tw-backdrop-blur: ; --tw-backdrop-brightness: ; --tw-backdrop-contrast: ; --tw-backdrop-grayscale: ; --tw-backdrop-hue-rotate: ; --tw-backdrop-invert: ; --tw-backdrop-opacity: ; --tw-backdrop-saturate: ; --tw-backdrop-sepia: ; margin: 1.25em 0px; color: rgb(209, 213, 219); font-family: Inter, &amp;quot;Helvetica Neue&amp;quot;, Helvetica, Arial, sans-serif; font-size: 16px; text-align: start; background-color: rgb(17, 24, 39);&quot;&gt;&lt;code style=&quot;border: 0px solid rgb(229, 231, 235); box-sizing: border-box; --tw-border-spacing-x: 0; --tw-border-spacing-y: 0; --tw-translate-x: 0; --tw-translate-y: 0; --tw-rotate: 0; --tw-skew-x: 0; --tw-skew-y: 0; --tw-scale-x: 1; --tw-scale-y: 1; --tw-pan-x: ; --tw-pan-y: ; --tw-pinch-zoom: ; --tw-scroll-snap-strictness: proximity; --tw-gradient-from-position: ; --tw-gradient-via-position: ; --tw-gradient-to-position: ; --tw-ordinal: ; --tw-slashed-zero: ; --tw-numeric-figure: ; --tw-numeric-spacing: ; --tw-numeric-fraction: ; --tw-ring-inset: ; --tw-ring-offset-width: 0px; --tw-ring-offset-color: #fff; --tw-ring-color: rgba(59,130,246,.5); --tw-ring-offset-shadow: 0 0 #0000; --tw-ring-shadow: 0 0 #0000; --tw-shadow: 0 0 #0000; --tw-shadow-colored: 0 0 #0000; --tw-blur: ; --tw-brightness: ; --tw-contrast: ; --tw-grayscale: ; --tw-hue-rotate: ; --tw-invert: ; --tw-saturate: ; --tw-sepia: ; --tw-drop-shadow: ; --tw-backdrop-blur: ; --tw-backdrop-brightness: ; --tw-backdrop-contrast: ; --tw-backdrop-grayscale: ; --tw-backdrop-hue-rotate: ; --tw-backdrop-invert: ; --tw-backdrop-opacity: ; --tw-backdrop-saturate: ; --tw-backdrop-sepia: ; font-family: ui-monospace, SFMono-Regular, Menlo, Monaco, Consolas, &amp;quot;Liberation Mono&amp;quot;, &amp;quot;Courier New&amp;quot;, monospace; font-feature-settings: normal; font-size: 0.875em; font-variation-settings: normal; border-radius: 0.375rem; --tw-bg-opacity: 1; background-color: rgba(55, 65, 81, 0.4); padding: 0.25rem;&quot;&gt;text-align&lt;/code&gt;&lt;font style=&quot;border: 0px solid rgb(229, 231, 235); box-sizing: border-box; --tw-border-spacing-x: 0; --tw-border-spacing-y: 0; --tw-translate-x: 0; --tw-translate-y: 0; --tw-rotate: 0; --tw-skew-x: 0; --tw-skew-y: 0; --tw-scale-x: 1; --tw-scale-y: 1; --tw-pan-x: ; --tw-pan-y: ; --tw-pinch-zoom: ; --tw-scroll-snap-strictness: proximity; --tw-gradient-from-position: ; --tw-gradient-via-position: ; --tw-gradient-to-position: ; --tw-ordinal: ; --tw-slashed-zero: ; --tw-numeric-figure: ; --tw-numeric-spacing: ; --tw-numeric-fraction: ; --tw-ring-inset: ; --tw-ring-offset-width: 0px; --tw-ring-offset-color: #fff; --tw-ring-color: rgba(59,130,246,.5); --tw-ring-offset-shadow: 0 0 #0000; --tw-ring-shadow: 0 0 #0000; --tw-shadow: 0 0 #0000; --tw-shadow-colored: 0 0 #0000; --tw-blur: ; --tw-brightness: ; --tw-contrast: ; --tw-grayscale: ; --tw-hue-rotate: ; --tw-invert: ; --tw-saturate: ; --tw-sepia: ; --tw-drop-shadow: ; --tw-backdrop-blur: ; --tw-backdrop-brightness: ; --tw-backdrop-contrast: ; --tw-backdrop-grayscale: ; --tw-backdrop-hue-rotate: ; --tw-backdrop-invert: ; --tw-backdrop-opacity: ; --tw-backdrop-saturate: ; --tw-backdrop-sepia: ; vertical-align: inherit;&quot;&gt;alineará el texto horizontalmente dentro de un elemento, y puede usar las palabras clave comunes que haya encontrado en los procesadores de texto como valor para esta propiedad, por ejemplo&amp;nbsp;&lt;/font&gt;&lt;code style=&quot;border: 0px solid rgb(229, 231, 235); box-sizing: border-box; --tw-border-spacing-x: 0; --tw-border-spacing-y: 0; --tw-translate-x: 0; --tw-translate-y: 0; --tw-rotate: 0; --tw-skew-x: 0; --tw-skew-y: 0; --tw-scale-x: 1; --tw-scale-y: 1; --tw-pan-x: ; --tw-pan-y: ; --tw-pinch-zoom: ; --tw-scroll-snap-strictness: proximity; --tw-gradient-from-position: ; --tw-gradient-via-position: ; --tw-gradient-to-position: ; --tw-ordinal: ; --tw-slashed-zero: ; --tw-numeric-figure: ; --tw-numeric-spacing: ; --tw-numeric-fraction: ; --tw-ring-inset: ; --tw-ring-offset-width: 0px; --tw-ring-offset-color: #fff; --tw-ring-color: rgba(59,130,246,.5); --tw-ring-offset-shadow: 0 0 #0000; --tw-ring-shadow: 0 0 #0000; --tw-shadow: 0 0 #0000; --tw-shadow-colored: 0 0 #0000; --tw-blur: ; --tw-brightness: ; --tw-contrast: ; --tw-grayscale: ; --tw-hue-rotate: ; --tw-invert: ; --tw-saturate: ; --tw-sepia: ; --tw-drop-shadow: ; --tw-backdrop-blur: ; --tw-backdrop-brightness: ; --tw-backdrop-contrast: ; --tw-backdrop-grayscale: ; --tw-backdrop-hue-rotate: ; --tw-backdrop-invert: ; --tw-backdrop-opacity: ; --tw-backdrop-saturate: ; --tw-backdrop-sepia: ; font-family: ui-monospace, SFMono-Regular, Menlo, Monaco, Consolas, &amp;quot;Liberation Mono&amp;quot;, &amp;quot;Courier New&amp;quot;, monospace; font-feature-settings: normal; font-size: 0.875em; font-variation-settings: normal; border-radius: 0.375rem; --tw-bg-opacity: 1; background-color: rgba(55, 65, 81, 0.4); padding: 0.25rem;&quot;&gt;text-align: center&lt;/code&gt;&lt;font style=&quot;border: 0px solid rgb(229, 231, 235); box-sizing: border-box; --tw-border-spacing-x: 0; --tw-border-spacing-y: 0; --tw-translate-x: 0; --tw-translate-y: 0; --tw-rotate: 0; --tw-skew-x: 0; --tw-skew-y: 0; --tw-scale-x: 1; --tw-scale-y: 1; --tw-pan-x: ; --tw-pan-y: ; --tw-pinch-zoom: ; --tw-scroll-snap-strictness: proximity; --tw-gradient-from-position: ; --tw-gradient-via-position: ; --tw-gradient-to-position: ; --tw-ordinal: ; --tw-slashed-zero: ; --tw-numeric-figure: ; --tw-numeric-spacing: ; --tw-numeric-fraction: ; --tw-ring-inset: ; --tw-ring-offset-width: 0px; --tw-ring-offset-color: #fff; --tw-ring-color: rgba(59,130,246,.5); --tw-ring-offset-shadow: 0 0 #0000; --tw-ring-shadow: 0 0 #0000; --tw-shadow: 0 0 #0000; --tw-shadow-colored: 0 0 #0000; --tw-blur: ; --tw-brightness: ; --tw-contrast: ; --tw-grayscale: ; --tw-hue-rotate: ; --tw-invert: ; --tw-saturate: ; --tw-sepia: ; --tw-drop-shadow: ; --tw-backdrop-blur: ; --tw-backdrop-brightness: ; --tw-backdrop-contrast: ; --tw-backdrop-grayscale: ; --tw-backdrop-hue-rotate: ; --tw-backdrop-invert: ; --tw-backdrop-opacity: ; --tw-backdrop-saturate: ; --tw-backdrop-sepia: ; vertical-align: inherit;&quot;&gt;.&lt;/font&gt;&lt;/p&gt;" style="whiteSpace=wrap;html=1;" vertex="1" parent="1">
                    <mxGeometry x="-295" y="1760" width="540" height="110" as="geometry"/>
                </mxCell>
            </root>
        </mxGraphModel>
    </diagram>
</mxfile>